# File exported by Houdini 20.5.584 (www.sidefx.com)
# 1369 points
# 5184 vertices
# 1296 primitives
# Bounds: [-10, 0, -10] to [10, 9.421875, 10]
g 
v -10 0 -10
v -7.77777767 0 -10
v -5.55555534 0 -10
v -3.33333302 0 -10
v -1.11111069 0 -10
v 1.11111164 0 -10
v 3.33333397 0 -10
v 5.5555563 0 -10
v 7.77777863 0 -10
v 10 0 -10
v -10 0 -7.77777767
v -7.47642946 2.89648438 -7.3803153
v -5.07952404 3.63867188 -7.22747946
v -2.80626774 3.73632812 -7.22506714
v -0.610179067 3.90234375 -7.19278336
v 1.60618567 3.73632812 -7.2198801
v 3.81183267 3.63867188 -7.24203968
v 6.00178099 3.16015625 -7.29033661
v 8.05922699 1.6875 -7.40781927
v 10 0 -7.77777767
v -10 0 -5.55555534
v -7.3015027 3.63867188 -4.92907524
v -4.38829994 5.52148438 -4.21900845
v -1.8645587 6.4296875 -3.98318219
v 0.34837085 7.20898438 -3.88053942
v 2.52284527 6.16601562 -3.96248889
v 4.73261261 5.2578125 -4.10192776
v 6.71845007 3.90234375 -4.46921682
v 8.24400711 2 -5.07162189
v 10 0 -5.55555534
v -10 0 -3.33333302
v -7.18952465 3.73632812 -2.67569041
v -3.99816227 6.4296875 -1.70970321
v -0.943599641 8.89648438 -0.824266076
v 1.4741807 9.0625 -0.555904448
v 3.7347436 7.20898438 -0.554931402
v 5.76868248 4.7421875 -0.87299484
v 7.08180428 3.73632812 -1.84679484
v 8.32586002 2 -2.79007626
v 10 0 -3.33333302
v -10 0 -1.11111069
v -7.11536026 3.95117188 -0.4923774
v -3.71246767 7.42382812 0.445678979
v -0.392960489 9.11132812 1.48921478
v 2.35301089 8 2.11267066
v 4.74399471 6.21484375 2.28255677
v 6.43454838 4.36132812 1.69547534
v 7.3068676 3.6875 0.471199274
v 8.37492943 2 -0.563138783
v 10 0 -1.11111069
v -10 0 1.11111164
v -7.10322094 3.95117188 1.70285881
v -3.65613079 7.16015625 2.61546373
v -0.271108001 7.6875 3.51259112
v 2.29659033 6.52734375 4.04562283
v 4.55339575 5.78515625 4.20847893
v 6.2977438 4.52734375 3.68326712
v 7.24563026 3.73632812 2.62318945
v 8.36067581 2 1.65520144
v 10 0 1.11111164
v -10 0 3.33333397
v -7.13370705 3.6875 3.94317389
v -3.74521875 5.6875 4.84817123
v -0.635603905 5.95117188 5.56138325
v 1.41488719 5.73632812 5.77302742
v 3.61918783 5.63867188 5.81319809
v 5.70437288 5.20898438 5.54283428
v 7.02282047 3.90234375 4.7179141
v 8.30958557 2 3.86267662
v 10 0 3.33333397
v -10 0 5.5555563
v -7.20077038 3.16015625 6.12897873
v -4.22891092 3.95117188 6.75702286
v -1.82863855 4 6.97694969
v 0.331044495 4 7.08874083
v 2.53472662 4 7.12198734
v 4.73195696 3.95117188 7.01002407
v 6.62258911 3.47265625 6.68641329
v 8.26161575 1.95117188 6.07755375
v 10 0 5.5555563
v -10 0 7.77777863
v -7.39797306 1.6875 8.16241646
v -5.0235157 2 8.30535316
v -2.81250453 2 8.31339455
v -0.584893107 2 8.34752083
v 1.62590766 2 8.34156322
v 3.82290387 2 8.31391239
v 6.04054832 1.95117188 8.27395058
v 8.1504612 1.47265625 8.14259148
v 10 0 7.77777863
v -10 0 10
v -7.77777767 0 10
v -5.55555534 0 10
v -3.33333302 0 10
v -1.11111069 0 10
v 1.11111164 0 10
v 3.33333397 0 10
v 5.5555563 0 10
v 7.77777863 0 10
v 10 0 10
v -8.79795074 0.938964844 -8.76744747
v -6.47024393 1.92285156 -8.6452713
v -4.2234273 1.96875 -8.65267467
v -2.00411534 1.98388672 -8.64844513
v 0.211641714 1.98388672 -8.64471626
v 2.43064928 1.96875 -8.65172577
v 4.63930988 1.93798828 -8.65750694
v 6.84551001 1.43847656 -8.65488148
v 8.97222614 0.484375 -8.76686764
v -8.69569588 1.92285156 -6.39450645
v -6.03310823 4.37695312 -5.88061333
v -3.51249456 4.96826172 -5.65376568
v -1.26615906 5.46777344 -5.61156607
v 0.912718475 5.45263672 -5.60327148
v 3.1171155 4.93798828 -5.67860079
v 5.33003187 4.39208984 -5.77776909
v 7.28924322 2.9375 -6.0272646
v 9.07253265 0.984375 -6.43539906
v -8.65524673 1.96875 -4.14221954
v -5.71111965 4.96826172 -3.33755541
v -2.70231867 6.96777344 -2.55506897
v -0.190855831 8.37597656 -2.21066475
v 2.00581169 7.87646484 -2.18792963
v 4.22093868 5.96875 -2.29917145
v 6.16885567 4.48388672 -2.73457956
v 7.60582876 2.98388672 -3.54221058
v 9.10769081 1 -4.21424913
v -8.61555672 1.984375 -1.92898512
v -5.52902746 5.48291016 -1.13628316
v -2.16645765 8.39111328 -0.0569659211
v 0.7479707 9.34570312 0.716719389
v 3.19832826 7.92236328 0.976751149
v 5.36191273 5.53027344 0.834338129
v 6.75667524 4.03027344 -0.0336304381
v 7.7276988 2.96923828 -1.22063637
v 9.13556576 1 -1.98525333
v -8.60145187 1.99902344 0.272346914
v -5.42724466 5.92236328 1.02472162
v -1.91336608 8.36132812 2.02761197
v 1.15249741 7.96826172 2.86303663
v 3.67898846 6.53027344 3.30832243
v 5.73235321 5.04638672 3.12516403
v 6.92299175 4.015625 2.16964459
v 7.77215004 2.96923828 0.999602616
v 9.14259243 1 0.234599873
v -8.60867405 1.98388672 2.49128294
v -5.44247723 5.42236328 3.25944972
v -1.91313243 6.92236328 4.20838737
v 0.860730767 6.49902344 4.80869102
v 3.0229435 5.984375 5.03303337
v 5.18323326 5.45410156 4.91946125
v 6.66054153 4.46875 4.19639683
v 7.68851566 2.98388672 3.1759336
v 9.12832451 1 2.45665812
v -8.62337589 1.93847656 4.72117043
v -5.54777575 4.42236328 5.45987701
v -2.45637345 4.98339844 6.1490407
v -0.122895941 4.984375 6.42710209
v 1.94320393 4.96875 6.50150013
v 4.20607758 4.93798828 6.45621204
v 6.1077795 4.42285156 6.08059549
v 7.55058002 2.96826172 5.35084772
v 9.11475182 0.999511719 4.6861763
v -8.64016247 1.43847656 6.9244318
v -5.91533327 2.93798828 7.39014912
v -3.47434282 2.99951172 7.59808636
v -1.28138828 3 7.64799404
v 0.935107827 3 7.70513725
v 3.14101839 2.99951172 7.6778965
v 5.30722904 2.96875 7.58871365
v 7.30645657 2.43847656 7.34148359
v 9.12292099 0.969238281 6.90782166
v -8.77095413 0.484375 9.00837326
v -6.43022919 0.984375 9.13092995
v -4.21538639 1 9.12683296
v -1.99569809 1 9.13080978
v 0.229452297 1 9.1344738
v 2.43548369 1 9.12261581
v 4.6599865 0.999511719 9.11555576
v 6.90451431 0.969238281 9.11615753
v 9.01097298 0.469726562 9.00416756
v -8.88888931 0 -10
v -7.61626196 1.63964844 -8.67814445
v -8.72843266 1.63964844 -7.55924845
v -10 0 -8.88888931
v -6.66666651 0 -10
v -5.34489727 1.96386719 -8.64602089
v -6.26057005 3.47851562 -7.2733593
v -4.44444418 0 -10
v -3.10857773 1.97363281 -8.65509796
v -3.92914224 3.6875 -7.22241879
v -2.22222185 0 -10
v -0.900413156 1.99023438 -8.64196968
v -1.70581937 3.83886719 -7.20820236
v 4.76837158e-07 0 -10
v 1.32468176 1.97363281 -8.65032959
v 0.496428728 3.83886719 -7.20156527
v 2.22222281 0 -10
v 3.53382063 1.96386719 -8.65280437
v 2.70971012 3.6875 -7.23087788
v 4.44444513 0 -10
v 5.74492168 1.79101562 -8.65899277
v 4.91586494 3.50488281 -7.26283312
v 6.66666746 0 -10
v 7.92552948 0.96875 -8.68025875
v 7.04923058 2.50976562 -7.32579231
v 8.88888931 0 -10
v 10 0 -8.88888931
v 9.03783226 0.84375 -7.56994438
v -7.3752594 3.47851562 -6.12816048
v -8.67874527 1.96386719 -5.260818
v -10 0 -6.66666651
v -4.72697449 4.79101562 -5.70786715
v -5.83560514 4.79101562 -4.54456806
v -2.36942673 5.14160156 -5.64618587
v -3.0694356 5.99511719 -4.05601406
v -0.178739488 5.66113281 -5.58370686
v -0.738051653 6.96386719 -3.91672087
v 2.01136851 5.11523438 -5.64476633
v 1.43013537 6.8125 -3.90610123
v 4.22710419 4.76464844 -5.71677494
v 3.63303185 5.69238281 -4.01833153
v 6.36667728 3.78125 -5.87735367
v 5.7831254 4.66601562 -4.24790764
v 8.16639519 1.96875 -6.21773911
v 7.49619579 2.99023438 -4.7648344
v 10 0 -6.66666651
v 9.09049129 1 -5.32916927
v -7.24091911 3.6875 -3.78462696
v -8.6312027 1.97363281 -3.03289986
v -10 0 -4.44444418
v -4.16204023 5.99511719 -2.89444423
v -5.62230062 5.14160156 -2.21951437
v -1.37319922 7.80761719 -2.32968473
v -2.40686584 7.80761719 -1.21171665
v 0.911568284 8.45214844 -2.1726141
v 0.321513891 9.29589844 -0.627396464
v 3.1098783 6.9375 -2.23353434
v 2.61066413 8.32714844 -0.532730818
v 5.26490498 5.125 -2.44698429
v 4.82173824 5.87011719 -0.641904831
v 6.93815136 3.83886719 -3.11994553
v 6.48990822 4.17285156 -1.3097291
v 8.29272079 2 -3.9269619
v 7.66523552 2.97363281 -2.36113548
v 10 0 -4.44444418
v 9.12368393 1 -3.09620762
v -7.14606428 3.84375 -1.58152258
v -8.6065712 1.99511719 -0.828091502
v -10 0 -2.22222185
v -3.83727932 6.98535156 -0.613763511
v -5.4549861 5.8125 -0.0614971593
v -0.613710165 9.30078125 0.420123637
v -1.99705136 8.60351562 0.991724133
v 1.99203229 8.78125 0.882221103
v 1.0389502 8.78613281 1.85811067
v 4.33871031 6.81738281 0.974582553
v 3.60497904 7.14648438 2.2712574
v 6.18596888 4.48535156 0.506588519
v 5.70401859 5.18261719 2.09203053
v 7.21711159 3.69238281 -0.656437457
v 6.91681099 4.00488281 1.11409402
v 8.3556366 2 -1.67198873
v 7.77229643 2.96875 -0.105410993
v 10 0 -2.22222185
v 9.14211082 1 -0.876861513
v -7.1020155 3.99023438 0.599694371
v -8.60173607 1.99511719 1.37748146
v -10 0 4.76837158e-07
v -3.66132593 7.48339844 1.51617408
v -5.42937469 5.78613281 2.13113093
v -0.283378959 8.50488281 2.49542236
v -1.89011741 7.75976562 3.09471226
v 2.45227981 7.17773438 3.13332462
v 1.09078789 7.14648438 3.82395244
v 4.79151058 5.875 3.32560873
v 3.45937252 6.15625 4.19275284
v 6.44988346 4.33886719 2.72581816
v 5.52559185 5.15625 4.03523397
v 7.30784988 3.69238281 1.55932069
v 6.82077694 4.15136719 3.18351173
v 8.37539291 2 0.547103167
v 7.73885918 2.97363281 2.09369779
v 10 0 4.76837158e-07
v 9.13756847 1 1.34666789
v -7.11499453 3.83886719 2.82210779
v -8.61744308 1.96875 3.60805416
v -10 0 2.22222281
v -3.66988087 6.50976562 3.74598694
v -5.47633553 4.9375 4.38028812
v -0.355955005 6.83886719 4.57932758
v -2.07491016 5.96386719 5.26131773
v 1.92060661 6.15136719 4.94357014
v 0.453507841 5.84375 5.71115208
v 4.13594723 5.81738281 5.04077721
v 2.48265076 5.6875 5.81242275
v 6.05195522 4.97363281 4.64089584
v 4.73533773 5.50976562 5.74190998
v 7.15155506 3.83886719 3.67514324
v 6.42867231 4.66113281 5.17596912
v 8.33655453 2 2.75738907
v 7.6256814 2.99023438 4.2597332
v 10 0 2.22222281
v 9.11922264 1 3.56865358
v -7.15810013 3.50976562 5.04939222
v -8.62882042 1.79101562 5.82811165
v -10 0 4.44444513
v -3.92952061 4.83886719 5.85902023
v -5.68721199 3.78613281 6.4692812
v -1.18338561 4.99511719 6.33147192
v -2.96232176 3.99511719 6.90690613
v 0.871037245 4.97363281 6.47292328
v -0.743947387 4 7.03741932
v 3.07320309 4.96386719 6.50262451
v 1.42373061 4 7.11999178
v 5.24472475 4.79101562 6.32570171
v 3.65375519 3.99511719 7.08657265
v 6.85045052 3.8125 5.74323082
v 5.72182751 3.81738281 6.88584137
v 8.28523064 1.99511719 4.97724915
v 7.44892979 2.81738281 6.39463615
v 10 0 4.44444513
v 9.11711121 0.995117188 5.80261517
v -7.27636242 2.50976562 7.17076635
v -8.68098927 0.96875 7.99002981
v -10 0 6.66666746
v -4.62799454 2.99511719 7.54250622
v -6.1809082 1.96875 8.26279545
v -2.38466072 3 7.613626
v -3.91088247 2 8.31287575
v -0.169612348 3 7.68636513
v -1.70115948 2 8.32966805
v 2.03702402 3 7.70175552
v 0.524290621 2 8.35011673
v 4.23594141 2.99511719 7.6395936
v 2.72246599 2 8.32871151
v 6.33584881 2.81738281 7.49776888
v 4.93374014 1.99511719 8.29767418
v 8.23026848 1.81738281 7.13721085
v 7.12341404 1.81738281 8.23231697
v 10 0 6.66666746
v 9.09765244 0.822265625 7.98057699
v -7.57316065 0.84375 9.09687614
v -8.88888931 0 10
v -10 0 8.88888931
v -5.31990147 1 9.13213444
v -6.66666651 0 10
v -3.10854411 1 9.12478065
v -4.44444418 0 10
v -0.881296039 1 9.13678646
v -2.22222185 0 10
v 1.33488727 1 9.12798119
v 4.76837158e-07 0 10
v 3.54097056 1 9.11857224
v 2.22222281 0 10
v 5.7853756 0.995117188 9.11550713
v 4.44444513 0 10
v 7.98776054 0.822265625 9.08773994
v 6.66666746 0 10
v 10 0 8.88888931
v 8.88888931 0 10
v -9.42032146 0.25 -9.41222191
v -8.266716 0.6875 -9.35658455
v -8.14624119 1.8984375 -8.08415985
v -9.37809181 0.6875 -8.24352646
v -7.13036442 0.9375 -9.32736397
v -6.0108881 1 -9.32435417
v -5.79274082 2.8359375 -7.95166254
v -6.950284 2.6171875 -7.98553705
v -4.89602423 1 -9.32953072
v -3.78161049 1 -9.33272934
v -3.52892518 2.8828125 -7.95581388
v -4.65471697 2.8671875 -7.95005512
v -2.67158365 1 -9.3316555
v -1.56482124 1 -9.32788086
v -1.32086861 2.953125 -7.93843365
v -2.41967916 2.9140625 -7.95162392
v -0.455143273 1 -9.32684898
v 0.657746971 1 -9.32914925
v 0.897060156 2.9140625 -7.9451437
v -0.215957806 2.953125 -7.93546009
v 1.76826286 1 -9.33051109
v 2.87536478 1 -9.33023453
v 3.10748672 2.8671875 -7.95661402
v 2.00566339 2.8828125 -7.95314741
v 3.98256063 1 -9.33118057
v 5.09128523 0.96875 -9.33224106
v 5.3128314 2.703125 -7.97556067
v 4.21032095 2.8359375 -7.96416712
v 6.20089912 0.84375 -9.32833099
v 7.30554008 0.625 -9.32842636
v 7.4734273 1.71875 -8.00306988
v 6.40455818 2.328125 -7.98168182
v 8.39412403 0.375 -9.35555744
v 9.46650791 0.125 -9.41160297
v 9.50553322 0.34375 -8.24464607
v 8.50575066 1.03125 -8.08990479
v -9.3539114 0.9375 -7.09540987
v -8.064044 2.6171875 -6.85496378
v -8.01855564 2.8359375 -5.67646217
v -9.3458395 1 -5.96905899
v -6.78110695 3.7109375 -6.65404987
v -5.52148819 4.1796875 -6.51477051
v -5.22727776 4.9609375 -5.05914927
v -6.63438416 4.1796875 -5.35838652
v -4.31334257 4.3359375 -6.45497417
v -3.16185236 4.4140625 -6.45177841
v -2.69413185 5.625 -4.83295393
v -3.90306854 5.3671875 -4.88437033
v -2.04922581 4.5703125 -6.44156647
v -0.956128895 4.765625 -6.41335726
v -0.464419305 6.3984375 -4.74966574
v -1.55938721 6 -4.79708862
v 0.138313085 4.765625 -6.40880299
v 1.24116719 4.5703125 -6.43422842
v 1.70701575 5.9140625 -4.78707743
v 0.618519425 6.3671875 -4.74428463
v 2.34569192 4.4140625 -6.46062613
v 3.45045519 4.3359375 -6.48073244
v 3.91891479 5.25 -4.88570738
v 2.80849552 5.5078125 -4.83671331
v 4.5593338 4.1796875 -6.50902939
v 5.65130997 3.828125 -6.55539322
v 6.07299757 4.265625 -5.08343172
v 5.02276134 4.875 -4.96042156
v 6.6804738 3.203125 -6.62509871
v 7.64507389 2.34375 -6.73108387
v 7.80259371 2.5 -5.51621723
v 6.99106121 3.453125 -5.27352905
v 8.58751869 1.40625 -6.89394951
v 9.52925205 0.46875 -7.10719919
v 9.53845978 0.5 -5.99690199
v 8.63743877 1.5 -5.76371479
v -9.33796406 1 -4.85312557
v -7.98111725 2.8671875 -4.53477669
v -7.94173717 2.8828125 -3.41763711
v -9.3257513 1 -3.74135399
v -6.52594757 4.3359375 -4.14262486
v -5.00580502 5.3671875 -3.71854234
v -4.86975718 5.625 -2.52738166
v -6.45117712 4.4140625 -3.00797606
v -3.55294132 6.1484375 -3.39547491
v -2.22950172 6.8125 -3.2087512
v -1.82687759 7.9609375 -1.68696463
v -3.2998879 6.8125 -2.06317186
v -1.02752471 7.4375 -3.0960815
v 0.086101152 7.8671875 -3.03180552
v 0.640021086 8.96875 -1.3615793
v -0.518936813 8.7421875 -1.45467901
v 1.16963792 7.7109375 -3.02689028
v 2.25863886 7.0078125 -3.06964445
v 2.8627727 7.7109375 -1.36051583
v 1.75037837 8.59375 -1.34227514
v 3.36594915 6.2265625 -3.12571597
v 4.46825743 5.5625 -3.20595264
v 5.04332304 5.40625 -1.52832973
v 3.97809649 6.5546875 -1.4091922
v 5.50609493 4.9375 -3.3664031
v 6.43249321 4.265625 -3.62538624
v 6.68721104 4.0703125 -2.23332167
v 5.95150566 4.59375 -1.80508924
v 7.21298218 3.453125 -3.96349144
v 7.90771008 2.5 -4.33038092
v 7.96115112 2.5 -3.16346884
v 7.32651711 3.4140625 -2.71356845
v 8.67143631 1.5 -4.64478683
v 9.54494667 0.5 -4.88935518
v 9.5531311 0.5 -3.77586532
v 8.69849205 1.5 -3.51775813
v -9.31604481 1 -2.63257933
v -7.90908813 2.9140625 -2.31438303
v -7.88687992 2.9609375 -1.21751261
v -9.31098557 1 -1.52579927
v -6.38499641 4.5703125 -1.91278434
v -4.74881268 6 -1.42078602
v -4.63065815 6.4765625 -0.34911561
v -6.32455063 4.8046875 -0.829568267
v -3.08871555 7.4375 -0.879993975
v -1.50035596 8.7421875 -0.37377429
v -1.2608273 9.0078125 0.736599386
v -2.91067028 7.9453125 0.196441129
v -0.0868598521 9.3984375 -0.0272536874
v 1.15467644 9.28125 0.141853109
v 1.56596553 8.8125 1.42901516
v 0.231861264 9.2890625 1.15775824
v 2.33318496 8.65625 0.223243147
v 3.48885822 7.6796875 0.249090284
v 4.02257538 7.046875 1.67671418
v 2.82563543 8 1.60216582
v 4.59314919 6.3984375 0.194045454
v 5.57840157 5.09375 0.00785218179
v 5.98324776 4.8203125 1.33410811
v 5.09604263 5.921875 1.59987295
v 6.33784866 4.28125 -0.38465327
v 6.89738369 3.9140625 -0.945664942
v 7.06360817 3.875 0.23338455
v 6.61934757 4.1640625 0.857138932
v 7.41556263 3.3828125 -1.52440667
v 8.00265312 2.5 -2.02335238
v 8.04165459 2.5 -0.906303465
v 7.49939823 3.375 -0.386034995
v 8.72064495 1.5 -2.39822698
v 9.56005669 0.5 -2.66344476
v 9.56427479 0.5 -1.55382359
v 8.73688126 1.5 -1.28890848
v -9.3080101 1 -0.420173407
v -7.87385941 2.9921875 -0.122684851
v -7.86975813 2.9921875 0.975994706
v -9.30666924 1 0.686206162
v -6.28920364 4.9609375 0.254979074
v -4.56098747 6.7578125 0.722028375
v -4.54610062 6.703125 1.81390762
v -6.28209543 4.9609375 1.3512485
v -2.80343723 8.1015625 1.24343264
v -1.11597693 8.7890625 1.7618959
v -1.05753875 8.1875 2.78662062
v -2.76711464 7.828125 2.31087446
v 0.416772991 8.6953125 2.19785738
v 1.7883482 8 2.52011251
v 1.78591812 7.171875 3.4797368
v 0.463165313 7.875 3.18318558
v 3.07044172 7.1875 2.74581528
v 4.26584339 6.421875 2.84865379
v 4.16665459 6.078125 3.79337311
v 3.01202464 6.546875 3.69256973
v 5.30843782 5.546875 2.75885344
v 6.14308214 4.6640625 2.45277786
v 6.05091238 4.703125 3.41962767
v 5.19884396 5.453125 3.70923042
v 6.7256012 4.1328125 1.95293009
v 7.12684488 3.875 1.33385408
v 7.08185863 3.9140625 2.38656211
v 6.65847015 4.203125 2.9564538
v 7.53268719 3.375 0.722133279
v 8.05729771 2.5 0.203006119
v 8.0446043 2.5 1.3093648
v 7.50615501 3.3828125 1.81177151
v 8.74314308 1.5 -0.179634705
v 9.56584167 0.5 -0.443451047
v 9.56485176 0.5 0.668441653
v 8.73862457 1.5 0.932088971
v -9.30863094 1 1.79631555
v -7.87529087 2.9609375 2.0859735
v -7.8877039 2.90625 3.20504713
v -9.31301498 1 2.9099052
v -6.29014063 4.8046875 2.46671534
v -4.55290031 6.328125 2.93464684
v -4.58052731 5.71875 4.0637188
v -6.30836678 4.53125 3.59285307
v -2.76421404 7.203125 3.42125559
v -1.06129503 7.375 3.86204386
v -1.17695022 6.4609375 4.9380188
v -2.81791639 6.34375 4.53665829
v 0.382071614 7.0625 4.19652653
v 1.5724014 6.546875 4.4168644
v 1.18005872 6.0703125 5.33222294
v 0.143265665 6.3046875 5.20148039
v 2.69651079 6.171875 4.56786251
v 3.81907225 5.953125 4.64149952
v 3.32107115 5.8359375 5.44412899
v 2.20718908 5.9140625 5.40692616
v 4.88261509 5.578125 4.57692766
v 5.80753183 5.015625 4.343853
v 5.46058559 5.3671875 5.24381876
v 4.44077444 5.6796875 5.40423107
v 6.49208021 4.515625 3.94253445
v 6.97721529 4.0703125 3.42311883
v 6.82868576 4.265625 4.44934273
v 6.25000858 4.8984375 4.9156661
v 7.44659042 3.4140625 2.88563919
v 8.01447678 2.5 2.40702152
v 7.97510862 2.5 3.50039959
v 7.36639833 3.453125 3.95121312
v 8.72576332 1.5 2.04108429
v 9.56143379 0.5 1.77984035
v 9.55696964 0.5 2.89101839
v 8.70895958 1.5 3.14878273
v -9.31639671 1 4.02349949
v -7.90077639 2.84375 4.32135868
v -7.91526556 2.703125 5.42646217
v -9.31769848 0.96875 5.13512993
v -6.33991051 4.21875 4.70513248
v -4.66035938 5.03125 5.15194273
v -4.82135868 4.3046875 6.16071463
v -6.39934349 3.828125 5.7810111
v -3.01207376 5.40625 5.55875683
v -1.52813089 5.4921875 5.86298132
v -2.08551598 4.5 6.60979033
v -3.35981989 4.4609375 6.44730186
v -0.324738204 5.4609375 6.04246378
v 0.659685791 5.4140625 6.11829185
v 0.0791121423 4.5 6.76561069
v -0.961515486 4.5 6.70448208
v 1.66451061 5.3828125 6.15479183
v 2.77453947 5.3671875 6.17282486
v 2.23758674 4.5 6.82321644
v 1.13329542 4.5 6.80533791
v 3.92001152 5.3359375 6.1497879
v 5.00457335 5.2109375 6.04706287
v 4.47295141 4.4609375 6.73774719
v 3.36816239 4.5 6.80618429
v 5.9052844 4.8671875 5.81001282
v 6.61924458 4.265625 5.44526052
v 6.34357738 3.953125 6.37444162
v 5.47163391 4.3046875 6.59797764
v 7.26359844 3.453125 5.02068758
v 7.93199062 2.5 4.6040988
v 7.88277626 2.4609375 5.70202065
v 7.12783718 3.328125 6.06220341
v 8.69456673 1.5 4.26322508
v 9.55408478 0.5 4.00453663
v 9.55475807 0.5 5.11997128
v 8.68606949 1.4921875 5.38034582
v -9.31818581 0.84375 6.2443347
v -7.93890715 2.328125 6.51532173
v -7.98914862 1.71875 7.57352495
v -9.32635975 0.625 7.34417629
v -6.51267433 3.203125 6.79993248
v -5.09007168 3.4609375 7.06200314
v -5.42998457 2.5 7.88331604
v -6.68214607 2.34375 7.75920057
v -3.80357122 3.4921875 7.22012138
v -2.66683698 3.5 7.27573061
v -3.16062307 2.5 7.94863892
v -4.26178551 2.5 7.93921661
v -1.57473135 3.5 7.31312847
v -0.476798683 3.5 7.36277437
v -0.948778391 2.5 7.99093342
v -2.06351995 2.5 7.96171761
v 0.622733116 3.5 7.40128803
v 1.72454226 3.5 7.41499901
v 1.267658 2.5 8.0122261
v 0.164020583 2.5 8.01111984
v 2.83421326 3.5 7.3999424
v 3.93813109 3.4921875 7.3566618
v 3.46583247 2.5 7.97730064
v 2.36727762 2.5 7.99931765
v 5.00348091 3.4609375 7.29020405
v 6.00808144 3.328125 7.18399763
v 5.65199947 2.4609375 7.91258049
v 4.56408691 2.5 7.95092201
v 6.94038868 2.953125 6.99984932
v 7.81728649 2.3046875 6.74736977
v 7.71724796 1.953125 7.72579288
v 6.70872784 2.3046875 7.84233236
v 8.68409061 1.4609375 6.48397303
v 9.56031609 0.5 6.23391676
v 9.56045341 0.46875 7.33782101
v 8.66435528 1.328125 7.55413198
v -9.35795116 0.375 8.42124557
v -8.09315205 1.03125 8.57728481
v -8.24766064 0.34375 9.53129005
v -9.41300678 0.125 9.47620487
v -6.88624382 1.40625 8.6739769
v -5.7415185 1.5 8.70769596
v -5.9944272 0.5 9.56551647
v -7.10824013 0.46875 9.56106758
v -4.62896442 1.5 8.71076202
v -3.52620149 1.5 8.70690727
v -3.78037167 0.5 9.55858994
v -4.88830328 0.5 9.56145859
v -2.41848421 1.5 8.71128368
v -1.30315399 1.5 8.72378826
v -1.55669892 0.5 9.56280041
v -2.66955662 0.5 9.55947018
v -0.18963781 1.5 8.72906113
v 0.917107344 1.5 8.72330666
v 0.665121555 0.5 9.56043053
v -0.444554031 0.5 9.56341839
v 2.01659608 1.5 8.71429443
v 3.11508083 1.5 8.70586681
v 2.87762403 0.5 9.55520344
v 1.77157068 0.5 9.55721474
v 4.22555256 1.5 8.69794655
v 5.34742403 1.4921875 8.69038773
v 5.1085124 0.5 9.553936
v 3.98970127 0.5 9.55388069
v 6.4665308 1.4609375 8.6829834
v 7.55628967 1.328125 8.65537453
v 7.3397541 0.46875 9.55510807
v 6.22906017 0.5 9.55725861
v 8.57769966 0.953125 8.56704712
v 9.53322029 0.34375 8.41798592
v 9.47723198 0.125 9.47521114
v 8.42241478 0.34375 9.52810955
v -8.84208107 0.484375 -9.38220215
v -8.20328903 1.33398438 -8.71677017
v -8.75917435 1.33398438 -8.15878105
v -9.39770222 0.484375 -8.82615948
v -6.56928349 0.984375 -9.32370949
v -5.90623951 1.95898438 -8.64335823
v -6.36789131 2.76953125 -7.96253633
v -7.03941536 1.82617188 -8.65558815
v -4.33851528 1 -9.33152008
v -3.66480017 1.97070312 -8.65486526
v -4.09002256 2.875 -7.95309639
v -4.78370953 1.96679688 -8.64942741
v -2.11818075 1 -9.32976532
v -1.45291042 1.98828125 -8.64445972
v -1.87000299 2.93554688 -7.94495249
v -2.55551052 1.97851562 -8.65247536
v 0.101249479 1 -9.32784939
v 0.768670738 1.97851562 -8.64772224
v 0.340320408 2.93554688 -7.93961525
v -0.345140994 1.98828125 -8.64242744
v 2.32202148 1 -9.33039856
v 2.9821887 1.96679688 -8.65194607
v 2.55693579 2.875 -7.95490885
v 1.87841082 1.97070312 -8.65142632
v 4.53677177 0.9921875 -9.33201408
v 5.19231415 1.88671875 -8.65919113
v 4.76227045 2.79101562 -7.96995306
v 4.08633661 1.95898438 -8.65501785
v 6.75453377 0.7421875 -9.3264389
v 7.38917065 1.2109375 -8.66130066
v 6.94270563 2.04296875 -7.98733139
v 6.29670715 1.63671875 -8.6558342
v 8.93166542 0.25 -9.38117027
v 9.48729515 0.2421875 -8.82566452
v 9.00835419 0.6875 -8.16161728
v 8.45242596 0.7265625 -8.71692276
v -8.70840073 1.82617188 -6.97189236
v -8.03850269 2.76953125 -6.26024342
v -8.68693829 1.95898438 -5.82488394
v -9.34885693 0.984375 -6.53022289
v -6.14662313 4.00390625 -6.57559013
v -5.37127161 4.62890625 -5.78094196
v -5.92708302 4.62890625 -5.19981194
v -6.70394945 4.00390625 -5.99898529
v -3.73162746 4.375 -6.45027733
v -2.93408966 5.04101562 -5.64987659
v -3.28675866 5.49804688 -4.84998035
v -4.10875273 4.89453125 -5.66928577
v -1.5015409 4.67773438 -6.42710781
v -0.721885443 5.60351562 -5.5935607
v -1.00866532 6.22460938 -4.77147198
v -1.81439447 5.29882812 -5.63126183
v 0.689109921 4.67773438 -6.41958141
v 1.4611218 5.27734375 -5.62356043
v 1.16160882 6.1640625 -4.76224232
v 0.366113275 5.59570312 -5.58846474
v 2.8978014 4.375 -6.47056055
v 3.67178679 4.86523438 -5.69596195
v 3.3635571 5.37695312 -4.85964298
v 2.5635047 5.01171875 -5.66232443
v 5.11030388 4.03320312 -6.52962303
v 5.86084032 4.1171875 -5.82177973
v 5.55949116 4.59765625 -5.01471519
v 4.78265285 4.60742188 -5.74340534
v 7.16819382 2.79296875 -6.67226887
v 7.72799206 2.4609375 -6.11826611
v 7.40202808 2.98828125 -5.39128542
v 6.83914185 3.3828125 -5.94640493
v 9.05844498 0.9375 -6.99637556
v 9.53493309 0.4921875 -6.55018187
v 9.08243465 1 -5.8815012
v 8.61546516 1.4765625 -6.324018
v -8.66773415 1.96679688 -4.70010138
v -7.96112823 2.875 -3.97380471
v -8.6426239 1.97070312 -3.58665752
v -9.33197212 1 -4.29679203
v -5.76573181 4.89453125 -3.92626572
v -4.93149805 5.49804688 -3.10833645
v -5.66542387 5.04101562 -2.77108812
v -6.48592138 4.375 -3.56776476
v -2.87554097 6.49023438 -3.28896332
v -2.01955795 7.41210938 -2.42841983
v -2.54701209 7.41210938 -1.86057281
v -3.41772985 6.49023438 -2.71021605
v -0.463309258 7.70117188 -3.05720901
v 0.365302682 8.49023438 -2.18329072
v 0.0728910863 8.92773438 -1.39481783
v -0.766994178 8.13867188 -2.25828147
v 1.71265256 7.3984375 -3.04445601
v 2.55605173 7.4296875 -2.20834088
v 2.30626535 8.20117188 -1.34714663
v 1.4580276 8.23242188 -2.17509055
v 3.92144537 5.88476562 -3.15931058
v 4.75668192 5.5234375 -2.35816789
v 4.52365589 5.95898438 -1.4545058
v 3.6684227 6.4453125 -2.26071906
v 5.98537827 4.61328125 -3.48479104
v 6.5691843 4.17773438 -2.91870451
v 6.33616304 4.32226562 -2.00648737
v 5.73486233 4.7890625 -2.57489729
v 7.56139374 2.98828125 -4.14841747
v 7.93840647 2.5 -3.74406767
v 7.63770723 2.97851562 -2.94639111
v 7.27805424 3.43554688 -3.33097529
v 9.09904289 1 -4.77289057
v 9.54901123 0.5 -4.33291483
v 9.11603737 1 -3.65482712
v 8.68570518 1.5 -4.08131027
v -8.6223278 1.97851562 -2.48043132
v -7.89675713 2.9375 -1.76542115
v -8.61045074 1.99023438 -1.37829411
v -9.31309414 1 -2.07899261
v -5.57540512 5.29882812 -1.67548478
v -4.68653059 6.24414062 -0.882735074
v -5.48745823 5.6640625 -0.599192739
v -6.35284662 4.6875 -1.37051105
v -2.27912307 8.13867188 -0.6147421
v -1.36923718 8.9375 0.199405894
v -2.0715425 8.55078125 0.474295139
v -2.99319673 7.72070312 -0.333264768
v 0.548595011 9.41992188 0.0738703758
v 1.37858808 9.1171875 0.811205089
v 0.913477063 9.11914062 1.30888724
v 0.0879485309 9.421875 0.589460194
v 2.91566014 8.20898438 0.244693905
v 3.77964282 7.40039062 0.990256369
v 3.43574286 7.54296875 1.65506446
v 2.60053539 8.3828125 0.939071298
v 5.10732794 5.71679688 0.122040093
v 5.80427694 4.94726562 0.697074652
v 5.56698036 5.34179688 1.49199855
v 4.86976194 6.17382812 0.924725294
v 6.6326952 4.08007812 -0.653519332
v 6.98967981 3.88476562 -0.344440997
v 6.85399723 4.00976562 0.554164886
v 6.49610329 4.20507812 0.256533086
v 7.69661951 2.97070312 -1.78662133
v 8.02377033 2.5 -1.46290255
v 7.75431156 2.96875 -0.660970092
v 7.46096516 3.37695312 -0.950158715
v 9.13023186 1 -2.53997374
v 9.56250095 0.5 -2.1085062
v 9.13956451 1 -1.43117356
v 8.72975636 1.5 -1.8429265
v -8.60347748 1.99804688 -0.278110415
v -7.87064934 2.99609375 0.425707996
v -8.60077667 1.99804688 0.823978364
v -9.30703163 1 0.132736146
v -5.43590164 5.8984375 0.479519963
v -4.54876471 6.77148438 1.26486826
v -5.42605591 5.88476562 1.57497096
v -6.28293753 4.98046875 0.801181316
v -1.94565713 8.53515625 1.50800443
v -1.07746983 8.52539062 2.27112532
v -1.89618409 8.09765625 2.55502272
v -2.77875543 8.01367188 1.77319169
v 1.11822665 8.39257812 2.3721261
v 1.81437683 7.57421875 3.00954771
v 1.14295411 7.54296875 3.34294462
v 0.456594467 8.29882812 2.69219398
v 3.68311143 6.80859375 2.81695366
v 4.25317717 6.21875 3.34125185
v 3.6014595 6.3125 3.76153231
v 3.07625341 6.83984375 3.23596478
v 5.75451469 5.08398438 2.6314435
v 6.12219858 4.65429688 2.94835567
v 5.65141773 5.0703125 3.58811855
v 5.28667974 5.46875 3.25224733
v 6.9372654 4.00195312 1.65038419
v 7.11484432 3.88476562 1.86420274
v 6.8816185 4.06054688 2.67848396
v 6.70907593 4.14648438 2.46154881
v 7.77749157 2.96875 0.448252231
v 8.05381203 2.5 0.756913781
v 7.75852156 2.97070312 1.5482235
v 7.52522469 3.37695312 1.26909614
v 9.14308834 1 -0.321444899
v 9.56565857 0.5 0.112431176
v 9.14072037 1 0.79079628
v 8.74207878 1.5 0.376244545
v -8.6046114 1.99023438 1.93355417
v -7.88102627 2.93554688 2.64511442
v -8.61319447 1.9765625 3.04975414
v -9.31073475 1 2.3528924
v -5.43424177 5.62695312 2.69406438
v -4.56214952 6.04296875 3.50121498
v -5.45590162 5.1875 3.82296515
v -6.29778528 4.67773438 3.02998352
v -1.89117205 7.36328125 3.65115738
v -1.09740853 6.92773438 4.40943527
v -1.96978366 6.45117188 4.75043106
v -2.77874899 6.79296875 3.98447466
v 0.997190118 6.80859375 4.31816292
v 1.39540863 6.31054688 4.88398457
v 0.67998004 6.1875 5.27864885
v 0.286850512 6.68554688 4.70977592
v 3.26157713 6.0625 4.61815405
v 3.58250618 5.91601562 5.05027866
v 2.75834465 5.875 5.43268967
v 2.46604776 6.05273438 4.99535847
v 5.36876059 5.3046875 4.48143673
v 5.6473484 5.22070312 4.80139732
v 4.97132254 5.54296875 5.34204102
v 4.67447853 5.65820312 4.99821329
v 6.74809599 4.30273438 3.69133663
v 6.90950012 4.17773438 3.93877077
v 6.55507851 4.60351562 4.69312811
v 6.3821907 4.72851562 4.43483353
v 7.71541405 2.97851562 2.63560891
v 7.99560452 2.5 2.9533329
v 7.65849495 2.98828125 3.71664929
v 7.40919638 3.43554688 3.4187007
v 9.13323307 1 1.90173793
v 9.55916882 0.5 2.33529711
v 9.12345123 1 3.01207972
v 8.71745682 1.5 2.59459305
v -8.62069035 1.9609375 4.16526937
v -7.90736055 2.79296875 4.87562609
v -8.62593937 1.88671875 5.27552795
v -9.31722832 0.9921875 4.57958889
v -5.50559807 4.6875 4.9270978
v -4.72905397 4.67773438 5.66801214
v -5.60695219 4.12695312 5.97511053
v -6.3645153 4.04296875 5.24890709
v -2.24229646 5.47460938 5.72507715
v -1.7924397 4.99804688 6.25257492
v -2.70157194 4.49023438 6.54053974
v -3.17034721 4.93554688 6.01860905
v 0.179884285 5.4375 6.08931446
v 0.371620089 4.97851562 6.45375729
v -0.43683809 4.5 6.73848152
v -0.634051085 4.99023438 6.38799381
v 2.21073484 5.375 6.16752911
v 2.50397015 4.96679688 6.50657749
v 1.68066657 4.5 6.81782484
v 1.39689577 4.97070312 6.48956013
v 4.47759008 5.29296875 6.11180115
v 4.74368811 4.88671875 6.4039259
v 3.92880011 4.49023438 6.77963686
v 3.64491105 4.95898438 6.48747349
v 6.27828693 4.59570312 5.63935709
v 6.48928928 4.1484375 5.92149878
v 5.92100716 4.15820312 6.49698925
v 5.69617367 4.63671875 6.2166276
v 7.59040546 2.98828125 4.80716228
v 7.90878153 2.49023438 5.15670681
v 7.50411701 2.91601562 5.88270187
v 7.2010088 3.4140625 5.54968452
v 9.11624718 1 4.12703228
v 9.55389404 0.5 4.56222725
v 9.11496353 0.998046875 5.24504995
v 8.68954277 1.49804688 4.82246161
v -8.63245964 1.63671875 6.37869263
v -7.95900536 2.04296875 7.04974174
v -8.6552372 1.2109375 7.46249008
v -9.32032967 0.7421875 6.79626369
v -5.79263973 3.38476562 6.93887424
v -5.25735188 2.99023438 7.47746658
v -6.04738998 2.4609375 7.82936954
v -6.59173727 2.79296875 7.28607559
v -3.22305417 3.49804688 7.25547075
v -2.92721415 3 7.60641432
v -3.70676088 2.5 7.94660425
v -4.03746414 2.99804688 7.57974863
v -1.02622914 3.5 7.33788157
v -0.725384474 3 7.66837311
v -1.50713015 2.5 7.9758811
v -1.83526635 3 7.62861538
v 1.17300391 3.5 7.41149187
v 1.48594427 3 7.70615625
v 0.716663003 2.5 8.01374149
v 0.383570343 3 7.69857979
v 3.38894224 3.49804688 7.38151455
v 3.69047761 2.99804688 7.66012812
v 2.91664028 2.5 7.989151
v 2.5892911 3 7.69205379
v 5.51409674 3.41601562 7.24445629
v 5.82810783 2.91601562 7.55027342
v 5.11063862 2.49023438 7.93449306
v 4.77568245 2.99023438 7.61713791
v 7.38293171 2.65820312 6.87856245
v 7.77323341 2.15820312 7.24381733
v 7.2198391 2.15820312 7.79040098
v 6.82798004 2.65820312 7.42715311
v 9.121418 0.990234375 6.35783339
v 9.5624342 0.4921875 6.78798008
v 9.11665535 0.91796875 7.44969749
v 8.67951488 1.41601562 7.0247221
v -8.72072697 0.7265625 8.50421047
v -8.16619778 0.6875 9.05843353
v -8.82817364 0.2421875 9.50585651
v -9.38352394 0.25 8.95056725
v -6.30798388 1.4765625 8.6966877
v -5.87285805 1 9.13381958
v -6.54925251 0.4921875 9.5654068
v -6.99575043 0.9375 9.11982918
v -4.07728052 1.5 8.70875263
v -3.66257071 1 9.12496376
v -4.33463049 0.5 9.55971527
v -4.76762009 1 9.12951469
v -1.8611815 1.5 8.71748066
v -1.43832898 1 9.13444805
v -2.11321092 0.5 9.56115246
v -2.55267811 1 9.12715912
v 0.364611477 1.5 8.72707653
v 0.782900691 1 9.13136482
v 0.110639736 0.5 9.56216431
v -0.325324446 1 9.13653851
v 2.56515193 1.5 8.71001244
v 2.9869113 1 9.120471
v 2.32424569 0.5 9.55609131
v 1.8852787 1 9.12509155
v 4.78594875 1.49804688 8.69413471
v 5.22249651 0.998046875 9.11501694
v 4.54857731 0.5 9.55361748
v 4.09907007 1 9.1168375
v 7.01751614 1.41601562 8.6742363
v 7.45265341 0.91796875 9.10772896
v 6.78677464 0.4921875 9.55807781
v 6.34740162 0.990234375 9.11731911
v 9.06095028 0.66796875 8.49757767
v 9.50762272 0.2421875 8.94851017
v 8.95214367 0.2421875 9.50381947
v 8.50577545 0.66796875 9.05189896
v -9.44444466 0 -10
v -8.33333397 0 -10
v -7.69566441 0.84375 -9.33757114
v -7.5422802 2.33984375 -8.02472496
v -8.09876251 2.33984375 -7.46235752
v -9.36299324 0.84375 -7.66603851
v -10 0 -8.33333397
v -10 0 -9.44444466
v -7.22222233 0 -10
v -6.11111069 0 -10
v -5.45364618 1 -9.32704544
v -5.22246933 2.85546875 -7.9488554
v -5.66596508 3.58984375 -7.24391651
v -6.86387825 3.26171875 -7.31807041
v -5 0 -10
v -3.8888886 0 -10
v -3.22580242 1 -9.33287048
v -2.97196436 2.89453125 -7.95604467
v -3.36445332 3.70703125 -7.22498274
v -4.50070763 3.66796875 -7.22178268
v -2.77777743 0 -10
v -1.66666627 0 -10
v -1.01073301 1 -9.32668209
v -0.770209253 2.9609375 -7.93446827
v -1.15863001 3.8828125 -7.19850016
v -2.25421071 3.78515625 -7.21826601
v -0.555555105 0 -10
v 0.555556059 0 -10
v 1.21365094 1 -9.33021355
v 1.45269632 2.89453125 -7.95025158
v 1.05164802 3.78515625 -7.21083784
v -0.0580032691 3.8828125 -7.1946764
v 1.66666722 0 -10
v 2.77777839 0 -10
v 3.42873192 1 -9.33037567
v 3.65829039 2.85546875 -7.95934105
v 3.26049662 3.66796875 -7.23571682
v 2.15857315 3.70703125 -7.22607994
v 3.88888955 0 -10
v 5.00000095 0 -10
v 5.64602089 0.921875 -9.33122444
v 5.86069632 2.5546875 -7.97984934
v 5.46258211 3.3671875 -7.27605772
v 4.36461878 3.58984375 -7.25128555
v 6.11111164 0 -10
v 7.22222328 0 -10
v 7.85253239 0.5 -9.33717251
v 7.99501276 1.375 -8.0351696
v 7.55862427 2.109375 -7.35818195
v 6.53047323 2.8671875 -7.30504608
v 8.33333397 0 -10
v 9.44444466 0 -10
v 10 0 -9.44444466
v 10 0 -8.33333397
v 9.51994324 0.421875 -7.67100382
v 8.55161095 1.265625 -7.48031092
v -7.42142057 3.26171875 -6.74791813
v -7.33595085 3.58984375 -5.52167082
v -8.00062084 2.85546875 -5.10188484
v -9.34287167 1 -5.41049957
v -10 0 -6.11111069
v -10 0 -7.22222233
v -4.90922165 4.27734375 -6.47382164
v -4.54819632 5.19921875 -4.94960117
v -5.10146809 5.19921875 -4.36610985
v -6.57439041 4.27734375 -4.7377634
v -2.60179305 4.47265625 -6.45152521
v -2.12005329 5.78125 -4.81981564
v -2.45494699 6.203125 -4.01468706
v -3.71242118 5.77734375 -4.11988211
v -0.410380781 4.8046875 -6.40552044
v 0.0768194646 6.46484375 -4.73836994
v -0.19225049 7.15234375 -3.8922286
v -1.29387403 6.703125 -3.94878268
v 1.79364204 4.47265625 -6.44911861
v 2.25566864 5.67578125 -4.81362343
v 1.97435343 6.48828125 -3.93302393
v 0.888653636 7.07421875 -3.88688517
v 4.00413752 4.27734375 -6.49295235
v 4.47262955 5.09375 -4.9182024
v 4.18626404 5.484375 -4.05427074
v 3.07714891 5.91015625 -3.98933125
v 6.17661285 3.5546875 -6.58699846
v 6.55346107 3.8828125 -5.16892004
v 6.26960707 4.3046875 -4.34856319
v 5.26784706 4.984375 -4.16608524
v 8.11641502 1.875 -6.80411911
v 8.20898724 2 -5.6423502
v 7.86409473 2.5 -4.92142534
v 7.12081337 3.4609375 -4.6110363
v 10 0 -7.22222233
v 10 0 -6.11111069
v 9.5413065 0.5 -5.44430971
v 8.6554327 1.5 -5.20623827
v -7.26991987 3.66796875 -4.35100079
v -7.2142148 3.70703125 -3.22713041
v -7.92402935 2.89453125 -2.86494064
v -9.32015705 1 -3.18666506
v -10 0 -3.8888886
v -10 0 -5
v -4.2626977 5.77734375 -3.53607273
v -4.07697821 6.203125 -2.28777122
v -4.81179237 5.78125 -1.96756828
v -6.41858006 4.47265625 -2.45805168
v -1.61382794 7.125 -3.14705253
v -1.14801037 8.41796875 -1.54933667
v -1.65322304 8.41796875 -0.99765861
v -3.19251609 7.125 -1.45340884
v 0.627989292 7.88671875 -3.02124214
v 1.19500089 8.859375 -1.34678972
v 0.90492332 9.25 -0.581566513
v -0.290007204 9.18359375 -0.704570889
v 2.80920243 6.59765625 -3.09816241
v 3.42001247 7.15234375 -1.38149393
v 3.17498159 7.80859375 -0.537571371
v 2.04324579 8.75 -0.539233863
v 4.99895191 5.25 -3.27264833
v 5.52372885 4.9375 -1.64155912
v 5.31996775 5.25 -0.73385185
v 4.28849649 6.54296875 -0.585986853
v 6.84313059 3.8828125 -3.78576159
v 7.0141592 3.78515625 -2.47315931
v 6.79410172 3.97265625 -1.57404065
v 6.1533823 4.40625 -1.07050061
v 8.27127552 2 -4.49922371
v 8.31027222 2 -3.35664392
v 7.98091125 2.5 -2.58956933
v 7.36885738 3.39453125 -2.11135197
v 10 0 -5
v 10 0 -3.8888886
v 9.55693626 0.5 -3.21908307
v 8.7100544 1.5 -2.95608044
v -7.16656494 3.78515625 -2.12748408
v -7.12875271 3.90234375 -1.03681672
v -7.87929916 2.98046875 -0.670114756
v -9.30939674 1 -0.972894549
v -10 0 -1.66666627
v -10 0 -2.77777743
v -3.91624236 6.703125 -1.15388882
v -3.76733422 7.23828125 -0.0827624798
v -4.58690643 6.66015625 0.184372291
v -6.30252981 4.90234375 -0.288292646
v -0.765304685 9.18359375 -0.172731191
v -0.489400595 9.26953125 0.969153821
v -1.17608702 8.95703125 1.25252366
v -2.84584689 8.08203125 0.71878612
v 1.74500108 9.015625 0.187906653
v 2.19984531 8.421875 1.5246166
v 1.70611644 8.421875 1.99780905
v 0.342321634 9.03515625 1.68982816
v 4.04921055 7.07421875 0.233263671
v 4.57853937 6.5078125 1.6605165
v 4.19289541 6.6953125 2.29925084
v 2.98882484 7.578125 2.20644188
v 5.9930234 4.59375 -0.157913774
v 6.33673763 4.41015625 1.12341666
v 6.10096455 4.72265625 1.919245
v 5.24969864 5.6953125 2.21330881
v 7.1517334 3.70703125 -1.24224305
v 7.271101 3.6875 -0.0863120705
v 7.1117897 3.875 0.791565061
v 6.69878006 4.14453125 1.4212445
v 8.34141254 2 -2.2290659
v 8.36723995 2 -1.11722088
v 8.05369949 2.5 -0.351639241
v 7.52519512 3.375 0.170537874
v 10 0 -2.77777743
v 10 0 -1.66666627
v 9.56538582 0.5 -0.998953223
v 8.7415123 1.5 -0.734901488
v -7.10661602 3.98046875 0.0527845435
v -7.10105181 3.98046875 1.14937735
v -7.8712759 2.98046875 1.52910614
v -9.30713367 1 1.24060857
v -10 0 0.555556059
v -10 0 -0.555555105
v -3.67874002 7.50390625 0.978125572
v -3.65539789 7.3671875 2.06142116
v -4.54885817 6.5546875 2.37016177
v -6.28504133 4.90234375 1.90611506
v -0.324974328 8.84765625 1.99516189
v -0.266111255 8.109375 2.9984231
v -1.05315614 7.796875 3.31479025
v -2.76382971 7.5546875 2.85929203
v 2.43609953 7.578125 2.64396095
v 2.40472078 6.8203125 3.59559965
v 1.70468783 6.8203125 3.94430161
v 0.437864631 7.453125 3.68118048
v 4.81037378 6.0078125 2.83219481
v 4.70123959 5.8046875 3.77897739
v 4.01803398 5.9921875 4.2213459
v 2.88352203 6.3203125 4.13130951
v 6.46861792 4.33203125 2.22566891
v 6.38927984 4.3984375 3.20774412
v 5.94182396 4.8203125 3.88024378
v 5.05934906 5.4921875 4.14554358
v 7.3175745 3.6875 1.01916277
v 7.28232622 3.70703125 2.0934155
v 7.03395844 3.97265625 2.90488362
v 6.58304977 4.3203125 3.44699788
v 8.37741089 2 -0.00811838731
v 8.36957932 2 1.10178876
v 8.03103828 2.5 1.85964036
v 7.47882748 3.39453125 2.35050416
v 10 0 -0.555555105
v 10 0 0.555556059
v 9.56343842 0.5 1.22432864
v 8.73308372 1.5 1.48725128
v -7.10801744 3.90234375 2.26116371
v -7.12370634 3.765625 3.3835063
v -7.89454651 2.875 3.76428914
v -9.31504536 1 3.46691895
v -10 0 2.77777839
v -10 0 1.66666722
v -3.65869761 6.8671875 3.17989874
v -3.69646025 6.109375 4.30499077
v -4.6119566 5.375 4.61601067
v -6.32227755 4.375 4.15225792
v -0.296306044 7.265625 4.04635334
v -0.464304388 6.40234375 5.09113216
v -1.31537318 5.98046875 5.4288497
v -2.89219761 5.875 5.065516
v 2.13105774 6.3203125 4.49823093
v 1.67772174 5.97265625 5.37178707
v 0.93270129 5.78515625 5.7481389
v -0.0576186776 5.90234375 5.65219259
v 4.36181259 5.8046875 4.63029289
v 3.88525343 5.77734375 5.43629265
v 3.04750395 5.66796875 5.81949615
v 1.93499136 5.70703125 5.79569435
v 6.18621111 4.7421875 4.16420794
v 5.89225101 5.15234375 5.10366154
v 5.24655628 5.38671875 5.66205978
v 4.18734026 5.58984375 5.78981209
v 7.20239449 3.78515625 3.1503849
v 7.09205103 3.8828125 4.19760609
v 6.73264313 4.3046875 4.95233822
v 6.09216404 4.96484375 5.37680244
v 8.34939003 2 2.206604
v 8.32300758 2 3.30894899
v 7.95367527 2.5 4.05004644
v 7.31794834 3.4609375 4.48470068
v 10 0 1.66666722
v 10 0 2.77777839
v 9.55516529 0.5 3.44732499
v 8.70106506 1.5 3.70465851
v -7.1445508 3.609375 4.49892616
v -7.17621946 3.3671875 5.59320021
v -7.92545891 2.5546875 5.97323704
v -9.31796455 0.921875 5.69006443
v -10 0 5.00000095
v -10 0 3.88888955
v -3.82293653 5.265625 5.36678886
v -4.06487656 4.40234375 6.32303953
v -4.94059181 3.90234375 6.62654591
v -6.44764662 3.5546875 6.29887629
v -0.884102881 5.48046875 5.96969986
v -1.50703609 4.5 6.66209126
v -2.38457632 4 6.94678879
v -3.57329416 3.98046875 6.84706306
v 1.14458752 5.39453125 6.13743782
v 0.598451257 4.5 6.78738928
v -0.207230091 4 7.06492424
v -1.28308952 4 7.00762749
v 3.34720516 5.35546875 6.16785288
v 2.80107784 4.5 6.81988049
v 1.97718024 4 7.12520266
v 0.87485832 4 7.1074667
v 5.48559427 5.07421875 5.94874287
v 4.99057579 4.40234375 6.67802429
v 4.20141506 3.98046875 7.05362701
v 3.09588861 4 7.10923529
v 6.94280052 3.8828125 5.23620892
v 6.74422741 3.6796875 6.22971916
v 6.18290854 3.6796875 6.79747868
v 5.23846912 3.90234375 6.95539284
v 8.29712105 2 4.41996479
v 8.27352333 1.98046875 5.53096676
v 7.85270214 2.40234375 6.23419142
v 7.04174423 3.1796875 6.54875469
v 10 0 3.88888955
v 10 0 5.00000095
v 9.5568428 0.5 5.67734337
v 8.68422699 1.48046875 5.93485689
v -7.23361635 2.8671875 6.65535641
v -7.33061266 2.109375 7.67364168
v -8.03273296 1.375 8.08369732
v -9.33824539 0.5 7.88639545
v -10 0 7.22222328
v -10 0 6.11111164
v -4.42152929 3.48046875 7.15914488
v -4.83356953 2.5 7.92020941
v -5.5955224 2 8.28993225
v -6.78121138 1.875 8.22120285
v -2.12177658 3.5 7.29143715
v -2.61550045 2.5 7.95158815
v -3.36198044 2 8.31220436
v -4.46334839 2 8.31179714
v 0.0730315745 3.5 7.38488388
v -0.390912265 2.5 8.00372791
v -1.14277124 2 8.33966827
v -2.25831747 2 8.32006359
v 2.27804613 3.5 7.41131449
v 1.81764853 2.5 8.00720692
v 1.07595515 2 8.34675884
v -0.0292656384 2 8.35068703
v 4.4776783 3.48046875 7.32601452
v 4.0149498 2.5 7.96436024
v 3.27157426 2 8.321455
v 2.17432737 2 8.33548164
v 6.48399353 3.1796875 7.10405302
v 6.18556499 2.40234375 7.88269138
v 5.48876762 1.98046875 8.2871933
v 4.37770557 2 8.30628204
v 8.24911785 1.90234375 6.61344767
v 8.19930363 1.6796875 7.64740419
v 7.64603186 1.6796875 8.19555855
v 6.58684158 1.90234375 8.25705338
v 10 0 6.11111164
v 10 0 7.22222328
v 9.55163002 0.421875 7.88172674
v 8.63246536 1.1796875 8.06923103
v -7.48004866 1.265625 8.63552189
v -7.67362928 0.421875 9.55039692
v -8.33333397 0 10
v -9.44444466 0 10
v -10 0 9.44444466
v -10 0 8.33333397
v -5.18309593 1.5 8.7110405
v -5.44152403 0.5 9.56349945
v -6.11111069 0 10
v -7.22222233 0 10
v -2.97388363 1.5 8.70711899
v -3.22539163 0.5 9.55840111
v -3.8888886 0 10
v -5 0 10
v -0.745579898 1.5 8.72828865
v -1.00036502 0.5 9.56377125
v -1.66666627 0 10
v -2.77777743 0 10
v 1.46778917 1.5 8.71872139
v 1.21879673 0.5 9.55863953
v 0.555556059 0 10
v -0.555555105 0 10
v 3.66800642 1.5 8.70184898
v 3.43250871 0.5 9.55448723
v 2.77777839 0 10
v 1.66666722 0 10
v 5.90820789 1.48046875 8.68667889
v 5.66888142 0.5 9.55507088
v 5.00000095 0 10
v 3.88888955 0 10
v 8.07797623 1.1796875 8.62133217
v 7.88572454 0.421875 9.54592609
v 7.22222328 0 10
v 6.11111164 0 10
v 10 0 8.33333397
v 10 0 9.44444466
v 9.44444466 0 10
v 8.33333397 0 10
g 
f 1 1017 362 1010
f 1010 362 686 182
f 362 689 101 686
f 1017 185 689 362
f 182 686 363 1011
f 1011 363 1012 2
f 363 687 183 1012
f 686 101 687 363
f 101 688 364 687
f 687 364 1013 183
f 364 1014 12 1013
f 688 184 1014 364
f 185 1016 365 689
f 689 365 688 101
f 365 1015 184 688
f 1016 11 1015 365
f 2 1012 366 1018
f 1018 366 690 186
f 366 693 102 690
f 1012 183 693 366
f 186 690 367 1019
f 1019 367 1020 3
f 367 691 187 1020
f 690 102 691 367
f 102 692 368 691
f 691 368 1021 187
f 368 1022 13 1021
f 692 188 1022 368
f 183 1013 369 693
f 693 369 692 102
f 369 1023 188 692
f 1013 12 1023 369
f 3 1020 370 1024
f 1024 370 694 189
f 370 697 103 694
f 1020 187 697 370
f 189 694 371 1025
f 1025 371 1026 4
f 371 695 190 1026
f 694 103 695 371
f 103 696 372 695
f 695 372 1027 190
f 372 1028 14 1027
f 696 191 1028 372
f 187 1021 373 697
f 697 373 696 103
f 373 1029 191 696
f 1021 13 1029 373
f 4 1026 374 1030
f 1030 374 698 192
f 374 701 104 698
f 1026 190 701 374
f 192 698 375 1031
f 1031 375 1032 5
f 375 699 193 1032
f 698 104 699 375
f 104 700 376 699
f 699 376 1033 193
f 376 1034 15 1033
f 700 194 1034 376
f 190 1027 377 701
f 701 377 700 104
f 377 1035 194 700
f 1027 14 1035 377
f 5 1032 378 1036
f 1036 378 702 195
f 378 705 105 702
f 1032 193 705 378
f 195 702 379 1037
f 1037 379 1038 6
f 379 703 196 1038
f 702 105 703 379
f 105 704 380 703
f 703 380 1039 196
f 380 1040 16 1039
f 704 197 1040 380
f 193 1033 381 705
f 705 381 704 105
f 381 1041 197 704
f 1033 15 1041 381
f 6 1038 382 1042
f 1042 382 706 198
f 382 709 106 706
f 1038 196 709 382
f 198 706 383 1043
f 1043 383 1044 7
f 383 707 199 1044
f 706 106 707 383
f 106 708 384 707
f 707 384 1045 199
f 384 1046 17 1045
f 708 200 1046 384
f 196 1039 385 709
f 709 385 708 106
f 385 1047 200 708
f 1039 16 1047 385
f 7 1044 386 1048
f 1048 386 710 201
f 386 713 107 710
f 1044 199 713 386
f 201 710 387 1049
f 1049 387 1050 8
f 387 711 202 1050
f 710 107 711 387
f 107 712 388 711
f 711 388 1051 202
f 388 1052 18 1051
f 712 203 1052 388
f 199 1045 389 713
f 713 389 712 107
f 389 1053 203 712
f 1045 17 1053 389
f 8 1050 390 1054
f 1054 390 714 204
f 390 717 108 714
f 1050 202 717 390
f 204 714 391 1055
f 1055 391 1056 9
f 391 715 205 1056
f 714 108 715 391
f 108 716 392 715
f 715 392 1057 205
f 392 1058 19 1057
f 716 206 1058 392
f 202 1051 393 717
f 717 393 716 108
f 393 1059 206 716
f 1051 18 1059 393
f 9 1056 394 1060
f 1060 394 718 207
f 394 721 109 718
f 1056 205 721 394
f 207 718 395 1061
f 1061 395 1062 10
f 395 719 208 1062
f 718 109 719 395
f 109 720 396 719
f 719 396 1063 208
f 396 1064 20 1063
f 720 209 1064 396
f 205 1057 397 721
f 721 397 720 109
f 397 1065 209 720
f 1057 19 1065 397
f 11 1071 398 1015
f 1015 398 722 184
f 398 725 110 722
f 1071 212 725 398
f 184 722 399 1014
f 1014 399 1066 12
f 399 723 210 1066
f 722 110 723 399
f 110 724 400 723
f 723 400 1067 210
f 400 1068 22 1067
f 724 211 1068 400
f 212 1070 401 725
f 725 401 724 110
f 401 1069 211 724
f 1070 21 1069 401
f 12 1066 402 1023
f 1023 402 726 188
f 402 729 111 726
f 1066 210 729 402
f 188 726 403 1022
f 1022 403 1072 13
f 403 727 213 1072
f 726 111 727 403
f 111 728 404 727
f 727 404 1073 213
f 404 1074 23 1073
f 728 214 1074 404
f 210 1067 405 729
f 729 405 728 111
f 405 1075 214 728
f 1067 22 1075 405
f 13 1072 406 1029
f 1029 406 730 191
f 406 733 112 730
f 1072 213 733 406
f 191 730 407 1028
f 1028 407 1076 14
f 407 731 215 1076
f 730 112 731 407
f 112 732 408 731
f 731 408 1077 215
f 408 1078 24 1077
f 732 216 1078 408
f 213 1073 409 733
f 733 409 732 112
f 409 1079 216 732
f 1073 23 1079 409
f 14 1076 410 1035
f 1035 410 734 194
f 410 737 113 734
f 1076 215 737 410
f 194 734 411 1034
f 1034 411 1080 15
f 411 735 217 1080
f 734 113 735 411
f 113 736 412 735
f 735 412 1081 217
f 412 1082 25 1081
f 736 218 1082 412
f 215 1077 413 737
f 737 413 736 113
f 413 1083 218 736
f 1077 24 1083 413
f 15 1080 414 1041
f 1041 414 738 197
f 414 741 114 738
f 1080 217 741 414
f 197 738 415 1040
f 1040 415 1084 16
f 415 739 219 1084
f 738 114 739 415
f 114 740 416 739
f 739 416 1085 219
f 416 1086 26 1085
f 740 220 1086 416
f 217 1081 417 741
f 741 417 740 114
f 417 1087 220 740
f 1081 25 1087 417
f 16 1084 418 1047
f 1047 418 742 200
f 418 745 115 742
f 1084 219 745 418
f 200 742 419 1046
f 1046 419 1088 17
f 419 743 221 1088
f 742 115 743 419
f 115 744 420 743
f 743 420 1089 221
f 420 1090 27 1089
f 744 222 1090 420
f 219 1085 421 745
f 745 421 744 115
f 421 1091 222 744
f 1085 26 1091 421
f 17 1088 422 1053
f 1053 422 746 203
f 422 749 116 746
f 1088 221 749 422
f 203 746 423 1052
f 1052 423 1092 18
f 423 747 223 1092
f 746 116 747 423
f 116 748 424 747
f 747 424 1093 223
f 424 1094 28 1093
f 748 224 1094 424
f 221 1089 425 749
f 749 425 748 116
f 425 1095 224 748
f 1089 27 1095 425
f 18 1092 426 1059
f 1059 426 750 206
f 426 753 117 750
f 1092 223 753 426
f 206 750 427 1058
f 1058 427 1096 19
f 427 751 225 1096
f 750 117 751 427
f 117 752 428 751
f 751 428 1097 225
f 428 1098 29 1097
f 752 226 1098 428
f 223 1093 429 753
f 753 429 752 117
f 429 1099 226 752
f 1093 28 1099 429
f 19 1096 430 1065
f 1065 430 754 209
f 430 757 118 754
f 1096 225 757 430
f 209 754 431 1064
f 1064 431 1100 20
f 431 755 227 1100
f 754 118 755 431
f 118 756 432 755
f 755 432 1101 227
f 432 1102 30 1101
f 756 228 1102 432
f 225 1097 433 757
f 757 433 756 118
f 433 1103 228 756
f 1097 29 1103 433
f 21 1109 434 1069
f 1069 434 758 211
f 434 761 119 758
f 1109 231 761 434
f 211 758 435 1068
f 1068 435 1104 22
f 435 759 229 1104
f 758 119 759 435
f 119 760 436 759
f 759 436 1105 229
f 436 1106 32 1105
f 760 230 1106 436
f 231 1108 437 761
f 761 437 760 119
f 437 1107 230 760
f 1108 31 1107 437
f 22 1104 438 1075
f 1075 438 762 214
f 438 765 120 762
f 1104 229 765 438
f 214 762 439 1074
f 1074 439 1110 23
f 439 763 232 1110
f 762 120 763 439
f 120 764 440 763
f 763 440 1111 232
f 440 1112 33 1111
f 764 233 1112 440
f 229 1105 441 765
f 765 441 764 120
f 441 1113 233 764
f 1105 32 1113 441
f 23 1110 442 1079
f 1079 442 766 216
f 442 769 121 766
f 1110 232 769 442
f 216 766 443 1078
f 1078 443 1114 24
f 443 767 234 1114
f 766 121 767 443
f 121 768 444 767
f 767 444 1115 234
f 444 1116 34 1115
f 768 235 1116 444
f 232 1111 445 769
f 769 445 768 121
f 445 1117 235 768
f 1111 33 1117 445
f 24 1114 446 1083
f 1083 446 770 218
f 446 773 122 770
f 1114 234 773 446
f 218 770 447 1082
f 1082 447 1118 25
f 447 771 236 1118
f 770 122 771 447
f 122 772 448 771
f 771 448 1119 236
f 448 1120 35 1119
f 772 237 1120 448
f 234 1115 449 773
f 773 449 772 122
f 449 1121 237 772
f 1115 34 1121 449
f 25 1118 450 1087
f 1087 450 774 220
f 450 777 123 774
f 1118 236 777 450
f 220 774 451 1086
f 1086 451 1122 26
f 451 775 238 1122
f 774 123 775 451
f 123 776 452 775
f 775 452 1123 238
f 452 1124 36 1123
f 776 239 1124 452
f 236 1119 453 777
f 777 453 776 123
f 453 1125 239 776
f 1119 35 1125 453
f 26 1122 454 1091
f 1091 454 778 222
f 454 781 124 778
f 1122 238 781 454
f 222 778 455 1090
f 1090 455 1126 27
f 455 779 240 1126
f 778 124 779 455
f 124 780 456 779
f 779 456 1127 240
f 456 1128 37 1127
f 780 241 1128 456
f 238 1123 457 781
f 781 457 780 124
f 457 1129 241 780
f 1123 36 1129 457
f 27 1126 458 1095
f 1095 458 782 224
f 458 785 125 782
f 1126 240 785 458
f 224 782 459 1094
f 1094 459 1130 28
f 459 783 242 1130
f 782 125 783 459
f 125 784 460 783
f 783 460 1131 242
f 460 1132 38 1131
f 784 243 1132 460
f 240 1127 461 785
f 785 461 784 125
f 461 1133 243 784
f 1127 37 1133 461
f 28 1130 462 1099
f 1099 462 786 226
f 462 789 126 786
f 1130 242 789 462
f 226 786 463 1098
f 1098 463 1134 29
f 463 787 244 1134
f 786 126 787 463
f 126 788 464 787
f 787 464 1135 244
f 464 1136 39 1135
f 788 245 1136 464
f 242 1131 465 789
f 789 465 788 126
f 465 1137 245 788
f 1131 38 1137 465
f 29 1134 466 1103
f 1103 466 790 228
f 466 793 127 790
f 1134 244 793 466
f 228 790 467 1102
f 1102 467 1138 30
f 467 791 246 1138
f 790 127 791 467
f 127 792 468 791
f 791 468 1139 246
f 468 1140 40 1139
f 792 247 1140 468
f 244 1135 469 793
f 793 469 792 127
f 469 1141 247 792
f 1135 39 1141 469
f 31 1147 470 1107
f 1107 470 794 230
f 470 797 128 794
f 1147 250 797 470
f 230 794 471 1106
f 1106 471 1142 32
f 471 795 248 1142
f 794 128 795 471
f 128 796 472 795
f 795 472 1143 248
f 472 1144 42 1143
f 796 249 1144 472
f 250 1146 473 797
f 797 473 796 128
f 473 1145 249 796
f 1146 41 1145 473
f 32 1142 474 1113
f 1113 474 798 233
f 474 801 129 798
f 1142 248 801 474
f 233 798 475 1112
f 1112 475 1148 33
f 475 799 251 1148
f 798 129 799 475
f 129 800 476 799
f 799 476 1149 251
f 476 1150 43 1149
f 800 252 1150 476
f 248 1143 477 801
f 801 477 800 129
f 477 1151 252 800
f 1143 42 1151 477
f 33 1148 478 1117
f 1117 478 802 235
f 478 805 130 802
f 1148 251 805 478
f 235 802 479 1116
f 1116 479 1152 34
f 479 803 253 1152
f 802 130 803 479
f 130 804 480 803
f 803 480 1153 253
f 480 1154 44 1153
f 804 254 1154 480
f 251 1149 481 805
f 805 481 804 130
f 481 1155 254 804
f 1149 43 1155 481
f 34 1152 482 1121
f 1121 482 806 237
f 482 809 131 806
f 1152 253 809 482
f 237 806 483 1120
f 1120 483 1156 35
f 483 807 255 1156
f 806 131 807 483
f 131 808 484 807
f 807 484 1157 255
f 484 1158 45 1157
f 808 256 1158 484
f 253 1153 485 809
f 809 485 808 131
f 485 1159 256 808
f 1153 44 1159 485
f 35 1156 486 1125
f 1125 486 810 239
f 486 813 132 810
f 1156 255 813 486
f 239 810 487 1124
f 1124 487 1160 36
f 487 811 257 1160
f 810 132 811 487
f 132 812 488 811
f 811 488 1161 257
f 488 1162 46 1161
f 812 258 1162 488
f 255 1157 489 813
f 813 489 812 132
f 489 1163 258 812
f 1157 45 1163 489
f 36 1160 490 1129
f 1129 490 814 241
f 490 817 133 814
f 1160 257 817 490
f 241 814 491 1128
f 1128 491 1164 37
f 491 815 259 1164
f 814 133 815 491
f 133 816 492 815
f 815 492 1165 259
f 492 1166 47 1165
f 816 260 1166 492
f 257 1161 493 817
f 817 493 816 133
f 493 1167 260 816
f 1161 46 1167 493
f 37 1164 494 1133
f 1133 494 818 243
f 494 821 134 818
f 1164 259 821 494
f 243 818 495 1132
f 1132 495 1168 38
f 495 819 261 1168
f 818 134 819 495
f 134 820 496 819
f 819 496 1169 261
f 496 1170 48 1169
f 820 262 1170 496
f 259 1165 497 821
f 821 497 820 134
f 497 1171 262 820
f 1165 47 1171 497
f 38 1168 498 1137
f 1137 498 822 245
f 498 825 135 822
f 1168 261 825 498
f 245 822 499 1136
f 1136 499 1172 39
f 499 823 263 1172
f 822 135 823 499
f 135 824 500 823
f 823 500 1173 263
f 500 1174 49 1173
f 824 264 1174 500
f 261 1169 501 825
f 825 501 824 135
f 501 1175 264 824
f 1169 48 1175 501
f 39 1172 502 1141
f 1141 502 826 247
f 502 829 136 826
f 1172 263 829 502
f 247 826 503 1140
f 1140 503 1176 40
f 503 827 265 1176
f 826 136 827 503
f 136 828 504 827
f 827 504 1177 265
f 504 1178 50 1177
f 828 266 1178 504
f 263 1173 505 829
f 829 505 828 136
f 505 1179 266 828
f 1173 49 1179 505
f 41 1185 506 1145
f 1145 506 830 249
f 506 833 137 830
f 1185 269 833 506
f 249 830 507 1144
f 1144 507 1180 42
f 507 831 267 1180
f 830 137 831 507
f 137 832 508 831
f 831 508 1181 267
f 508 1182 52 1181
f 832 268 1182 508
f 269 1184 509 833
f 833 509 832 137
f 509 1183 268 832
f 1184 51 1183 509
f 42 1180 510 1151
f 1151 510 834 252
f 510 837 138 834
f 1180 267 837 510
f 252 834 511 1150
f 1150 511 1186 43
f 511 835 270 1186
f 834 138 835 511
f 138 836 512 835
f 835 512 1187 270
f 512 1188 53 1187
f 836 271 1188 512
f 267 1181 513 837
f 837 513 836 138
f 513 1189 271 836
f 1181 52 1189 513
f 43 1186 514 1155
f 1155 514 838 254
f 514 841 139 838
f 1186 270 841 514
f 254 838 515 1154
f 1154 515 1190 44
f 515 839 272 1190
f 838 139 839 515
f 139 840 516 839
f 839 516 1191 272
f 516 1192 54 1191
f 840 273 1192 516
f 270 1187 517 841
f 841 517 840 139
f 517 1193 273 840
f 1187 53 1193 517
f 44 1190 518 1159
f 1159 518 842 256
f 518 845 140 842
f 1190 272 845 518
f 256 842 519 1158
f 1158 519 1194 45
f 519 843 274 1194
f 842 140 843 519
f 140 844 520 843
f 843 520 1195 274
f 520 1196 55 1195
f 844 275 1196 520
f 272 1191 521 845
f 845 521 844 140
f 521 1197 275 844
f 1191 54 1197 521
f 45 1194 522 1163
f 1163 522 846 258
f 522 849 141 846
f 1194 274 849 522
f 258 846 523 1162
f 1162 523 1198 46
f 523 847 276 1198
f 846 141 847 523
f 141 848 524 847
f 847 524 1199 276
f 524 1200 56 1199
f 848 277 1200 524
f 274 1195 525 849
f 849 525 848 141
f 525 1201 277 848
f 1195 55 1201 525
f 46 1198 526 1167
f 1167 526 850 260
f 526 853 142 850
f 1198 276 853 526
f 260 850 527 1166
f 1166 527 1202 47
f 527 851 278 1202
f 850 142 851 527
f 142 852 528 851
f 851 528 1203 278
f 528 1204 57 1203
f 852 279 1204 528
f 276 1199 529 853
f 853 529 852 142
f 529 1205 279 852
f 1199 56 1205 529
f 47 1202 530 1171
f 1171 530 854 262
f 530 857 143 854
f 1202 278 857 530
f 262 854 531 1170
f 1170 531 1206 48
f 531 855 280 1206
f 854 143 855 531
f 143 856 532 855
f 855 532 1207 280
f 532 1208 58 1207
f 856 281 1208 532
f 278 1203 533 857
f 857 533 856 143
f 533 1209 281 856
f 1203 57 1209 533
f 48 1206 534 1175
f 1175 534 858 264
f 534 861 144 858
f 1206 280 861 534
f 264 858 535 1174
f 1174 535 1210 49
f 535 859 282 1210
f 858 144 859 535
f 144 860 536 859
f 859 536 1211 282
f 536 1212 59 1211
f 860 283 1212 536
f 280 1207 537 861
f 861 537 860 144
f 537 1213 283 860
f 1207 58 1213 537
f 49 1210 538 1179
f 1179 538 862 266
f 538 865 145 862
f 1210 282 865 538
f 266 862 539 1178
f 1178 539 1214 50
f 539 863 284 1214
f 862 145 863 539
f 145 864 540 863
f 863 540 1215 284
f 540 1216 60 1215
f 864 285 1216 540
f 282 1211 541 865
f 865 541 864 145
f 541 1217 285 864
f 1211 59 1217 541
f 51 1223 542 1183
f 1183 542 866 268
f 542 869 146 866
f 1223 288 869 542
f 268 866 543 1182
f 1182 543 1218 52
f 543 867 286 1218
f 866 146 867 543
f 146 868 544 867
f 867 544 1219 286
f 544 1220 62 1219
f 868 287 1220 544
f 288 1222 545 869
f 869 545 868 146
f 545 1221 287 868
f 1222 61 1221 545
f 52 1218 546 1189
f 1189 546 870 271
f 546 873 147 870
f 1218 286 873 546
f 271 870 547 1188
f 1188 547 1224 53
f 547 871 289 1224
f 870 147 871 547
f 147 872 548 871
f 871 548 1225 289
f 548 1226 63 1225
f 872 290 1226 548
f 286 1219 549 873
f 873 549 872 147
f 549 1227 290 872
f 1219 62 1227 549
f 53 1224 550 1193
f 1193 550 874 273
f 550 877 148 874
f 1224 289 877 550
f 273 874 551 1192
f 1192 551 1228 54
f 551 875 291 1228
f 874 148 875 551
f 148 876 552 875
f 875 552 1229 291
f 552 1230 64 1229
f 876 292 1230 552
f 289 1225 553 877
f 877 553 876 148
f 553 1231 292 876
f 1225 63 1231 553
f 54 1228 554 1197
f 1197 554 878 275
f 554 881 149 878
f 1228 291 881 554
f 275 878 555 1196
f 1196 555 1232 55
f 555 879 293 1232
f 878 149 879 555
f 149 880 556 879
f 879 556 1233 293
f 556 1234 65 1233
f 880 294 1234 556
f 291 1229 557 881
f 881 557 880 149
f 557 1235 294 880
f 1229 64 1235 557
f 55 1232 558 1201
f 1201 558 882 277
f 558 885 150 882
f 1232 293 885 558
f 277 882 559 1200
f 1200 559 1236 56
f 559 883 295 1236
f 882 150 883 559
f 150 884 560 883
f 883 560 1237 295
f 560 1238 66 1237
f 884 296 1238 560
f 293 1233 561 885
f 885 561 884 150
f 561 1239 296 884
f 1233 65 1239 561
f 56 1236 562 1205
f 1205 562 886 279
f 562 889 151 886
f 1236 295 889 562
f 279 886 563 1204
f 1204 563 1240 57
f 563 887 297 1240
f 886 151 887 563
f 151 888 564 887
f 887 564 1241 297
f 564 1242 67 1241
f 888 298 1242 564
f 295 1237 565 889
f 889 565 888 151
f 565 1243 298 888
f 1237 66 1243 565
f 57 1240 566 1209
f 1209 566 890 281
f 566 893 152 890
f 1240 297 893 566
f 281 890 567 1208
f 1208 567 1244 58
f 567 891 299 1244
f 890 152 891 567
f 152 892 568 891
f 891 568 1245 299
f 568 1246 68 1245
f 892 300 1246 568
f 297 1241 569 893
f 893 569 892 152
f 569 1247 300 892
f 1241 67 1247 569
f 58 1244 570 1213
f 1213 570 894 283
f 570 897 153 894
f 1244 299 897 570
f 283 894 571 1212
f 1212 571 1248 59
f 571 895 301 1248
f 894 153 895 571
f 153 896 572 895
f 895 572 1249 301
f 572 1250 69 1249
f 896 302 1250 572
f 299 1245 573 897
f 897 573 896 153
f 573 1251 302 896
f 1245 68 1251 573
f 59 1248 574 1217
f 1217 574 898 285
f 574 901 154 898
f 1248 301 901 574
f 285 898 575 1216
f 1216 575 1252 60
f 575 899 303 1252
f 898 154 899 575
f 154 900 576 899
f 899 576 1253 303
f 576 1254 70 1253
f 900 304 1254 576
f 301 1249 577 901
f 901 577 900 154
f 577 1255 304 900
f 1249 69 1255 577
f 61 1261 578 1221
f 1221 578 902 287
f 578 905 155 902
f 1261 307 905 578
f 287 902 579 1220
f 1220 579 1256 62
f 579 903 305 1256
f 902 155 903 579
f 155 904 580 903
f 903 580 1257 305
f 580 1258 72 1257
f 904 306 1258 580
f 307 1260 581 905
f 905 581 904 155
f 581 1259 306 904
f 1260 71 1259 581
f 62 1256 582 1227
f 1227 582 906 290
f 582 909 156 906
f 1256 305 909 582
f 290 906 583 1226
f 1226 583 1262 63
f 583 907 308 1262
f 906 156 907 583
f 156 908 584 907
f 907 584 1263 308
f 584 1264 73 1263
f 908 309 1264 584
f 305 1257 585 909
f 909 585 908 156
f 585 1265 309 908
f 1257 72 1265 585
f 63 1262 586 1231
f 1231 586 910 292
f 586 913 157 910
f 1262 308 913 586
f 292 910 587 1230
f 1230 587 1266 64
f 587 911 310 1266
f 910 157 911 587
f 157 912 588 911
f 911 588 1267 310
f 588 1268 74 1267
f 912 311 1268 588
f 308 1263 589 913
f 913 589 912 157
f 589 1269 311 912
f 1263 73 1269 589
f 64 1266 590 1235
f 1235 590 914 294
f 590 917 158 914
f 1266 310 917 590
f 294 914 591 1234
f 1234 591 1270 65
f 591 915 312 1270
f 914 158 915 591
f 158 916 592 915
f 915 592 1271 312
f 592 1272 75 1271
f 916 313 1272 592
f 310 1267 593 917
f 917 593 916 158
f 593 1273 313 916
f 1267 74 1273 593
f 65 1270 594 1239
f 1239 594 918 296
f 594 921 159 918
f 1270 312 921 594
f 296 918 595 1238
f 1238 595 1274 66
f 595 919 314 1274
f 918 159 919 595
f 159 920 596 919
f 919 596 1275 314
f 596 1276 76 1275
f 920 315 1276 596
f 312 1271 597 921
f 921 597 920 159
f 597 1277 315 920
f 1271 75 1277 597
f 66 1274 598 1243
f 1243 598 922 298
f 598 925 160 922
f 1274 314 925 598
f 298 922 599 1242
f 1242 599 1278 67
f 599 923 316 1278
f 922 160 923 599
f 160 924 600 923
f 923 600 1279 316
f 600 1280 77 1279
f 924 317 1280 600
f 314 1275 601 925
f 925 601 924 160
f 601 1281 317 924
f 1275 76 1281 601
f 67 1278 602 1247
f 1247 602 926 300
f 602 929 161 926
f 1278 316 929 602
f 300 926 603 1246
f 1246 603 1282 68
f 603 927 318 1282
f 926 161 927 603
f 161 928 604 927
f 927 604 1283 318
f 604 1284 78 1283
f 928 319 1284 604
f 316 1279 605 929
f 929 605 928 161
f 605 1285 319 928
f 1279 77 1285 605
f 68 1282 606 1251
f 1251 606 930 302
f 606 933 162 930
f 1282 318 933 606
f 302 930 607 1250
f 1250 607 1286 69
f 607 931 320 1286
f 930 162 931 607
f 162 932 608 931
f 931 608 1287 320
f 608 1288 79 1287
f 932 321 1288 608
f 318 1283 609 933
f 933 609 932 162
f 609 1289 321 932
f 1283 78 1289 609
f 69 1286 610 1255
f 1255 610 934 304
f 610 937 163 934
f 1286 320 937 610
f 304 934 611 1254
f 1254 611 1290 70
f 611 935 322 1290
f 934 163 935 611
f 163 936 612 935
f 935 612 1291 322
f 612 1292 80 1291
f 936 323 1292 612
f 320 1287 613 937
f 937 613 936 163
f 613 1293 323 936
f 1287 79 1293 613
f 71 1299 614 1259
f 1259 614 938 306
f 614 941 164 938
f 1299 326 941 614
f 306 938 615 1258
f 1258 615 1294 72
f 615 939 324 1294
f 938 164 939 615
f 164 940 616 939
f 939 616 1295 324
f 616 1296 82 1295
f 940 325 1296 616
f 326 1298 617 941
f 941 617 940 164
f 617 1297 325 940
f 1298 81 1297 617
f 72 1294 618 1265
f 1265 618 942 309
f 618 945 165 942
f 1294 324 945 618
f 309 942 619 1264
f 1264 619 1300 73
f 619 943 327 1300
f 942 165 943 619
f 165 944 620 943
f 943 620 1301 327
f 620 1302 83 1301
f 944 328 1302 620
f 324 1295 621 945
f 945 621 944 165
f 621 1303 328 944
f 1295 82 1303 621
f 73 1300 622 1269
f 1269 622 946 311
f 622 949 166 946
f 1300 327 949 622
f 311 946 623 1268
f 1268 623 1304 74
f 623 947 329 1304
f 946 166 947 623
f 166 948 624 947
f 947 624 1305 329
f 624 1306 84 1305
f 948 330 1306 624
f 327 1301 625 949
f 949 625 948 166
f 625 1307 330 948
f 1301 83 1307 625
f 74 1304 626 1273
f 1273 626 950 313
f 626 953 167 950
f 1304 329 953 626
f 313 950 627 1272
f 1272 627 1308 75
f 627 951 331 1308
f 950 167 951 627
f 167 952 628 951
f 951 628 1309 331
f 628 1310 85 1309
f 952 332 1310 628
f 329 1305 629 953
f 953 629 952 167
f 629 1311 332 952
f 1305 84 1311 629
f 75 1308 630 1277
f 1277 630 954 315
f 630 957 168 954
f 1308 331 957 630
f 315 954 631 1276
f 1276 631 1312 76
f 631 955 333 1312
f 954 168 955 631
f 168 956 632 955
f 955 632 1313 333
f 632 1314 86 1313
f 956 334 1314 632
f 331 1309 633 957
f 957 633 956 168
f 633 1315 334 956
f 1309 85 1315 633
f 76 1312 634 1281
f 1281 634 958 317
f 634 961 169 958
f 1312 333 961 634
f 317 958 635 1280
f 1280 635 1316 77
f 635 959 335 1316
f 958 169 959 635
f 169 960 636 959
f 959 636 1317 335
f 636 1318 87 1317
f 960 336 1318 636
f 333 1313 637 961
f 961 637 960 169
f 637 1319 336 960
f 1313 86 1319 637
f 77 1316 638 1285
f 1285 638 962 319
f 638 965 170 962
f 1316 335 965 638
f 319 962 639 1284
f 1284 639 1320 78
f 639 963 337 1320
f 962 170 963 639
f 170 964 640 963
f 963 640 1321 337
f 640 1322 88 1321
f 964 338 1322 640
f 335 1317 641 965
f 965 641 964 170
f 641 1323 338 964
f 1317 87 1323 641
f 78 1320 642 1289
f 1289 642 966 321
f 642 969 171 966
f 1320 337 969 642
f 321 966 643 1288
f 1288 643 1324 79
f 643 967 339 1324
f 966 171 967 643
f 171 968 644 967
f 967 644 1325 339
f 644 1326 89 1325
f 968 340 1326 644
f 337 1321 645 969
f 969 645 968 171
f 645 1327 340 968
f 1321 88 1327 645
f 79 1324 646 1293
f 1293 646 970 323
f 646 973 172 970
f 1324 339 973 646
f 323 970 647 1292
f 1292 647 1328 80
f 647 971 341 1328
f 970 172 971 647
f 172 972 648 971
f 971 648 1329 341
f 648 1330 90 1329
f 972 342 1330 648
f 339 1325 649 973
f 973 649 972 172
f 649 1331 342 972
f 1325 89 1331 649
f 81 1337 650 1297
f 1297 650 974 325
f 650 977 173 974
f 1337 345 977 650
f 325 974 651 1296
f 1296 651 1332 82
f 651 975 343 1332
f 974 173 975 651
f 173 976 652 975
f 975 652 1333 343
f 652 1334 92 1333
f 976 344 1334 652
f 345 1336 653 977
f 977 653 976 173
f 653 1335 344 976
f 1336 91 1335 653
f 82 1332 654 1303
f 1303 654 978 328
f 654 981 174 978
f 1332 343 981 654
f 328 978 655 1302
f 1302 655 1338 83
f 655 979 346 1338
f 978 174 979 655
f 174 980 656 979
f 979 656 1339 346
f 656 1340 93 1339
f 980 347 1340 656
f 343 1333 657 981
f 981 657 980 174
f 657 1341 347 980
f 1333 92 1341 657
f 83 1338 658 1307
f 1307 658 982 330
f 658 985 175 982
f 1338 346 985 658
f 330 982 659 1306
f 1306 659 1342 84
f 659 983 348 1342
f 982 175 983 659
f 175 984 660 983
f 983 660 1343 348
f 660 1344 94 1343
f 984 349 1344 660
f 346 1339 661 985
f 985 661 984 175
f 661 1345 349 984
f 1339 93 1345 661
f 84 1342 662 1311
f 1311 662 986 332
f 662 989 176 986
f 1342 348 989 662
f 332 986 663 1310
f 1310 663 1346 85
f 663 987 350 1346
f 986 176 987 663
f 176 988 664 987
f 987 664 1347 350
f 664 1348 95 1347
f 988 351 1348 664
f 348 1343 665 989
f 989 665 988 176
f 665 1349 351 988
f 1343 94 1349 665
f 85 1346 666 1315
f 1315 666 990 334
f 666 993 177 990
f 1346 350 993 666
f 334 990 667 1314
f 1314 667 1350 86
f 667 991 352 1350
f 990 177 991 667
f 177 992 668 991
f 991 668 1351 352
f 668 1352 96 1351
f 992 353 1352 668
f 350 1347 669 993
f 993 669 992 177
f 669 1353 353 992
f 1347 95 1353 669
f 86 1350 670 1319
f 1319 670 994 336
f 670 997 178 994
f 1350 352 997 670
f 336 994 671 1318
f 1318 671 1354 87
f 671 995 354 1354
f 994 178 995 671
f 178 996 672 995
f 995 672 1355 354
f 672 1356 97 1355
f 996 355 1356 672
f 352 1351 673 997
f 997 673 996 178
f 673 1357 355 996
f 1351 96 1357 673
f 87 1354 674 1323
f 1323 674 998 338
f 674 1001 179 998
f 1354 354 1001 674
f 338 998 675 1322
f 1322 675 1358 88
f 675 999 356 1358
f 998 179 999 675
f 179 1000 676 999
f 999 676 1359 356
f 676 1360 98 1359
f 1000 357 1360 676
f 354 1355 677 1001
f 1001 677 1000 179
f 677 1361 357 1000
f 1355 97 1361 677
f 88 1358 678 1327
f 1327 678 1002 340
f 678 1005 180 1002
f 1358 356 1005 678
f 340 1002 679 1326
f 1326 679 1362 89
f 679 1003 358 1362
f 1002 180 1003 679
f 180 1004 680 1003
f 1003 680 1363 358
f 680 1364 99 1363
f 1004 359 1364 680
f 356 1359 681 1005
f 1005 681 1004 180
f 681 1365 359 1004
f 1359 98 1365 681
f 89 1362 682 1331
f 1331 682 1006 342
f 682 1009 181 1006
f 1362 358 1009 682
f 342 1006 683 1330
f 1330 683 1366 90
f 683 1007 360 1366
f 1006 181 1007 683
f 181 1008 684 1007
f 1007 684 1367 360
f 684 1368 100 1367
f 1008 361 1368 684
f 358 1363 685 1009
f 1009 685 1008 181
f 685 1369 361 1008
f 1363 99 1369 685
