# Mesh exported from NavMeshDemo
# Vertices: 832
# Triangles: 798

v 253.880951 310.344116 14.246414
v 254.412079 310.344116 13.246658
v 253.441620 310.344116 12.246902
v 250.690308 310.360413 11.996964
v 249.440613 310.360413 12.746780
v 250.030304 310.345093 14.246414
v 253.689606 310.344116 14.437790
v -189.083405 320.482605 27.743210
v -186.205185 320.181641 25.993607
v -181.706268 320.130554 24.993851
v -179.984009 320.130554 22.744400
v -178.220764 319.838074 17.495651
v -176.457520 319.940735 12.246902
v -174.458008 319.527283 9.747482
v -173.958115 319.527283 6.248306
v -171.083801 319.287720 3.809433
v -168.209488 319.287720 1.370560
v -167.879486 319.206177 -2.189133
v -167.549500 319.206177 -5.748825
v -163.460632 318.773193 -10.247757
v -162.710815 318.773193 -12.671021
v -161.211166 319.271973 -14.225327
v -160.211395 318.422119 -19.995438
v -157.212128 318.105896 -23.494614
v -153.463013 318.339722 -25.577438
v -149.713913 317.797119 -27.660294
v -145.964813 317.702209 -29.743134
v -145.714874 317.440491 -34.519333
v -143.215469 317.355591 -37.165192
v -142.465652 317.003693 -41.240387
v -139.993591 316.781281 -45.739319
v -140.966003 316.521606 -51.238022
v -141.639679 316.521606 -51.737900
v -144.215240 316.220642 -52.313934
v -147.964325 316.522949 -51.036896
v -151.713440 317.078125 -49.759857
v -154.904083 317.446594 -45.739319
v -157.712006 317.970276 -43.761276
v -159.902893 317.731750 -40.240631
v -164.710327 318.014893 -36.817612
v -166.334930 318.092529 -34.030197
v -167.959549 318.092529 -31.242767
v -172.153870 318.392944 -27.243713
v -172.458466 318.392944 -25.744080
v -174.582977 318.741638 -22.755524
v -176.707458 318.741638 -19.766983
v -178.706970 319.038269 -13.867996
v -181.456329 319.038269 -12.747162
v -183.391403 319.226868 -9.747879
v -185.326492 319.226868 -6.748596
v -187.326019 319.558655 -1.749786
v -187.640381 319.558655 2.499222
v -187.954773 319.791992 6.748184
v -189.926956 319.791992 9.747482
v -189.940613 319.979492 14.246414
v -189.954285 320.236755 18.745346
v -192.863754 320.236755 21.244736
v -192.453690 320.236755 25.743668
v -191.703873 320.594086 26.993393
v -189.204468 320.482605 27.864273
v 220.857605 310.420410 34.241653
v 223.776825 310.420410 31.118393
v 226.696045 310.345642 27.995102
v 230.195221 310.323425 27.364395
v 234.694153 310.323425 23.494217
v 239.193054 310.620483 21.494705
v 241.442535 310.345093 17.631363
v 243.691986 310.360413 13.768021
v 243.768127 310.360413 12.246902
v 240.950439 310.342407 8.581100
v 238.132782 310.324707 4.915298
v 235.315094 310.324707 1.249496
v 229.886688 310.272461 -0.250137
v 225.791962 310.251221 -2.124695
v 221.697235 310.420166 -3.999252
v 217.698212 310.126709 -6.998535
v 213.699158 310.033020 -9.997818
v 209.700104 309.962097 -12.997101
v 204.451385 309.804871 -15.746460
v 202.777954 309.770264 -20.745270
v 199.452576 309.659302 -25.744080
v 198.907776 309.659302 -28.993301
v 198.362976 309.502441 -32.242538
v 194.955597 309.502441 -37.241348
v 194.453766 309.467285 -41.740280
v 191.204529 309.358032 -44.989502
v 189.704895 309.214813 -50.398376
v 188.457153 309.214813 -52.237778
v 188.841827 309.162109 -56.486771
v 189.226501 309.023438 -60.735764
v 188.457153 309.023438 -63.235168
v 188.707092 308.819489 -66.734329
v 188.957031 308.819489 -70.233505
v 192.204315 308.680908 -72.072906
v 193.828918 308.680908 -74.902313
v 195.453522 308.695557 -77.731720
v 198.702759 308.567383 -80.980942
v 201.951965 308.489441 -84.230179
v 202.451843 308.333374 -88.729095
v 204.424042 308.328552 -91.228500
v 204.951263 308.255615 -95.227554
v 203.952454 308.255615 -99.726486
v 202.953674 308.168396 -104.225418
v 203.800171 308.037354 -107.474640
v 204.646637 308.037354 -110.723877
v 207.276855 307.960449 -115.222809
v 207.700592 307.811646 -118.971909
v 211.449707 307.780487 -122.721024
v 213.699158 307.780487 -123.699310
v 217.948151 307.635803 -128.128906
v 222.197113 307.691833 -132.558533
v 223.419495 307.624939 -135.218048
v 222.818085 307.624939 -138.217346
v 220.133179 307.639709 -140.966675
v 217.448273 307.564026 -143.716034
v 215.448730 307.669312 -147.215195
v 215.198792 307.488647 -150.142242
v 213.449860 307.429352 -155.665009
v 211.700958 307.373230 -161.187790
v 209.951996 307.291321 -166.710571
v 210.326904 307.885803 -171.584412
v 210.701843 307.119629 -176.458252
v 211.076752 307.230865 -181.332092
v 211.451660 307.029114 -186.205933
v 212.199524 307.029114 -188.453430
v 214.698914 307.020386 -190.683380
v 215.948608 307.037537 -193.818375
v 217.198334 306.946625 -196.953369
v 220.818542 306.938232 -201.202362
v 221.447296 307.171387 -204.201645
v 220.947418 307.058685 -208.367325
v 220.447540 306.957458 -212.532990
v 219.947662 306.930176 -216.698669
v 221.072388 307.091003 -219.617905
v 222.197113 306.807007 -222.537140
v 224.058014 306.840637 -225.116592
v 225.918884 306.885803 -227.696060
v 224.946472 306.885803 -230.695343
v 224.947449 306.766846 -235.444214
v 224.948425 306.740356 -240.193085
v 225.902283 306.758606 -243.692261
v 226.856171 307.119385 -247.191422
v 226.901093 306.774780 -250.690598
v 226.945984 306.717041 -254.189758
v 226.196167 306.727478 -255.939346
v 220.364227 306.731293 -255.939346
v 214.532318 306.706360 -255.939346
v 208.700348 306.712463 -255.939346
v 202.868408 306.714966 -255.939346
v 197.036499 306.706665 -255.939346
v 191.204529 306.707092 -255.939346
v 190.843292 306.704956 -252.815094
v 190.482056 306.749146 -249.690826
v 192.454254 306.748291 -246.191666
v 192.454254 306.748291 -242.692490
v 191.079559 306.735291 -239.753738
v 189.704895 306.862000 -236.814987
v 189.329010 306.788879 -232.255524
v 188.953125 306.788879 -227.696060
v 187.041473 306.825134 -224.446838
v 185.129822 307.112549 -221.197601
v 184.956024 306.941467 -217.198563
v 183.261139 306.941467 -215.698914
v 181.956757 306.896301 -212.699631
v 180.957001 307.048462 -206.701050
v 178.082672 306.954590 -203.962448
v 175.208374 307.013000 -201.223846
v 173.208832 307.053955 -196.225037
v 169.459747 307.189270 -194.204025
v 167.459229 307.092468 -191.454681
v 165.458740 307.092468 -188.705322
v 161.211700 307.138855 -188.955261
v 158.712311 307.610474 -190.454926
v 154.963196 307.138306 -190.454926
v 151.214111 307.116547 -190.454926
v 148.089844 307.109009 -191.829590
v 144.965607 307.137451 -193.204254
v 142.407623 307.320190 -196.203552
v 140.716614 307.152954 -196.863556
v 135.467865 307.127686 -196.659500
v 130.219116 307.127686 -196.455444
v 127.219849 307.313232 -197.324371
v 121.721161 307.125000 -195.725143
v 117.661591 307.198669 -191.715363
v 113.602020 307.198669 -187.705566
v 113.701599 307.198669 -186.205933
v 116.365997 307.553864 -182.956696
v 119.030396 307.499390 -179.707474
v 122.375305 307.149170 -179.331573
v 125.720215 307.125854 -178.955688
v 129.719238 307.169189 -177.207092
v 133.718292 307.169189 -175.458481
v 134.718048 307.160431 -173.048889
v 137.217468 307.160431 -170.959549
v 139.216980 307.251648 -165.265594
v 141.966309 307.270569 -163.642929
v 144.715668 307.270569 -162.020264
v 148.214813 307.197083 -161.459854
v 151.692505 307.248169 -159.712219
v 153.463562 307.248169 -157.712708
v 155.213135 307.542023 -152.592834
v 158.336426 307.438110 -149.404129
v 161.459717 307.446350 -146.215424
v 162.461426 307.606873 -143.216156
v 165.460693 307.555054 -140.216858
v 165.958618 307.799500 -137.217575
v 164.024506 307.799500 -134.218292
v 162.090424 307.839111 -131.218994
v 161.461639 308.092468 -125.720306
v 158.962250 308.416260 -120.721497
v 158.961273 308.183411 -117.222321
v 158.960297 308.183411 -113.723160
v 157.211700 308.372620 -109.474167
v 155.463104 308.372620 -105.225174
v 154.963196 308.928680 -101.975952
v 154.463318 308.928680 -98.726730
v 151.214111 308.708984 -95.477493
v 148.464752 308.920837 -91.229477
v 145.715424 309.281555 -86.981476
v 143.216034 309.289001 -85.479874
v 137.967285 309.289001 -84.979996
v 132.718536 309.617065 -84.480118
v 130.219116 309.984436 -85.979752
v 126.220093 309.854126 -85.981705
v 121.971100 310.998535 -86.981476
v 117.722107 310.361755 -87.981232
v 114.222961 310.709534 -92.980042
v 111.723541 310.691406 -94.479691
v 108.800415 310.762878 -98.226837
v 104.609375 310.830505 -99.143936
v 100.418304 310.837830 -100.061050
v 96.227264 310.968628 -100.978149
v 92.728088 311.205566 -103.310272
v 89.228943 311.103577 -105.642395
v 85.729767 311.200073 -107.974533
v 82.252075 311.195984 -108.724350
v 78.231567 311.244202 -112.473450
v 73.293304 311.279968 -114.847885
v 68.355011 311.631470 -117.222321
v 64.148987 311.353943 -116.972382
v 59.942963 311.353943 -116.722443
v 55.736938 311.364441 -116.472504
v 51.259491 311.435547 -117.722214
v 48.738617 311.414948 -117.472275
v 46.239227 311.414948 -115.472748
v 42.240173 311.556335 -114.344101
v 39.240875 311.420380 -111.973572
v 34.492035 311.420380 -110.460266
v 29.743164 311.602417 -108.946945
v 27.493713 311.476135 -106.224945
v 28.167358 311.442261 -103.225662
v 30.243042 311.442261 -101.476074
v 35.241852 311.450684 -100.476303
v 37.491302 311.434570 -97.227081
v 41.240417 311.477722 -94.505066
v 43.364899 311.474854 -90.117447
v 45.489380 311.650330 -85.729813
v 48.738617 311.625671 -83.480347
v 49.738373 311.625671 -78.481537
v 51.985901 311.971191 -74.732437
v 51.985901 311.961548 -69.733612
v 51.237030 312.244873 -64.234924
v 50.488190 312.916687 -58.736237
v 48.547241 312.916687 -55.736954
v 47.488922 312.916687 -51.737900
v 43.989746 313.487244 -47.738846
v 40.615570 313.467224 -46.084946
v 37.241364 313.635834 -44.431046
v 34.242096 313.839966 -41.431747
v 32.867401 313.839966 -38.336792
v 31.492737 313.902344 -35.241821
v 30.557404 313.902344 -31.492706
v 29.622101 314.112488 -27.743607
v 31.221313 314.072083 -25.744080
v 35.741730 314.023682 -23.494614
v 39.240875 313.972778 -23.994492
v 43.185272 313.972778 -25.744080
v 45.989288 313.769531 -29.743134
v 46.491119 313.769531 -34.242050
v 48.239716 313.608215 -37.241348
v 49.988312 313.608215 -40.240631
v 53.208252 313.180298 -43.489853
v 56.428192 313.245483 -46.739090
v 57.988373 312.841248 -51.238022
v 59.486053 312.841248 -52.737656
v 60.360840 312.542053 -56.975906
v 61.235626 312.207520 -61.214157
v 64.359894 311.933777 -62.224655
v 67.484131 311.834900 -63.235168
v 69.233704 311.834900 -65.113617
v 73.982574 311.575317 -65.113617
v 78.731445 311.384949 -65.113617
v 82.730499 311.384949 -66.113388
v 84.730011 311.384949 -67.482208
v 89.228943 311.061646 -68.157822
v 94.227722 311.061646 -70.481491
v 98.726654 310.830475 -70.112442
v 102.975647 310.687683 -70.797821
v 107.224640 311.126770 -71.483200
v 110.973724 310.446625 -70.982346
v 114.722839 310.147827 -70.481491
v 118.971832 310.062561 -68.496613
v 123.220795 309.857178 -66.511734
v 126.220093 309.857178 -66.484390
v 129.719238 309.730652 -65.012085
v 133.207672 309.596436 -64.373566
v 136.696106 309.466736 -63.735046
v 141.216492 309.321960 -60.485825
v 142.966064 309.975037 -58.236359
v 145.963409 309.281982 -56.736710
v 148.463776 309.288391 -53.737427
v 150.964172 309.342285 -50.738129
v 155.213135 309.199951 -48.578491
v 159.591003 309.202820 -47.738846
v 161.461639 309.355896 -45.739319
v 160.520477 310.098877 -41.740280
v 160.959808 309.428650 -39.240875
v 159.961029 309.428650 -35.491760
v 158.962250 309.783447 -31.742645
v 156.591736 309.449890 -28.243484
v 157.962494 309.441345 -25.244202
v 162.336456 309.523071 -21.664963
v 166.710388 309.753662 -18.085739
v 170.709442 309.547729 -16.996155
v 174.708496 309.866272 -13.170898
v 179.374023 310.723755 -11.279419
v 184.039612 309.732849 -9.387939
v 188.705139 309.823181 -7.496460
v 192.454254 309.878510 -4.749069
v 193.983185 309.940674 -1.249908
v 195.512115 310.110046 2.249252
v 197.480377 310.023438 4.248795
v 200.495300 310.417206 6.748184
v 203.510193 310.137756 9.247604
v 207.977875 310.176514 11.247116
v 211.008392 310.250671 14.746292
v 214.946899 310.246796 16.745834
v 215.577606 310.631470 22.244522
v 216.948395 310.736084 25.243790
v 217.038208 310.397522 29.242844
v 218.947906 310.397522 31.242386
v 218.448029 310.554413 33.741776
v 220.697479 310.523499 34.401779
v -201.883072 317.175537 -236.693924
v -198.202316 317.097046 -238.441559
v -193.703400 317.115173 -239.171844
v -190.454163 317.079407 -244.192139
v -186.205185 317.505737 -246.941483
v -184.629395 317.056580 -249.190948
v -183.917648 317.054688 -252.551483
v -183.205902 317.060120 -255.912003
v -189.133057 317.047729 -255.897507
v -195.060211 317.043823 -255.882996
v -200.987366 317.062012 -255.868500
v -206.914520 317.058105 -255.853989
v -212.841675 317.058105 -255.839478
v -218.768829 317.071533 -255.824982
v -224.695984 317.074097 -255.810471
v -225.320831 317.105957 -251.750885
v -225.945679 317.125977 -247.691315
v -223.196335 317.625885 -243.942200
v -220.446991 317.089844 -240.193085
v -216.572922 317.159302 -238.597763
v -212.698853 317.210693 -237.002441
v -207.450104 317.240265 -236.810104
v -202.201355 317.175537 -236.617767
v -72.982269 312.889587 -137.217575
v -70.656647 312.890747 -141.716507
v -66.483826 312.890747 -145.715546
v -65.234116 312.851807 -151.637970
v -63.234604 312.851807 -154.064148
v -61.235077 312.851807 -156.490326
v -55.986328 313.202515 -158.725159
v -50.737595 312.842102 -160.959976
v -45.988724 312.869324 -161.047852
v -41.239868 312.869324 -161.135712
v -38.240585 312.836243 -162.298523
v -35.241302 312.868591 -163.461334
v -30.992310 312.868591 -162.961456
v -26.743332 312.892517 -162.461578
v -23.244171 312.892517 -163.020035
v -19.994949 312.897888 -166.210678
v -21.244644 312.897888 -169.459900
v -22.494339 312.921143 -172.709137
v -26.118484 312.851685 -174.681320
v -29.742615 312.851685 -176.653503
v -32.220535 312.875549 -181.707001
v -35.741180 312.875549 -183.956451
v -37.740692 312.853271 -187.955505
v -40.863968 312.802307 -188.830292
v -43.987244 312.749634 -189.705093
v -47.238434 312.749634 -192.149826
v -49.737823 312.749634 -192.454437
v -51.077347 312.690491 -194.703903
v -53.406876 312.690491 -196.829376
v -55.736389 312.690491 -198.954849
v -57.790588 312.755615 -204.201645
v -60.762543 312.583923 -205.489426
v -63.734482 312.583923 -206.777206
v -64.734238 312.583923 -206.861176
v -66.233887 312.583923 -205.451355
v -66.233887 312.583923 -202.223602
v -68.678604 312.583923 -199.202835
v -70.066956 312.630066 -194.453964
v -71.455292 312.722717 -189.705093
v -72.218781 312.722717 -184.706284
v -72.982269 313.097107 -179.707474
v -72.892441 313.097107 -176.708191
v -71.232681 312.826874 -175.517059
v -70.853867 312.826874 -173.708893
v -71.418182 312.826874 -169.959778
v -71.982513 312.811157 -166.210678
v -74.356934 312.876892 -162.972198
v -76.731369 312.862305 -159.733704
v -77.791672 313.082581 -154.974091
v -78.851959 312.910217 -150.214478
v -77.829742 312.912598 -144.715790
v -76.807526 312.912598 -139.217102
v -75.731613 312.998108 -137.526093
v -73.232208 312.889587 -136.965683
v 255.939056 308.010315 -241.692734
v 255.939056 308.009888 -246.358292
v 255.939056 307.994568 -251.023849
v 255.939056 308.000305 -255.689407
v 251.023590 308.006378 -255.772720
v 246.108063 307.995483 -255.856033
v 241.192596 307.999695 -255.939346
v 241.132050 308.011841 -251.815323
v 241.071533 308.021790 -247.691315
v 244.615601 308.021790 -243.192383
v 247.940979 308.039185 -242.692490
v 248.690796 308.039185 -241.532623
v 252.189941 308.039185 -241.487701
v 255.689117 308.013855 -241.442795
v -140.466125 316.521606 -53.737427
v -135.272064 315.924194 -55.736954
v -131.718216 315.924194 -58.513626
v -129.658173 315.626526 -61.624222
v -127.598114 315.293396 -64.734802
v -124.659363 315.293396 -67.358200
v -121.720612 315.005493 -69.981613
v -118.721329 314.869141 -71.731186
v -115.722046 314.869141 -73.480774
v -112.472824 314.732910 -74.095856
v -109.223602 314.688782 -74.710953
v -107.474014 314.637878 -79.731247
v -105.238220 314.637878 -82.230652
v -103.002426 314.512146 -84.730057
v -101.725388 314.446533 -89.207504
v -102.308578 314.296326 -94.879990
v -102.891785 314.296326 -100.552460
v -103.474976 314.074921 -106.224945
v -102.475220 314.081848 -107.224701
v -101.973373 314.081848 -110.723877
v -99.725876 314.081848 -111.501038
v -96.150558 313.833923 -115.222809
v -96.378036 314.181946 -120.221619
v -96.605530 313.613525 -125.220428
v -93.977249 313.613525 -129.219482
v -92.542038 313.477783 -135.218048
v -91.106842 313.310913 -141.216614
v -92.291122 313.310913 -144.215912
v -93.475418 313.310913 -147.215195
v -91.536423 313.446594 -152.713898
v -91.477844 313.446594 -155.713165
v -92.226685 313.616089 -159.212341
v -92.975540 313.074219 -162.711517
v -92.727539 313.074219 -165.933411
v -94.977005 313.016937 -170.209732
v -94.977005 313.016937 -173.458954
v -94.977005 312.904175 -176.708191
v -94.035828 312.904175 -178.707703
v -94.475174 312.904175 -181.207123
v -93.475418 312.838623 -186.705811
v -93.976273 312.838623 -192.704376
v -94.477127 312.726074 -198.702957
v -95.976776 312.757965 -204.701538
v -95.682312 312.757965 -209.700348
v -95.387848 313.015686 -214.699158
v -95.093384 312.561401 -219.697968
v -94.798920 312.561401 -224.696777
v -94.504471 312.460815 -229.695587
v -91.727783 312.460815 -232.944809
v -90.567902 312.460815 -235.694153
v -90.478088 312.460815 -237.693680
v -91.477844 312.392822 -240.692978
v -92.477600 312.392822 -243.692261
v -92.475647 312.392822 -246.691544
v -90.478088 312.392822 -250.190720
v -91.475891 312.358093 -253.190002
v -91.227905 312.358215 -255.939346
v -96.955704 312.379395 -255.918518
v -102.683487 312.402161 -255.897690
v -108.411301 312.434082 -255.876862
v -114.139099 312.455444 -255.856033
v -119.866882 312.468140 -255.835205
v -125.594681 312.482666 -255.814377
v -131.322479 312.504578 -255.793549
v -137.050278 312.516968 -255.772720
v -142.778076 312.529175 -255.751892
v -148.505859 312.541382 -255.731064
v -154.233673 312.550415 -255.710236
v -159.961456 312.583252 -255.689407
v -159.832581 312.602905 -250.190720
v -161.371277 312.582703 -246.691544
v -161.433777 312.709595 -242.692490
v -157.712006 312.598145 -239.470612
v -156.788391 312.621887 -235.194275
v -154.626801 312.621887 -232.444931
v -152.465210 312.599060 -229.695587
v -151.715393 312.621521 -225.946472
v -150.965576 312.622437 -222.197372
v -151.834503 312.642456 -217.698441
v -150.213806 312.658813 -211.777969
v -148.589188 312.690552 -208.239746
v -146.964569 312.760498 -204.701538
v -146.714630 313.526733 -199.702713
v -146.464691 312.771851 -194.703903
v -147.214508 313.029663 -190.704865
v -147.964325 312.870300 -186.705811
v -147.936996 312.934082 -181.707001
v -147.464447 312.934082 -176.208313
v -145.714874 312.927490 -173.209015
v -143.965286 313.026917 -170.209732
v -142.965530 313.026917 -165.210907
v -143.201797 313.122681 -160.711990
v -143.438080 313.122681 -156.213058
v -142.467590 313.122681 -155.213287
v -142.467590 313.226379 -153.213776
v -143.836426 313.226379 -151.214249
v -143.965286 313.226379 -149.214722
v -142.215698 313.300232 -144.524429
v -139.216431 313.752991 -141.525146
v -138.716553 313.419739 -136.832901
v -136.467087 313.494507 -135.218048
v -135.338440 313.494507 -133.218521
v -135.548035 313.620270 -127.886459
v -135.757629 313.810242 -122.554382
v -135.967194 313.919617 -117.222321
v -134.969391 313.919617 -113.223282
v -134.969391 314.268799 -107.391342
v -134.969391 314.276886 -101.559387
v -134.969391 314.616089 -95.727432
v -135.967194 314.640930 -93.727921
v -136.217133 314.640930 -89.849930
v -139.907669 314.854553 -86.229691
v -140.792221 314.998230 -84.230179
v -141.438553 314.998230 -81.730759
v -140.966003 315.120239 -77.231842
v -141.965759 315.376221 -73.232788
v -143.406830 315.516602 -71.233261
v -143.467361 315.832214 -66.234451
v -144.965057 315.972656 -61.735519
v -143.715347 316.220642 -55.986893
v -141.965759 316.220642 -53.737427
v -140.716064 316.521606 -53.487488
v -67.288315 312.465759 -212.199738
v -64.484299 312.410095 -213.699387
v -61.984894 312.410095 -217.698441
v -58.734695 312.410095 -219.448029
v -55.484497 312.410095 -221.197601
v -49.611877 312.290100 -221.909348
v -43.739258 312.249878 -222.621094
v -40.240097 312.222229 -224.033844
v -36.740936 312.222229 -225.446594
v -33.620590 312.209656 -225.696533
v -31.181717 312.288086 -227.885468
v -28.742844 312.288086 -230.074402
v -26.993271 312.189941 -232.694870
v -27.992371 312.186523 -237.027176
v -28.991501 312.186523 -241.359482
v -29.990601 312.186523 -245.691788
v -30.116547 312.180176 -250.815567
v -30.242493 312.179993 -255.939346
v -36.241058 312.174377 -255.920044
v -42.239624 312.185577 -255.900726
v -48.238190 312.191162 -255.881424
v -54.236755 312.210571 -255.862106
v -60.235321 312.223999 -255.842804
v -66.233887 312.247986 -255.823486
v -72.232452 312.272949 -255.804184
v -78.231018 312.299988 -255.784866
v -84.229584 312.336182 -255.765564
v -84.305725 312.318298 -253.190002
v -82.952545 312.304077 -250.690598
v -83.952301 312.304077 -247.441360
v -84.952057 312.304077 -244.192139
v -84.850525 312.354675 -241.192856
v -83.166351 312.354675 -238.193573
v -81.482193 312.354675 -235.194275
v -80.981339 312.354675 -229.445648
v -80.480469 312.372498 -223.697021
v -78.851959 312.372498 -217.698441
v -75.292267 312.465759 -215.138504
v -71.732574 312.465759 -212.578568
v -67.733521 312.465759 -211.949799
v -220.675461 322.554504 97.226700
v -218.186798 322.326233 93.602554
v -215.698135 322.326233 89.978409
v -215.448196 322.118286 88.228836
v -212.962463 322.118286 83.979843
v -210.476730 322.072693 79.730850
v -210.462082 321.817566 75.481857
v -210.447433 321.817566 71.232864
v -209.449631 321.972534 69.233353
v -209.508209 321.584900 67.233810
v -206.700287 321.584900 62.426376
v -205.367279 321.444763 58.204086
v -204.034256 321.486694 53.981735
v -202.701233 321.250488 49.759445
v -199.828232 321.250488 45.753250
v -196.955215 321.035706 41.747055
v -194.082214 320.813660 37.740829
v -193.953339 320.813660 34.741531
v -195.681427 320.594086 32.742020
v -201.701477 321.455627 33.665634
v -206.546021 321.073853 36.203110
v -211.390564 321.171997 38.740585
v -213.909500 321.549744 42.239761
v -216.428421 321.379333 45.738937
v -218.947357 321.379333 49.238083
v -220.197052 321.458862 52.237381
v -221.446762 321.458862 55.236679
v -221.859741 321.603577 59.235703
v -222.272736 321.603577 63.234756
v -220.446991 321.603577 67.733688
v -220.198029 321.914246 70.982925
v -219.949066 321.914246 74.232162
v -221.383301 321.914246 77.981247
v -222.817520 322.220886 81.730362
v -222.446518 322.220886 84.729660
v -223.196335 322.220886 87.207596
v -222.446518 322.220886 89.228592
v -222.651550 322.220886 92.477829
v -222.856567 322.554504 95.727036
v -221.196808 322.554504 97.476639
v -231.118271 323.805359 118.721573
v -229.194901 323.805359 117.913162
v -226.535385 323.465271 114.722519
v -227.074310 323.465271 111.223343
v -229.194901 323.182007 109.473770
v -231.194427 323.182007 109.973648
v -234.853699 323.891724 113.722763
v -235.314529 323.891724 115.222397
v -233.693832 323.805359 117.471878
v -231.194427 323.805359 118.797714
v 53.987366 350.059021 255.689011
v 54.258789 350.066406 253.189590
v 53.487488 350.054199 251.190079
v 54.487244 350.061890 247.191025
v 53.897552 350.061890 243.191971
v 51.987854 350.013794 238.693039
v 48.738617 350.013794 236.002274
v 45.239441 350.028992 235.572708
v 43.239929 350.028992 236.941513
v 39.240875 350.060303 237.117264
v 37.241364 350.002625 237.943222
v 32.742432 350.003906 241.942276
v 28.993347 349.999573 242.556381
v 25.244232 349.999573 243.170486
v 22.994781 349.999573 246.191269
v 23.619629 349.993164 251.065109
v 24.244476 349.993164 255.938950
v 30.143066 349.992615 255.938950
v 36.041656 349.993164 255.938950
v 41.940247 350.006104 255.938950
v 47.838837 350.017578 255.938950
v 53.737427 350.059021 255.938950
v 255.939056 336.565186 255.689011
v 255.939056 336.567261 249.690445
v 255.939056 336.565186 243.691849
v 255.939056 336.559570 237.693283
v 255.939056 336.593994 231.694717
v 251.252686 336.580383 231.539474
v 246.566284 336.606201 231.384232
v 241.879913 336.606201 231.229019
v 237.193542 336.940918 231.073776
v 232.944550 336.601807 232.008102
v 228.695587 336.618835 232.942459
v 224.696533 337.144287 231.193863
v 220.697479 337.049805 229.445236
v 217.198334 336.672180 229.445236
v 212.699402 336.633789 232.031540
v 208.200470 336.715637 234.617844
v 208.079407 336.636597 237.193405
v 209.450165 336.716553 240.692581
v 209.450165 336.646362 245.691391
v 209.450165 336.646362 250.690201
v 209.450165 336.621216 255.689011
v 215.230042 336.601929 255.720261
v 221.009918 336.598450 255.751480
v 226.789764 336.589600 255.782730
v 232.569641 336.577393 255.813980
v 238.349518 336.570190 255.845230
v 244.129395 336.565186 255.876450
v 249.909241 336.565186 255.907700
v 255.689117 336.565186 255.938950
v -248.467636 329.544922 202.201736
v -243.019714 329.717834 200.452133
v -237.571808 329.668945 198.702560
v -233.941818 329.862427 195.203384
v -231.194427 330.190918 195.953201
v -229.118744 330.190918 195.203384
v -230.034546 330.414856 193.703751
v -234.943527 329.956421 190.204575
v -236.443176 329.608704 184.705887
v -237.942810 329.335388 179.207199
v -241.941849 329.228088 174.708267
v -243.968719 329.136230 169.209579
v -245.940903 328.938599 167.210037
v -247.190598 328.519592 161.461411
v -248.690247 328.519592 160.488998
v -254.110825 328.641693 160.211716
v -255.688568 328.661011 160.459702
v -255.938507 328.678101 161.211472
v -255.938507 328.862427 166.781601
v -255.938507 329.021118 172.351669
v -255.938507 329.167542 177.921799
v -255.938507 329.283630 183.491867
v -255.938507 329.389893 189.061996
v -255.938507 329.449707 194.632095
v -255.938507 329.477417 200.202194
v -255.688568 329.493469 200.952011
v -252.689285 329.493469 200.953964
v -250.689758 329.745178 202.277878
v -248.690247 329.544922 202.424332
v -126.528061 336.724487 232.694473
v -124.220016 336.447296 231.270981
v -124.220016 336.358459 228.972702
v -125.643494 336.435242 227.195786
v -129.142670 336.216827 224.696365
v -132.429962 336.216827 223.571640
v -135.717255 336.065063 222.446915
v -137.966736 336.065063 219.697556
v -138.216675 335.967072 215.448563
v -138.466614 335.881226 211.199600
v -136.025787 335.979370 206.200790
v -136.140991 336.010742 204.201248
v -139.428284 335.845764 200.229538
v -142.715591 335.814117 196.257828
v -142.965530 336.013611 193.703751
v -147.839355 335.792694 190.329544
v -152.713196 335.799622 186.955338
v -154.091766 335.799622 183.706131
v -155.212601 335.788757 183.085190
v -156.212372 335.788757 183.956070
v -159.836487 335.758545 184.580917
v -163.460632 335.758545 185.205765
v -165.210205 335.653748 187.455246
v -168.154816 335.653748 189.204819
v -171.208771 335.566956 193.182388
v -176.398941 335.797241 196.203140
v -178.956909 335.331177 198.702560
v -178.706970 335.231628 203.951309
v -178.457031 335.533997 209.200058
v -177.728699 335.533997 210.699692
v -174.957886 335.625244 213.199112
v -170.708893 335.695068 215.448563
v -167.459671 335.848755 219.197678
v -163.210693 335.833130 221.419815
v -161.836014 336.455017 224.807693
v -160.461334 335.903564 228.195541
v -155.837448 335.920349 230.306381
v -151.213562 336.045227 232.417191
v -146.214752 337.032776 232.444534
v -142.215698 336.093384 231.446732
v -139.716309 336.093384 232.315659
v -135.384003 336.182190 232.505722
v -131.051712 336.271973 232.695786
v -126.719421 336.724487 232.885849
v 136.838623 353.301331 255.689011
v 137.153015 353.296265 251.689957
v 137.467407 353.295410 247.690903
v 136.467621 353.354797 245.691391
v 134.880127 353.304871 244.191757
v 128.971375 353.308258 243.191971
v 124.720428 353.794373 239.747482
v 122.221039 353.794373 239.440933
v 119.721649 353.498291 237.943222
v 115.722595 353.299347 239.692825
v 111.723541 353.298309 241.442398
v 109.647888 353.266815 244.691635
v 106.224854 353.227051 247.114883
v 104.104279 353.227051 251.689957
v 103.975403 353.191254 255.689011
v 104.725220 353.191254 255.938950
v 110.057281 353.216187 255.917465
v 115.389343 353.240295 255.895981
v 120.721405 353.263916 255.874527
v 126.053467 353.270020 255.853043
v 131.385498 353.291748 255.831558
v 136.717560 353.301331 255.810074
v 20.866364 349.994934 255.689011
v 19.997437 349.994934 252.689713
v 21.495148 349.993164 249.190567
v 21.495148 350.036438 247.191025
v 19.821716 350.036438 243.191971
v 17.246155 350.036438 240.942520
v 11.997406 350.031067 240.192703
v 6.748657 350.046387 239.442886
v 2.499664 350.126465 236.943466
v -1.749313 350.129395 234.444046
v -6.248230 350.112610 235.072830
v -7.247986 350.112610 235.617599
v -7.999771 350.057007 237.693283
v -12.246796 350.310181 239.442886
v -16.745712 350.071045 240.221970
v -21.244644 350.091736 241.001083
v -25.319839 350.097778 245.691391
v -25.281769 350.097778 250.815170
v -25.243683 350.054688 255.938950
v -19.495056 350.045654 255.922836
v -13.746445 350.035339 255.906723
v -7.997818 350.029846 255.890610
v -2.249191 350.017578 255.874527
v 3.499451 350.005951 255.858414
v 9.248077 350.005371 255.842300
v 14.996674 350.005371 255.826187
v 20.745300 349.994934 255.810074
v -79.980591 337.894958 255.689011
v -79.730652 337.936096 249.940384
v -79.480713 337.978638 244.191757
v -84.229584 337.900391 240.942520
v -88.353592 337.900391 240.567612
v -92.477600 337.920227 240.192703
v -92.979431 337.900391 244.691635
v -94.228165 337.878418 248.940628
v -95.476883 337.880981 253.189590
v -95.226944 337.871277 255.938950
v -90.228149 337.879578 255.938950
v -85.229340 337.895813 255.938950
v -80.230530 337.894958 255.938950

f 2 7 1
f 7 5 6
f 5 3 4
f 3 7 2
f 7 3 5
f 8 59 60
f 59 57 58
f 55 53 54
f 52 50 51
f 49 47 48
f 47 45 46
f 44 42 43
f 41 39 40
f 39 37 38
f 37 35 36
f 35 33 34
f 33 31 32
f 30 28 29
f 28 26 27
f 23 21 22
f 21 19 20
f 18 16 17
f 15 13 14
f 12 10 11
f 9 59 8
f 59 56 57
f 56 53 55
f 53 50 52
f 50 47 49
f 47 44 45
f 42 39 41
f 39 35 37
f 35 31 33
f 30 26 28
f 23 19 21
f 19 16 18
f 13 10 12
f 10 59 9
f 56 50 53
f 47 42 44
f 42 35 39
f 35 30 31
f 30 25 26
f 19 15 16
f 13 59 10
f 56 47 50
f 47 35 42
f 35 25 30
f 23 15 19
f 15 59 13
f 59 47 56
f 47 25 35
f 23 59 15
f 47 24 25
f 23 47 59
f 47 23 24
f 62 343 61
f 343 341 342
f 341 339 340
f 339 337 338
f 337 335 336
f 335 333 334
f 333 331 332
f 327 325 326
f 324 322 323
f 322 320 321
f 317 315 316
f 314 312 313
f 310 308 309
f 306 304 305
f 304 302 303
f 298 296 297
f 296 294 295
f 294 292 293
f 290 288 289
f 286 284 285
f 284 282 283
f 279 277 278
f 277 275 276
f 275 273 274
f 272 270 271
f 270 268 269
f 265 263 264
f 260 258 259
f 258 256 257
f 255 253 254
f 253 251 252
f 251 249 250
f 247 245 246
f 245 243 244
f 240 238 239
f 238 236 237
f 236 234 235
f 231 229 230
f 228 226 227
f 224 222 223
f 218 216 217
f 215 213 214
f 211 209 210
f 209 207 208
f 205 203 204
f 202 200 201
f 198 196 197
f 196 194 195
f 194 192 193
f 189 187 188
f 187 185 186
f 184 182 183
f 180 178 179
f 174 172 173
f 170 168 169
f 168 166 167
f 165 163 164
f 162 160 161
f 158 156 157
f 154 152 153
f 152 150 151
f 146 144 145
f 143 141 142
f 138 136 137
f 131 129 130
f 127 125 126
f 119 117 118
f 114 112 113
f 112 110 111
f 110 108 109
f 107 105 106
f 102 100 101
f 99 97 98
f 95 93 94
f 91 89 90
f 88 86 87
f 86 84 85
f 84 82 83
f 81 79 80
f 79 77 78
f 73 71 72
f 71 69 70
f 69 67 68
f 67 65 66
f 65 63 64
f 63 343 62
f 343 339 341
f 335 331 333
f 327 324 325
f 324 320 322
f 314 311 312
f 307 304 306
f 304 301 302
f 299 296 298
f 294 291 292
f 290 287 288
f 287 284 286
f 284 281 282
f 279 275 277
f 275 272 273
f 272 268 270
f 258 255 256
f 253 249 251
f 247 243 245
f 241 238 240
f 236 233 234
f 231 228 229
f 219 216 218
f 216 213 215
f 212 209 211
f 209 206 207
f 203 200 202
f 198 194 196
f 190 187 189
f 187 184 185
f 184 181 182
f 181 178 180
f 175 172 174
f 171 168 170
f 168 165 166
f 165 162 163
f 162 159 160
f 159 156 158
f 154 150 152
f 147 144 146
f 144 141 143
f 139 136 138
f 132 129 131
f 128 125 127
f 119 116 117
f 115 112 114
f 112 108 110
f 103 100 102
f 99 96 97
f 96 93 95
f 91 88 89
f 86 82 84
f 79 76 77
f 74 71 73
f 71 67 69
f 67 63 65
f 63 339 343
f 335 330 331
f 328 324 327
f 324 319 320
f 314 310 311
f 307 301 304
f 296 291 294
f 287 281 284
f 280 275 279
f 275 268 272
f 255 249 253
f 247 242 243
f 242 238 241
f 236 232 233
f 232 228 231
f 216 212 213
f 212 206 209
f 199 194 198
f 190 184 187
f 184 178 181
f 159 155 156
f 155 150 154
f 148 144 147
f 144 140 141
f 140 136 139
f 133 129 132
f 120 116 119
f 115 108 112
f 103 99 100
f 99 93 96
f 86 81 82
f 79 75 76
f 75 71 74
f 71 63 67
f 63 337 339
f 337 330 335
f 328 319 324
f 314 308 310
f 296 290 291
f 287 280 281
f 280 268 275
f 255 248 249
f 248 242 247
f 242 236 238
f 232 226 228
f 199 192 194
f 191 184 190
f 184 177 178
f 159 150 155
f 149 144 148
f 140 135 136
f 133 128 129
f 116 108 115
f 103 93 99
f 75 63 71
f 337 329 330
f 329 319 328
f 314 307 308
f 280 267 268
f 258 248 255
f 248 236 242
f 236 226 232
f 192 184 191
f 184 176 177
f 159 149 150
f 149 140 144
f 140 134 135
f 133 125 128
f 120 108 116
f 104 93 103
f 79 63 75
f 329 318 319
f 280 266 267
f 258 236 248
f 199 184 192
f 184 175 176
f 162 149 159
f 149 134 140
f 133 124 125
f 120 107 108
f 105 93 104
f 79 337 63
f 329 317 318
f 287 266 280
f 260 236 258
f 199 175 184
f 165 149 162
f 149 133 134
f 120 105 107
f 81 337 79
f 337 317 329
f 287 265 266
f 261 236 260
f 200 175 199
f 165 133 149
f 121 105 120
f 86 337 81
f 337 315 317
f 287 263 265
f 262 236 261
f 203 175 200
f 168 133 165
f 122 105 121
f 86 315 337
f 290 263 287
f 263 236 262
f 205 175 203
f 171 133 168
f 123 105 122
f 88 315 86
f 290 236 263
f 205 172 175
f 171 124 133
f 124 105 123
f 91 315 88
f 296 236 290
f 206 172 205
f 171 105 124
f 92 315 91
f 299 236 296
f 206 171 172
f 171 93 105
f 93 315 92
f 300 236 299
f 206 93 171
f 93 314 315
f 301 236 300
f 212 93 206
f 93 307 314
f 307 236 301
f 216 93 212
f 307 226 236
f 219 93 216
f 93 226 307
f 220 93 219
f 93 225 226
f 221 93 220
f 93 224 225
f 222 93 221
f 93 222 224
f 345 366 344
f 365 363 364
f 363 361 362
f 361 359 360
f 359 357 358
f 356 354 355
f 353 351 352
f 350 348 349
f 347 345 346
f 345 365 366
f 365 361 363
f 361 357 359
f 356 353 354
f 353 350 351
f 350 347 348
f 347 365 345
f 365 357 361
f 356 350 353
f 350 365 347
f 365 356 357
f 356 365 350
f 368 420 367
f 420 418 419
f 417 415 416
f 415 413 414
f 409 407 408
f 406 404 405
f 404 402 403
f 402 400 401
f 400 398 399
f 398 396 397
f 395 393 394
f 393 391 392
f 390 388 389
f 388 386 387
f 385 383 384
f 383 381 382
f 381 379 380
f 377 375 376
f 370 368 369
f 368 418 420
f 418 415 417
f 415 412 413
f 409 406 407
f 406 402 404
f 402 398 400
f 396 393 395
f 391 388 390
f 386 383 385
f 383 379 381
f 378 375 377
f 370 418 368
f 418 412 415
f 410 406 409
f 406 398 402
f 393 388 391
f 386 379 383
f 378 374 375
f 371 418 370
f 410 398 406
f 393 386 388
f 386 378 379
f 372 418 371
f 411 398 410
f 393 378 386
f 372 412 418
f 412 398 411
f 396 378 393
f 373 412 372
f 412 396 398
f 396 374 378
f 374 412 373
f 412 374 396
f 422 434 421
f 433 431 432
f 431 429 430
f 428 426 427
f 425 423 424
f 423 434 422
f 434 431 433
f 431 428 429
f 428 425 426
f 425 434 423
f 434 428 431
f 428 434 425
f 435 555 556
f 555 553 554
f 552 550 551
f 549 547 548
f 547 545 546
f 545 543 544
f 540 538 539
f 538 536 537
f 535 533 534
f 533 531 532
f 531 529 530
f 528 526 527
f 523 521 522
f 521 519 520
f 515 513 514
f 509 507 508
f 507 505 506
f 504 502 503
f 502 500 501
f 499 497 498
f 497 495 496
f 494 492 493
f 492 490 491
f 490 488 489
f 486 484 485
f 484 482 483
f 480 478 479
f 477 475 476
f 475 473 474
f 473 471 472
f 469 467 468
f 466 464 465
f 462 460 461
f 460 458 459
f 457 455 456
f 454 452 453
f 452 450 451
f 450 448 449
f 446 444 445
f 438 436 437
f 436 555 435
f 555 552 553
f 552 549 550
f 549 545 547
f 540 536 538
f 536 533 535
f 533 529 531
f 528 525 526
f 524 521 523
f 521 518 519
f 516 513 515
f 510 507 509
f 507 504 505
f 504 500 502
f 499 495 497
f 495 492 494
f 492 488 490
f 487 484 486
f 480 477 478
f 477 473 475
f 469 466 467
f 466 463 464
f 463 460 462
f 458 455 457
f 452 448 450
f 446 443 444
f 439 436 438
f 436 552 555
f 552 545 549
f 536 529 533
f 524 518 521
f 516 512 513
f 510 504 507
f 504 499 500
f 495 488 492
f 487 482 484
f 477 471 473
f 469 463 466
f 463 458 460
f 458 454 455
f 452 447 448
f 447 443 446
f 439 552 436
f 536 528 529
f 525 518 524
f 516 511 512
f 510 499 504
f 499 488 495
f 488 482 487
f 477 470 471
f 469 458 463
f 452 443 447
f 440 552 439
f 536 525 528
f 525 517 518
f 516 510 511
f 510 488 499
f 477 469 470
f 469 454 458
f 454 443 452
f 441 552 440
f 536 517 525
f 516 488 510
f 477 454 469
f 454 442 443
f 442 552 441
f 536 516 517
f 516 482 488
f 480 454 477
f 454 552 442
f 536 482 516
f 481 454 480
f 454 545 552
f 540 482 536
f 482 454 481
f 454 543 545
f 541 482 540
f 482 543 454
f 542 482 541
f 482 542 543
f 557 595 596
f 594 592 593
f 589 587 588
f 585 583 584
f 583 581 582
f 581 579 580
f 579 577 578
f 577 575 576
f 575 573 574
f 572 570 571
f 570 568 569
f 567 565 566
f 564 562 563
f 559 557 558
f 557 594 595
f 594 591 592
f 590 587 589
f 585 581 583
f 579 575 577
f 575 572 573
f 572 568 570
f 568 565 567
f 565 562 564
f 559 594 557
f 594 590 591
f 590 586 587
f 586 581 585
f 579 572 575
f 572 565 568
f 565 561 562
f 560 594 559
f 594 586 590
f 586 579 581
f 579 565 572
f 561 594 560
f 594 579 586
f 579 561 565
f 561 579 594
f 598 636 597
f 636 634 635
f 633 631 632
f 631 629 630
f 626 624 625
f 624 622 623
f 622 620 621
f 619 617 618
f 617 615 616
f 615 613 614
f 612 610 611
f 610 608 609
f 608 606 607
f 606 604 605
f 603 601 602
f 600 598 599
f 598 634 636
f 633 629 631
f 626 622 624
f 622 619 620
f 619 615 617
f 615 612 613
f 610 606 608
f 604 601 603
f 600 634 598
f 634 629 633
f 627 622 626
f 622 615 619
f 615 610 612
f 604 600 601
f 600 629 634
f 628 622 627
f 622 610 615
f 606 600 604
f 600 628 629
f 628 610 622
f 606 628 600
f 628 606 610
f 637 645 646
f 645 643 644
f 643 641 642
f 641 639 640
f 639 637 638
f 637 643 645
f 643 639 641
f 639 643 637
f 648 668 647
f 664 662 663
f 662 660 661
f 658 656 657
f 655 653 654
f 653 651 652
f 651 649 650
f 649 668 648
f 665 662 664
f 662 659 660
f 658 655 656
f 655 651 653
f 649 667 668
f 666 662 665
f 662 658 659
f 658 651 655
f 651 667 649
f 667 662 666
f 662 651 658
f 651 662 667
f 670 697 669
f 690 688 689
f 686 684 685
f 683 681 682
f 678 676 677
f 674 672 673
f 671 697 670
f 691 688 690
f 686 683 684
f 683 680 681
f 679 676 678
f 675 672 674
f 672 697 671
f 692 688 691
f 687 683 686
f 683 679 680
f 679 675 676
f 675 697 672
f 693 688 692
f 688 683 687
f 679 697 675
f 694 688 693
f 688 679 683
f 679 696 697
f 695 688 694
f 688 696 679
f 696 688 695
f 698 725 726
f 724 722 723
f 716 714 715
f 714 712 713
f 712 710 711
f 710 708 709
f 708 706 707
f 705 703 704
f 703 701 702
f 701 699 700
f 699 725 698
f 724 721 722
f 717 714 716
f 714 710 712
f 708 705 706
f 705 701 703
f 701 725 699
f 725 721 724
f 718 714 717
f 714 708 710
f 708 701 705
f 701 721 725
f 719 714 718
f 714 701 708
f 701 720 721
f 720 714 719
f 714 720 701
f 727 769 770
f 769 767 768
f 766 764 765
f 763 761 762
f 760 758 759
f 758 756 757
f 756 754 755
f 754 752 753
f 751 749 750
f 749 747 748
f 746 744 745
f 742 740 741
f 739 737 738
f 732 730 731
f 730 728 729
f 728 769 727
f 769 766 767
f 766 763 764
f 763 760 761
f 758 754 756
f 754 751 752
f 751 747 749
f 747 744 746
f 743 740 742
f 740 737 739
f 733 730 732
f 730 769 728
f 766 760 763
f 760 754 758
f 754 747 751
f 747 743 744
f 743 737 740
f 733 769 730
f 769 760 766
f 760 747 754
f 747 737 743
f 734 769 733
f 769 747 760
f 747 736 737
f 734 747 769
f 747 735 736
f 735 747 734
f 772 792 771
f 792 790 791
f 789 787 788
f 787 785 786
f 785 783 784
f 782 780 781
f 780 778 779
f 778 776 777
f 776 774 775
f 774 772 773
f 772 790 792
f 790 787 789
f 787 783 785
f 782 778 780
f 776 772 774
f 772 787 790
f 787 782 783
f 782 776 778
f 776 787 772
f 787 776 782
f 794 819 793
f 812 810 811
f 810 808 809
f 805 803 804
f 803 801 802
f 799 797 798
f 797 795 796
f 794 818 819
f 813 810 812
f 810 807 808
f 805 801 803
f 800 797 799
f 797 794 795
f 794 817 818
f 814 810 813
f 810 806 807
f 806 801 805
f 800 794 797
f 794 816 817
f 815 810 814
f 810 801 806
f 801 794 800
f 794 815 816
f 815 801 810
f 801 815 794
f 821 832 820
f 830 828 829
f 826 824 825
f 824 822 823
f 822 832 821
f 831 828 830
f 827 824 826
f 824 832 822
f 832 828 831
f 828 824 827
f 824 828 832
