# Mesh exported from NavMeshDemo
# Vertices: 1226
# Triangles: 1236

v 211.451660 336.612244 255.689011
v 211.451019 336.612244 251.356705
v 211.450348 336.646362 247.024399
v 211.449707 336.716553 242.692093
v 209.950043 336.636597 236.693527
v 210.449951 336.633789 235.193893
v 214.698914 336.633789 231.944656
v 217.948151 336.672180 231.194839
v 221.197357 337.049805 230.445023
v 223.946716 337.144287 231.944656
v 226.696045 336.618835 233.444290
v 231.944794 336.601807 232.944412
v 237.193542 336.940918 232.444534
v 241.879913 336.606201 232.382065
v 246.566284 336.606201 232.319565
v 251.252686 336.580383 232.257095
v 255.939056 336.583984 232.194595
v 255.935822 337.650513 226.004501
v 255.932556 339.819153 219.814407
v 255.929321 341.844604 213.624344
v 255.926056 343.778442 207.434250
v 255.922821 345.190338 201.244156
v 255.919586 346.590698 195.054062
v 255.916321 348.230225 188.863998
v 255.913086 348.239075 182.673904
v 255.909821 346.869324 176.483810
v 255.906586 344.373657 170.293716
v 255.903351 341.188477 164.103622
v 255.900085 336.941284 157.913559
v 255.896851 333.221619 151.723465
v 255.893616 329.626221 145.533371
v 255.890350 325.255371 139.343277
v 255.887115 322.375427 133.153214
v 255.883850 320.572998 126.963120
v 255.880615 319.525208 120.773026
v 255.877380 318.344604 114.582932
v 255.874146 317.753479 108.392868
v 255.870911 317.374756 102.202774
v 255.867645 317.320557 96.012680
v 255.864410 317.186279 89.822586
v 255.861176 316.899353 83.632492
v 255.857910 316.582031 77.442429
v 255.854675 316.609131 71.252335
v 255.851410 316.467102 65.062241
v 255.848175 316.374634 58.872147
v 255.844940 317.151855 52.682083
v 255.841675 317.363281 46.491989
v 255.838440 317.021484 40.301895
v 255.835205 314.763123 34.111801
v 255.831940 311.814636 27.921707
v 255.828705 310.697571 21.731644
v 255.825439 310.344116 15.541550
v 255.822205 310.344116 9.351456
v 255.818970 311.319153 3.161362
v 255.815704 312.496033 -3.028702
v 255.812469 313.540283 -9.218781
v 255.809204 314.776733 -15.408875
v 255.805969 315.669128 -21.598953
v 255.802734 316.231445 -27.789047
v 255.799469 317.714355 -33.979141
v 255.796234 318.276489 -40.169220
v 255.792969 318.388672 -46.359314
v 255.789734 318.446655 -52.549393
v 255.786499 318.758545 -58.739487
v 255.783234 319.036987 -64.929565
v 255.779999 318.880615 -71.119659
v 255.776764 317.907898 -77.309738
v 255.773499 316.855164 -83.499832
v 255.770264 316.690369 -89.689911
v 255.766998 317.388245 -95.880005
v 255.763763 317.481476 -102.070099
v 255.760529 315.953369 -108.260178
v 255.757263 313.413574 -114.450272
v 255.754028 310.754150 -120.640350
v 255.750763 309.892334 -126.830429
v 255.747559 310.475189 -133.020523
v 255.744324 311.420349 -139.210602
v 255.741058 312.920959 -145.400696
v 255.737823 315.093811 -151.590790
v 255.734558 316.069275 -157.780869
v 255.731323 316.441101 -163.970947
v 255.728088 316.870361 -170.161041
v 255.724823 317.151703 -176.351135
v 255.721588 317.031250 -182.541214
v 255.718353 316.544373 -188.731293
v 255.715088 315.830017 -194.921387
v 255.711853 315.178406 -201.111481
v 255.708588 314.995117 -207.301559
v 255.705353 314.653442 -213.491653
v 255.702118 313.466248 -219.681732
v 255.698853 311.345520 -225.871826
v 255.695618 309.493774 -232.061905
v 255.692352 308.127319 -238.251999
v 255.689117 308.006226 -244.442078
v 252.189941 308.010925 -244.941956
v 249.288300 308.010925 -244.192139
v 245.191620 308.021790 -245.941727
v 243.137421 308.011841 -250.190720
v 243.414703 308.011841 -254.689636
v 242.692230 308.007385 -255.939346
v 237.109589 308.050385 -255.856033
v 231.526917 307.691040 -255.772720
v 225.944275 306.727295 -255.689407
v 225.944275 306.774780 -251.190475
v 225.944275 307.119385 -246.691544
v 224.473938 306.740356 -240.692978
v 224.630768 306.766846 -236.194046
v 224.787659 306.766846 -231.695114
v 224.944519 306.885803 -227.196182
v 223.944763 306.840637 -224.696777
v 222.197113 306.807007 -223.447067
v 220.537354 307.091003 -220.697723
v 219.447784 306.930176 -216.198792
v 220.196625 306.957458 -210.200226
v 220.945465 307.171387 -204.201645
v 219.945709 306.938232 -200.702484
v 217.198334 306.974548 -198.224548
v 215.476074 307.037537 -194.464706
v 213.753845 307.020386 -190.704865
v 211.449707 307.029114 -188.205444
v 210.713531 307.029114 -184.956223
v 209.977386 307.230865 -181.707001
v 210.447998 307.230865 -180.207352
v 209.949066 307.270874 -175.708420
v 209.450165 307.885803 -171.209488
v 209.450165 307.291321 -167.710327
v 209.450165 307.291321 -164.211151
v 210.947876 307.373230 -161.211868
v 210.623718 307.373230 -158.712463
v 212.535370 307.429352 -154.213531
v 214.447021 307.488647 -149.714600
v 214.677429 307.511169 -146.715317
v 216.448517 307.564026 -143.216156
v 219.197845 307.639709 -140.966675
v 221.197357 307.624939 -137.967392
v 221.751923 307.624939 -135.717926
v 219.197845 307.635803 -131.468933
v 217.752869 307.635803 -130.719116
v 215.850983 307.635803 -128.219711
v 213.949097 307.780487 -125.720306
v 210.699890 307.780487 -123.970718
v 206.200958 307.811646 -119.913101
v 205.951019 307.960449 -116.222565
v 203.478943 308.037354 -112.223511
v 202.510437 308.037354 -108.974289
v 201.541901 308.168396 -105.725067
v 201.625885 308.168396 -99.726486
v 202.951721 308.255615 -96.727203
v 202.951721 308.333374 -93.727921
v 200.952209 308.333374 -89.728867
v 201.042023 308.489441 -84.730057
v 197.702972 308.567383 -81.980713
v 194.393219 308.695557 -77.106873
v 191.083466 308.680908 -72.233017
v 188.705139 308.736938 -71.354324
v 188.084198 308.819489 -70.233505
v 187.629211 309.023438 -65.234695
v 188.455200 309.023438 -60.735764
v 187.129333 309.122681 -55.736954
v 187.584320 309.214813 -50.738129
v 189.083954 309.426117 -48.238724
v 189.628754 309.358032 -45.239441
v 193.452057 309.467285 -41.240387
v 192.954132 309.459473 -38.241104
v 194.453766 309.459473 -33.742172
v 196.953156 309.502441 -31.242767
v 197.702972 309.659302 -26.622772
v 199.952454 309.673096 -23.244675
v 201.951965 309.804871 -18.495804
v 203.951477 309.804871 -13.746933
v 209.450165 309.962097 -11.247528
v 211.949585 309.962097 -8.748123
v 214.448975 310.126709 -6.248718
v 217.676727 310.126709 -4.749069
v 219.076782 310.420166 -2.749542
v 224.036530 310.204895 -1.749786
v 226.196167 310.204895 -0.000198
v 228.195679 310.272461 -0.129074
v 230.195221 310.272461 0.999557
v 233.694366 310.324707 1.501389
v 236.817657 310.324707 6.124313
v 239.940918 310.342407 10.747238
v 239.692932 310.342407 15.552750
v 238.117157 310.620483 19.745102
v 233.780304 310.323425 22.494461
v 229.443451 310.345642 25.243790
v 225.696289 310.345642 26.083450
v 221.697235 310.420410 29.666580
v 220.197601 310.397522 29.018295
v 218.448029 310.397522 26.243576
v 217.323303 310.631470 21.633316
v 216.198547 310.246796 17.023087
v 211.451660 310.250671 13.746536
v 208.922974 310.125732 10.247360
v 203.701538 310.137756 7.997910
v 200.740356 310.023438 5.623459
v 197.779144 310.110046 3.249039
v 195.703461 309.940674 -0.000198
v 193.825012 309.878510 -5.748825
v 188.535889 309.823181 -7.914993
v 183.246826 309.666382 -10.081131
v 177.957703 309.620850 -12.247284
v 174.583527 309.866272 -14.842377
v 171.209320 309.547729 -17.437454
v 167.960114 309.545227 -18.245865
v 165.831696 309.472900 -20.745270
v 163.211243 309.523071 -21.994965
v 158.712311 309.441345 -25.994019
v 158.212433 309.449890 -28.222000
v 160.934448 309.428650 -32.742416
v 161.133606 309.428650 -36.991409
v 161.332794 309.355896 -41.240387
v 162.461426 309.355896 -44.239685
v 161.961548 309.236023 -46.239212
v 160.434570 309.202820 -47.738846
v 155.824341 309.199951 -49.776443
v 151.214111 309.187500 -51.814056
v 147.240448 309.197937 -55.787720
v 143.266785 309.281982 -59.761383
v 139.293121 309.399689 -63.735046
v 134.718048 309.657715 -65.426056
v 131.718781 309.596436 -65.486588
v 126.969910 309.730652 -66.690399
v 122.221039 310.062561 -67.894211
v 118.971832 310.062561 -69.425095
v 115.722595 310.147827 -70.955978
v 111.723541 310.446625 -71.178589
v 107.724518 310.570160 -72.455627
v 103.225586 310.687683 -71.720444
v 98.726654 310.830475 -70.985275
v 94.727631 311.061646 -70.984299
v 90.728577 311.061646 -70.983322
v 89.728821 311.061646 -69.985519
v 85.979706 311.061646 -68.734833
v 82.230591 311.384949 -67.484146
v 77.981628 311.384949 -66.735306
v 73.732635 311.575317 -65.986465
v 69.733582 311.834900 -66.484390
v 64.541473 311.933777 -63.735046
v 60.044495 312.207520 -63.235168
v 58.515564 312.207520 -60.235870
v 56.986633 312.542053 -57.236588
v 57.484558 312.841248 -53.737427
v 54.791870 312.841248 -50.238251
v 53.292206 312.841248 -49.738373
v 52.987610 313.180298 -47.238968
v 50.738129 313.180298 -46.990982
v 49.990265 313.180298 -48.238724
v 49.990265 312.916687 -52.737656
v 51.988831 312.916687 -55.487000
v 53.987366 312.244873 -58.236359
v 53.758911 312.244873 -61.235641
v 54.489197 312.244873 -63.235168
v 52.960266 312.244873 -66.234451
v 53.409363 311.943237 -70.733383
v 53.858490 311.923645 -75.232315
v 52.173340 311.625671 -79.231354
v 50.488190 311.625671 -83.230408
v 48.238739 311.650330 -85.479874
v 45.989288 311.473389 -87.729340
v 44.614594 311.485657 -91.451111
v 43.239929 311.477722 -95.172882
v 41.240417 311.477722 -95.977371
v 38.241119 311.434570 -98.978622
v 35.993622 311.434570 -103.725540
v 37.686584 311.420380 -108.224472
v 41.213074 311.420380 -109.628433
v 44.739563 311.420380 -111.032394
v 47.238983 311.414948 -113.251587
v 49.738373 311.435547 -115.470795
v 54.237305 311.364441 -115.181137
v 58.736237 311.364441 -114.891510
v 63.235138 311.353943 -114.601852
v 64.234924 311.353943 -115.470795
v 69.233704 311.279968 -115.472748
v 71.733124 311.279968 -113.602097
v 77.231812 311.244202 -111.473694
v 79.731201 311.195984 -108.648193
v 82.980438 311.195984 -107.561539
v 86.229645 311.200073 -106.474884
v 90.478638 311.103577 -103.504883
v 94.727631 310.968628 -100.534882
v 97.726898 310.968628 -99.976425
v 100.726196 310.837830 -98.105774
v 103.725464 310.837830 -97.976898
v 107.724518 310.762878 -96.477264
v 111.057068 310.691406 -93.341293
v 114.389557 310.709534 -90.205307
v 117.722107 310.361755 -87.069336
v 121.971100 310.998535 -86.024673
v 126.220093 309.854126 -84.979996
v 129.219360 309.854126 -84.978043
v 131.218903 309.854126 -83.507690
v 133.718292 309.617065 -82.978516
v 138.277740 309.289001 -83.604340
v 142.837189 309.289001 -84.230179
v 147.714935 309.281555 -86.569458
v 149.339569 308.920837 -89.898743
v 150.964172 308.920837 -93.228027
v 154.158722 308.708984 -96.227325
v 155.873138 308.503479 -99.226608
v 156.417938 308.503479 -102.975708
v 156.962738 308.372620 -106.724823
v 158.333496 308.372620 -108.724350
v 159.788239 308.183411 -114.223038
v 159.875122 308.183411 -117.472275
v 159.962006 308.416260 -120.721497
v 162.332550 307.975891 -125.720306
v 162.961304 307.839111 -131.218994
v 165.085785 307.799500 -134.122604
v 167.210266 307.799500 -137.026215
v 167.460205 307.555054 -139.716980
v 163.711121 307.567749 -142.966217
v 161.711609 307.446350 -146.906677
v 158.962250 307.438110 -149.685303
v 156.212921 307.350464 -152.463959
v 153.904877 307.248169 -158.212585
v 151.374237 307.248169 -161.211868
v 147.545074 307.197083 -162.337585
v 143.715912 307.270569 -163.463287
v 140.216736 307.251648 -165.960739
v 138.967041 307.164246 -167.710327
v 138.408569 307.160431 -171.209488
v 136.123962 307.160431 -173.958832
v 133.839355 307.169189 -176.708191
v 130.219116 307.125854 -178.899078
v 124.720428 307.125854 -179.957413
v 123.242279 307.149170 -181.207123
v 120.721405 307.149170 -181.652313
v 117.722107 307.553864 -184.151733
v 115.974487 307.198669 -187.205688
v 118.473877 307.125000 -191.204742
v 121.721161 307.125000 -192.954315
v 122.470978 307.125000 -194.204025
v 124.720428 307.125000 -194.951889
v 127.719727 307.313232 -194.951889
v 130.219116 307.127686 -193.954086
v 133.718292 307.127686 -194.953842
v 139.716858 307.152954 -194.953842
v 144.715668 307.137451 -191.628464
v 147.964874 307.109009 -190.291870
v 151.214111 307.116547 -188.955261
v 154.463318 307.138306 -189.205215
v 157.712555 307.138306 -189.455154
v 162.211487 307.138855 -187.482971
v 165.710632 307.092468 -187.482971
v 169.209808 307.092468 -192.628235
v 172.459015 307.053955 -194.204025
v 174.368713 307.053955 -196.203552
v 176.208130 307.013000 -200.979752
v 179.457336 306.980225 -203.201889
v 181.956757 307.048462 -206.701050
v 183.206451 306.896301 -210.950043
v 184.456146 306.941467 -215.199036
v 185.955811 306.827698 -217.198563
v 186.705627 306.825134 -222.503937
v 188.580170 307.040833 -225.599884
v 190.454712 306.788879 -228.695831
v 190.456665 306.862000 -234.694397
v 192.080322 306.735291 -238.155487
v 193.703949 306.735291 -241.616577
v 193.953888 306.748291 -246.191666
v 192.825256 306.749146 -250.190720
v 192.704193 306.705627 -255.939346
v 186.483429 307.090820 -255.939346
v 180.262695 307.887573 -255.939346
v 174.041992 309.538177 -255.939346
v 167.821259 310.946228 -255.939346
v 161.600494 312.221741 -255.939346
v 155.379761 312.918518 -255.939346
v 149.159058 314.747375 -255.939346
v 142.938324 315.729370 -255.939346
v 136.717560 316.720337 -255.939346
v 130.496826 317.180176 -255.939346
v 124.276093 317.216797 -255.939346
v 118.055389 317.045898 -255.939346
v 111.834625 317.149658 -255.939346
v 105.613892 317.180176 -255.939346
v 99.393158 317.069702 -255.939346
v 93.172455 317.082458 -255.939346
v 86.951691 317.407715 -255.939346
v 80.730957 318.072266 -255.939346
v 74.510223 318.898865 -255.939346
v 68.289490 319.176270 -255.939346
v 62.068787 319.621613 -255.939346
v 55.848022 319.300110 -255.939346
v 49.627289 318.805237 -255.939346
v 43.406555 318.324585 -255.939346
v 37.185852 317.116882 -255.939346
v 30.965088 316.014343 -255.939346
v 24.744354 314.848694 -255.939346
v 18.523621 313.765137 -255.939346
v 12.302887 313.311890 -255.939346
v 6.082153 313.041443 -255.939346
v -0.138580 313.050781 -255.939346
v -6.359314 313.096802 -255.939346
v -12.580048 313.071411 -255.939346
v -18.800781 312.982239 -255.939346
v -25.021515 312.560089 -255.939346
v -31.242249 312.172119 -255.939346
v -31.552719 312.172119 -252.815094
v -31.863205 312.159607 -249.690826
v -31.239639 312.186523 -244.525391
v -30.616104 312.186523 -239.359955
v -29.992554 312.186523 -234.194519
v -31.867096 312.288086 -231.455902
v -33.741653 312.209656 -228.717300
v -35.241302 312.209656 -227.446121
v -40.490036 312.222229 -225.446594
v -45.738785 312.249878 -223.447067
v -49.737823 312.290100 -223.167847
v -53.736877 312.290100 -222.888611
v -57.942902 312.410095 -221.543228
v -62.148926 312.410095 -220.197845
v -66.190918 312.410095 -218.073349
v -70.232925 312.465759 -215.948853
v -75.731613 313.062988 -216.948608
v -77.610062 312.372498 -218.698196
v -78.233627 312.372498 -224.030273
v -78.857162 312.354675 -229.362335
v -79.480713 312.354675 -234.694397
v -81.230301 312.354675 -237.693680
v -82.979874 312.354675 -240.692978
v -82.784607 312.304077 -244.692017
v -81.480240 312.304077 -247.691315
v -81.980118 312.304077 -251.690353
v -82.479996 312.321350 -255.689407
v -87.853714 312.346069 -255.814377
v -93.227432 312.370819 -255.939346
v -93.887421 312.375793 -253.689880
v -92.977493 312.392822 -251.690353
v -93.662872 312.392822 -247.941254
v -94.348251 312.392822 -244.192139
v -93.412933 312.392822 -240.193085
v -92.477600 312.460815 -236.194046
v -95.847900 312.460815 -231.195221
v -96.449310 312.460815 -227.696060
v -96.581604 312.561401 -222.697250
v -96.713898 312.561401 -217.698441
v -96.846191 312.641113 -212.699631
v -96.978485 312.757965 -207.700821
v -97.802505 312.757965 -205.201416
v -97.139572 312.726074 -201.702240
v -96.476654 312.726074 -198.203079
v -96.847656 312.838623 -193.704147
v -95.663361 312.838623 -189.955032
v -94.479080 312.838623 -186.205933
v -95.976776 312.904175 -182.206879
v -95.977737 312.904175 -177.957886
v -95.978714 313.016937 -173.708893
v -97.347534 313.016937 -170.709610
v -94.477127 313.074219 -165.710800
v -94.672394 313.074219 -160.711990
v -93.574997 313.616089 -157.462769
v -92.477600 313.446594 -154.213531
v -94.977005 313.310913 -148.714844
v -94.748550 313.310913 -145.715546
v -92.977493 313.310913 -143.216156
v -92.979431 313.477783 -139.217102
v -94.768723 313.477783 -134.718170
v -96.557999 313.477783 -130.219238
v -98.347290 313.613525 -125.720306
v -97.912827 313.613525 -121.971191
v -97.478363 313.833923 -118.222092
v -98.226227 313.833923 -115.972626
v -102.725159 314.081848 -111.914993
v -104.947281 314.074921 -108.224472
v -105.974380 314.074921 -103.225662
v -105.225540 314.296326 -99.976425
v -104.476685 314.296326 -96.727203
v -104.476685 314.446533 -91.728394
v -105.724442 314.512146 -86.952179
v -107.973892 314.512146 -85.229935
v -109.723480 314.637878 -82.390762
v -110.473297 314.732910 -78.731476
v -112.722763 314.732910 -75.482254
v -117.167007 314.869141 -74.732437
v -119.721085 315.005493 -72.484924
v -122.720367 315.005493 -71.483200
v -125.969589 315.293396 -68.483917
v -129.218811 315.293396 -65.484634
v -131.218338 315.626526 -62.420898
v -133.217865 315.924194 -59.357178
v -136.217133 315.924194 -56.986649
v -139.716309 316.220642 -55.928314
v -142.215698 316.220642 -56.959305
v -142.963577 316.220642 -59.236115
v -142.714615 315.832214 -64.484863
v -142.465652 315.516602 -69.733612
v -139.966248 315.376221 -74.232544
v -139.465393 315.120239 -79.231354
v -138.964539 314.854553 -84.230179
v -136.965988 314.854553 -86.979523
v -134.967438 314.640930 -89.728867
v -134.967438 314.640930 -93.727921
v -133.967682 314.640930 -94.727676
v -132.967926 314.276886 -98.726730
v -133.096802 314.276886 -102.725769
v -133.967682 314.276886 -104.725296
v -133.717743 314.268799 -108.974289
v -133.467804 313.942078 -113.223282
v -134.467560 313.919617 -116.222565
v -134.634186 314.336487 -120.721497
v -134.800812 313.677307 -125.220428
v -134.967438 313.620270 -129.719360
v -133.967682 313.494507 -133.218521
v -137.216904 313.419739 -136.967636
v -137.595718 313.752991 -142.216385
v -141.465881 313.300232 -146.215424
v -140.760986 313.226379 -149.464661
v -140.056061 313.226379 -152.713898
v -140.760986 313.105865 -156.213058
v -141.465881 313.122681 -159.712219
v -141.465881 313.026917 -164.711029
v -142.244995 313.026917 -167.960266
v -143.024109 312.928345 -171.209488
v -145.964813 312.934082 -176.708191
v -146.463715 312.934082 -180.707245
v -146.962616 312.870300 -184.706284
v -145.593811 313.029663 -190.204987
v -145.404388 312.771851 -194.943115
v -145.214996 313.526733 -199.681244
v -146.138596 312.690552 -205.201416
v -148.551117 312.658813 -210.950043
v -150.963623 312.639587 -216.698669
v -150.092728 312.622437 -222.197372
v -150.823029 312.621521 -226.196411
v -151.553314 312.599060 -230.195465
v -153.787170 312.599060 -232.694870
v -156.020996 312.621887 -235.194275
v -157.690521 312.598145 -240.692978
v -160.461334 312.709595 -242.692490
v -160.461334 312.582703 -246.691544
v -159.090576 312.602905 -250.690598
v -159.711517 312.550354 -255.939346
v -164.860291 314.698181 -255.889359
v -170.009064 315.933563 -255.839371
v -175.157837 316.837921 -255.789383
v -180.306595 317.050476 -255.739395
v -185.455368 317.047668 -255.689407
v -185.455368 317.056580 -249.690826
v -186.205185 317.056580 -248.441132
v -189.704346 317.505737 -246.383026
v -192.078781 317.079407 -243.288055
v -194.453217 317.115173 -240.193085
v -198.827164 317.097046 -239.068359
v -203.201126 317.175537 -237.943619
v -207.200165 317.240265 -237.943619
v -211.199203 317.078186 -237.943619
v -214.448425 317.078186 -238.943390
v -217.697662 317.159302 -239.943146
v -220.620789 317.089844 -242.192612
v -223.946167 317.125977 -246.691544
v -223.446274 317.105957 -251.190475
v -222.946396 317.070251 -255.689407
v -228.403427 317.365906 -255.731064
v -233.860458 318.804810 -255.772720
v -239.317474 320.682495 -255.814377
v -244.774506 322.400513 -255.856033
v -250.231537 321.627930 -255.897690
v -255.688568 321.599152 -255.939346
v -255.692245 321.690674 -249.768021
v -255.695923 323.389923 -243.596695
v -255.699600 324.884216 -237.425369
v -255.703262 326.872620 -231.254044
v -255.706940 328.777466 -225.082718
v -255.710617 331.120117 -218.911377
v -255.714294 331.889709 -212.740051
v -255.717972 332.648621 -206.568726
v -255.721649 333.276672 -200.397400
v -255.725327 334.177124 -194.226074
v -255.729004 335.359558 -188.054749
v -255.732681 336.613892 -181.883423
v -255.736343 336.858185 -175.712097
v -255.740021 336.924316 -169.540771
v -255.743698 336.554047 -163.369446
v -255.747375 335.662292 -157.198120
v -255.751053 336.192139 -151.026794
v -255.754730 338.111877 -144.855469
v -255.758408 340.148499 -138.684143
v -255.762085 341.318298 -132.512817
v -255.765747 342.022034 -126.341476
v -255.769424 342.871399 -120.170166
v -255.773102 343.425659 -113.998840
v -255.776779 343.906372 -107.827499
v -255.780457 343.963379 -101.656174
v -255.784134 343.591187 -95.484848
v -255.787811 342.542297 -89.313522
v -255.791489 341.364746 -83.142181
v -255.795166 340.146729 -76.970871
v -255.798828 338.586975 -70.799545
v -255.802505 337.050232 -64.628220
v -255.806183 336.296631 -58.456879
v -255.809860 336.679443 -52.285553
v -255.813538 337.694031 -46.114227
v -255.817215 338.860168 -39.942917
v -255.820892 339.226868 -33.771591
v -255.824570 338.909027 -27.600250
v -255.828232 338.560852 -21.428925
v -255.831909 337.658447 -15.257599
v -255.835587 336.344666 -9.086273
v -255.839264 334.917419 -2.914948
v -255.842941 333.918213 3.256393
v -255.846619 332.304871 9.427719
v -255.850296 329.841614 15.599014
v -255.853973 328.135071 21.770340
v -255.857651 327.547974 27.941666
v -255.861313 325.802917 34.113022
v -255.864990 324.581482 40.284348
v -255.868668 323.855591 46.455673
v -255.872345 323.563354 52.626999
v -255.876022 323.906677 58.798325
v -255.879700 324.328735 64.969650
v -255.883377 324.787842 71.140976
v -255.887054 325.158020 77.312302
v -255.890732 325.420502 83.483627
v -255.894394 325.208496 89.654984
v -255.898071 324.639160 95.826279
v -255.901749 324.406799 101.997604
v -255.905426 324.382385 108.168930
v -255.909103 324.397308 114.340256
v -255.912781 324.481567 120.511581
v -255.916458 324.807068 126.682907
v -255.920135 325.244934 132.854233
v -255.923798 325.772827 139.025589
v -255.927475 327.429504 145.196915
v -255.931152 328.447388 151.368240
v -255.934830 328.581665 157.539566
v -255.938507 328.757141 163.710892
v -252.814255 328.792236 164.585678
v -249.690002 328.938599 165.460464
v -246.440781 328.938599 168.709702
v -243.941376 329.124573 172.708725
v -241.441971 329.291656 176.707779
v -238.942566 329.335388 180.706833
v -237.443909 329.608704 186.705399
v -235.945236 329.956421 192.703995
v -237.692871 329.862427 196.181686
v -241.941849 329.668945 197.816055
v -246.190842 329.544922 199.450424
v -248.690247 329.544922 198.979843
v -250.689758 329.745178 199.952255
v -255.688568 329.472900 198.581497
v -255.938507 329.472900 199.202438
v -255.913513 330.031006 204.876083
v -255.888519 331.808716 210.549759
v -255.863525 333.375183 216.223373
v -255.838531 335.292114 221.897049
v -255.813538 337.232544 227.570694
v -255.788544 339.235352 233.244339
v -255.763550 339.995453 238.918015
v -255.738556 339.675476 244.591629
v -255.713562 339.396301 250.265305
v -255.688568 339.360657 255.938950
v -249.615952 339.499084 255.938950
v -243.543320 341.142822 255.938950
v -237.470703 344.839233 255.938950
v -231.398071 348.278931 255.938950
v -225.325455 350.158234 255.938950
v -219.252838 351.528931 255.938950
v -213.180206 352.354553 255.938950
v -207.107590 352.971741 255.938950
v -201.034973 353.276917 255.938950
v -194.962341 353.512695 255.938950
v -188.889740 354.292114 255.938950
v -182.817108 353.638489 255.938950
v -176.744492 351.384766 255.938950
v -170.671860 347.850403 255.938950
v -164.599243 344.827484 255.938950
v -158.526611 343.314819 255.938950
v -152.453995 342.179626 255.938950
v -146.381378 342.082458 255.938950
v -140.308746 342.665771 255.938950
v -134.236145 342.532257 255.938950
v -128.163513 341.996338 255.938950
v -122.090897 341.270050 255.938950
v -116.018265 340.478394 255.938950
v -109.945663 338.947021 255.938950
v -103.873032 338.257019 255.938950
v -97.800415 337.872192 255.938950
v -91.727783 337.878784 255.938950
v -91.101959 337.879578 252.064865
v -90.476135 337.879578 248.190781
v -89.478317 337.900391 246.191269
v -86.728973 337.900391 243.941788
v -84.229584 337.900391 243.441910
v -81.921539 337.978638 245.691391
v -81.482193 337.936096 250.190323
v -82.351120 337.895020 255.689011
v -81.730179 337.895020 255.938950
v -75.931564 338.164368 255.938950
v -70.132950 339.086182 255.938950
v -64.334351 341.151611 255.938950
v -58.535721 344.335083 255.938950
v -52.737106 345.550781 255.938950
v -46.938492 347.881897 255.938950
v -41.139877 349.715698 255.938950
v -35.341278 350.051147 255.938950
v -29.542664 350.134277 255.938950
v -23.744049 350.042236 255.938950
v -23.168015 350.054077 250.690201
v -23.993988 350.054077 245.191513
v -21.168488 350.091736 242.192215
v -19.245117 350.091736 240.944473
v -16.267319 350.071045 241.192459
v -12.746674 350.310181 240.313766
v -8.747635 350.057007 238.129715
v -4.748596 350.129395 235.945663
v -1.171326 350.144318 235.693771
v 0.750092 350.144318 236.443588
v 2.749603 350.046387 238.769211
v 7.581818 350.097595 239.985062
v 12.413971 350.031067 241.200912
v 17.246155 350.036438 242.416763
v 18.495850 350.036438 246.691147
v 18.493896 350.001404 249.690445
v 17.496094 350.001404 252.189835
v 18.245911 349.994232 255.938950
v 22.994781 349.993164 255.874527
v 27.743652 349.978912 255.810074
v 27.618683 349.992615 251.500565
v 27.493713 349.999573 247.191025
v 30.243042 349.999573 245.441452
v 33.242310 350.003906 245.382858
v 37.241364 350.002625 243.883224
v 39.740784 350.002625 241.944229
v 42.989990 350.002625 242.194168
v 46.239227 350.002625 242.444107
v 46.987091 350.002625 243.691849
v 46.238251 350.011993 248.190781
v 45.489380 350.011993 252.689713
v 46.239227 350.011993 255.938950
v 52.237793 350.047363 255.938950
v 58.236359 350.129822 255.938950
v 64.234924 350.741272 255.938950
v 70.233490 351.540771 255.938950
v 76.232056 352.236511 255.938950
v 82.230591 352.886292 255.938950
v 88.229156 352.983948 255.938950
v 94.227722 353.044983 255.938950
v 100.226288 353.154846 255.938950
v 106.224854 353.204163 255.938950
v 106.849731 353.205566 252.814682
v 107.474579 353.227051 249.690445
v 110.723785 353.227051 245.941330
v 113.973022 353.298309 242.192215
v 119.221771 353.299347 239.442886
v 124.220551 353.294678 240.942520
v 128.719482 353.308258 243.941788
v 134.218170 353.295410 245.941330
v 135.467865 353.295410 247.690903
v 135.217926 353.296265 251.689957
v 134.967987 353.276978 255.689011
v 135.717804 353.288361 255.938950
v 141.524109 353.845154 255.938950
v 147.330414 354.180237 255.938950
v 153.136719 353.509979 255.938950
v 158.943024 351.632324 255.938950
v 164.749329 350.151245 255.938950
v 170.555634 348.956970 255.938950
v 176.361938 346.655762 255.938950
v 182.168243 344.911926 255.938950
v 187.974548 342.761841 255.938950
v 193.780853 340.744446 255.938950
v 199.587158 338.653564 255.938950
v 205.393463 336.978333 255.938950
v 211.199768 336.612244 255.938950
v -210.699326 321.444763 61.289902
v -214.198486 321.465149 61.114182
v -215.621979 321.465149 60.235489
v -216.947830 321.464844 58.235947
v -216.947830 321.458862 54.736801
v -214.198486 321.465149 51.358688
v -213.946594 321.465149 49.737961
v -210.699326 321.465149 47.260056
v -209.578506 321.171997 41.739883
v -206.639755 321.171997 40.116226
v -203.701004 321.073853 38.492599
v -199.323151 321.035706 38.240707
v -200.451782 321.035706 41.240005
v -203.950943 321.250488 43.739395
v -206.033783 321.250488 49.488022
v -208.116608 321.444763 55.236679
v -210.199448 321.444763 60.985306
v 218.697968 328.358582 140.771011
v 214.948853 330.421204 140.617722
v 211.199768 331.132965 140.464462
v 208.200470 331.965820 139.215714
v 205.201202 331.104248 137.966995
v 200.702271 330.981628 134.967697
v 197.578003 329.378906 131.343582
v 194.453766 328.471497 127.719437
v 192.577911 327.709900 123.553757
v 190.702057 327.206665 119.388077
v 188.826202 327.150513 115.222397
v 186.596252 327.033051 111.973190
v 184.366333 327.033051 108.723953
v 181.286987 326.554199 106.186478
v 178.207642 326.124023 103.648972
v 172.708954 324.196411 101.475662
v 168.210052 323.024475 101.225723
v 163.711121 322.358765 100.975784
v 160.211945 322.502563 101.475662
v 156.712799 322.591675 101.975571
v 151.514008 323.497375 103.475204
v 146.315277 324.613037 104.974838
v 141.116516 325.652283 106.474472
v 135.917786 326.544800 107.974136
v 130.718994 326.993195 109.473770
v 125.820190 326.433472 110.585220
v 120.921356 326.921265 111.696701
v 116.022522 327.941895 112.808121
v 111.123688 328.600159 113.919571
v 106.224854 329.517029 115.031052
v 101.226074 331.182678 116.918472
v 96.227264 331.842407 118.805923
v 91.228455 332.255798 120.693375
v 86.229645 333.803101 122.580826
v 81.230835 333.930847 124.468246
v 75.732147 334.252808 125.468002
v 70.233490 335.248901 126.467789
v 65.234680 336.497467 126.467789
v 60.235870 337.434753 126.467789
v 55.487000 337.213074 125.468979
v 50.738129 336.945557 124.470200
v 46.489166 336.495331 122.970566
v 42.240173 336.058411 121.470932
v 36.866455 336.058411 118.846054
v 31.492737 335.633362 116.221207
v 26.119019 334.835938 113.596329
v 20.745300 334.310974 110.971451
v 15.621552 333.384827 107.722244
v 10.497772 332.567993 104.473007
v 5.373993 331.264526 101.223770
v 0.250214 330.666382 97.974564
v -2.499130 330.234009 95.225204
v -5.248474 329.062195 92.475876
v -7.622910 327.824097 89.102646
v -9.997330 325.919373 85.729416
v -11.996857 325.233582 81.480423
v -13.996384 324.719482 77.231430
v -15.125015 324.171631 72.232620
v -14.809662 324.371277 68.483505
v -14.494308 324.133240 64.734421
v -12.995636 323.579895 61.235245
v -11.496979 323.579895 57.736069
v -8.747635 322.745789 53.237137
v -5.998291 321.371216 48.738205
v -2.249191 320.891846 44.239273
v 1.499908 320.856323 39.740341
v 5.186523 320.336792 36.428635
v 8.873138 320.336792 33.116928
v 12.559784 320.083618 29.805222
v 16.246399 319.892822 26.493515
v 19.309479 318.597534 23.244278
v 22.372528 318.281433 19.995041
v 25.435608 318.281433 16.745834
v 27.399963 318.072815 13.746536
v 29.364349 318.072815 10.747238
v 31.492737 317.824524 5.248550
v 31.402924 317.250793 2.249252
v 29.264771 317.250793 -0.750015
v 25.254974 316.925293 -2.360962
v 21.245178 317.835449 -3.971909
v 16.746277 318.765198 -4.499130
v 11.347565 318.641083 -4.399139
v 5.948853 320.269775 -4.299179
v 0.550140 320.607056 -4.199203
v -4.848572 321.159454 -4.099228
v -10.247269 321.608643 -3.999252
v -13.746445 321.118774 -4.846695
v -17.245605 321.361084 -5.694153
v -20.244888 320.644714 -7.596054
v -23.244171 320.410522 -9.497940
v -24.618835 320.410522 -12.372253
v -25.993515 320.421204 -15.246567
v -25.991562 319.919495 -21.245148
v -24.993744 319.392822 -25.244202
v -22.993256 319.305328 -30.243011
v -20.992752 318.840881 -35.241821
v -18.019638 318.840881 -40.540558
v -15.046509 317.799561 -45.839310
v -12.073410 316.985229 -51.138031
v -9.100281 316.770355 -56.436783
v -6.127167 316.770355 -61.735519
v -3.751434 316.771301 -66.734329
v -1.375687 316.670105 -71.733139
v 1.000031 316.208984 -76.731949
v 3.686890 314.877563 -80.975571
v 6.373749 314.877563 -85.219193
v 9.060608 313.167725 -89.462814
v 11.747467 312.546906 -93.706436
v 13.372070 312.495911 -97.216339
v 14.996674 311.965088 -100.726257
v 15.732849 311.965088 -103.975479
v 16.468994 312.259583 -107.224701
v 16.232727 312.259583 -111.223755
v 15.996460 312.734863 -115.222809
v 14.717468 313.594971 -119.971680
v 13.438477 314.321045 -124.720551
v 11.938812 314.321045 -128.719604
v 10.439178 314.623413 -132.718643
v 8.151459 314.483826 -137.317551
v 5.863708 314.532043 -141.916443
v 3.575989 313.693054 -146.515366
v 1.288239 313.693054 -151.114273
v -0.999481 313.229340 -155.713165
v -2.165222 313.113098 -160.545364
v -3.330963 313.453308 -165.377533
v -4.496704 313.453308 -170.209732
v -4.996582 313.863525 -175.208542
v -5.496460 314.407593 -180.207352
v -5.496460 314.556580 -185.581085
v -5.496460 314.556580 -190.954803
v -5.496460 314.234985 -196.328522
v -5.496460 313.946594 -201.702240
v -5.202377 314.070496 -207.000977
v -4.908310 314.128845 -212.299713
v -4.614258 314.128845 -217.598465
v -4.320175 313.959167 -222.897202
v -4.026108 313.578308 -228.195938
v -4.020645 313.578308 -233.194748
v -4.015167 313.171814 -238.193573
v -4.009705 312.953247 -243.192383
v -4.004227 312.890503 -248.191193
v -3.998764 313.090698 -253.190002
v -3.057587 313.083557 -254.189758
v -1.249420 313.017700 -254.437744
v -0.001678 313.017700 -251.190475
v -0.092392 312.890503 -245.101013
v -0.183090 313.226929 -239.011551
v -0.273819 313.226929 -232.922089
v -0.364517 313.578308 -226.832626
v -0.455231 314.275940 -220.743164
v -0.545929 314.099091 -214.653702
v -0.636642 314.406433 -208.564240
v -0.727356 314.215759 -202.474792
v -0.818069 314.456848 -196.385330
v -0.908783 314.282898 -190.295868
v -0.999481 314.302856 -184.206390
v -0.499603 314.285950 -179.040955
v 0.000275 314.198120 -173.875519
v 0.500153 313.713989 -168.710083
v 2.249725 313.950867 -162.711517
v 3.999329 313.661011 -156.712936
v 6.557312 313.661011 -153.213776
v 10.747711 313.779907 -150.464417
v 14.996674 314.313477 -146.215424
v 16.496338 314.313477 -143.466095
v 17.995972 314.669739 -140.716736
v 19.620575 314.385864 -135.093079
v 21.245178 313.967224 -129.469421
v 22.869812 313.165466 -123.845749
v 24.494415 312.699280 -118.222092
v 24.494415 311.512268 -112.973343
v 24.494415 311.476135 -107.724579
v 23.494659 311.711060 -103.475601
v 22.494904 311.711060 -99.226608
v 20.994263 312.345032 -95.727432
v 19.493652 313.226929 -92.228271
v 16.369904 313.231567 -88.104248
v 13.246124 313.136536 -83.980225
v 10.122375 315.065125 -79.856216
v 6.998596 316.278809 -75.732193
v 4.298859 316.815918 -70.533432
v 1.599091 317.152771 -65.334671
v -1.100632 316.808289 -60.135895
v -3.800369 316.750061 -54.937134
v -6.500122 317.159302 -49.738373
v -9.734207 317.683228 -44.614594
v -12.968307 318.899170 -39.490814
v -16.202393 318.826050 -34.367035
v -19.436478 319.363525 -29.243240
v -20.878525 319.392822 -25.244202
v -22.320557 319.392822 -21.245148
v -22.365463 319.934021 -15.246567
v -21.244644 320.410522 -12.555801
v -18.745239 320.644714 -10.087646
v -15.745956 321.118774 -9.042969
v -12.746674 321.118774 -7.998291
v -7.414627 321.059570 -7.997971
v -2.082550 320.607056 -7.997635
v 3.249512 320.510132 -7.997314
v 8.581573 319.810547 -7.996994
v 13.913605 318.233887 -7.996658
v 19.245667 317.655701 -7.996338
v 23.744598 317.287598 -7.496460
v 26.743866 316.544739 -6.497681
v 29.743164 316.640045 -5.498886
v 32.117584 317.286011 -3.124451
v 34.492035 317.286011 -0.750015
v 35.491791 318.123169 2.249252
v 35.491791 318.690979 6.248306
v 33.991180 318.977966 10.497299
v 32.490540 318.533447 14.746292
v 29.492249 318.533447 18.995285
v 26.493927 318.507141 23.244278
v 22.671265 319.019897 27.409927
v 18.848633 319.396790 31.575638
v 15.025970 319.836090 35.741318
v 11.203308 320.748779 39.906967
v 7.380676 321.296417 44.072678
v 3.558014 322.124329 48.238327
v 0.902405 322.969910 51.904129
v -1.753220 322.899475 55.569931
v -4.408829 322.753418 59.235703
v -5.703445 323.323059 63.484695
v -6.998047 324.259705 67.733688
v -6.869171 325.270935 73.732285
v -5.846954 326.097656 76.731552
v -4.824738 326.097656 79.730850
v -2.912109 326.355286 82.230240
v -0.999481 326.928406 84.729660
v 2.749603 328.249756 88.292618
v 6.498718 329.405487 91.855545
v 10.247833 329.917664 95.418533
v 14.746735 331.833801 98.603958
v 19.245667 333.520142 101.789413
v 23.744598 334.310974 104.974838
v 28.368500 334.657043 107.349289
v 32.992371 335.100464 109.723709
v 37.616272 335.704407 112.098160
v 42.240173 335.881836 114.472580
v 47.905487 335.881836 116.285965
v 53.570801 336.040039 118.099319
v 59.236115 336.540283 119.912704
v 63.735016 335.622009 120.098831
v 68.233948 335.622009 120.285019
v 72.732880 334.899048 120.471146
v 78.731445 334.575500 119.381577
v 83.480316 334.082458 117.779404
v 88.229156 334.343750 116.177261
v 92.978027 334.156616 114.575089
v 97.726898 331.962952 112.972946
v 103.308899 331.352112 111.624954
v 108.890900 329.636353 110.276962
v 114.472900 328.136658 108.928970
v 120.054901 327.186707 107.581009
v 125.636871 326.460876 106.232986
v 131.218903 326.310974 104.885025
v 136.417664 325.609619 102.803482
v 141.616394 324.404175 100.721939
v 146.815155 322.641357 98.640396
v 152.013916 322.021362 96.558884
v 157.212677 321.926697 94.477341
v 163.211243 321.926697 93.728500
v 169.209808 323.064789 92.979660
v 173.708740 323.723145 93.728500
v 178.207642 324.983276 94.477341
v 182.206696 325.862061 96.477829
v 186.205750 326.623108 98.478348
v 189.329987 326.623108 102.101517
v 192.454254 326.956177 105.724655
v 194.829987 326.956177 110.723465
v 197.205688 326.680542 115.722275
v 199.581451 326.860657 120.721085
v 202.479187 327.375366 125.220016
v 206.509460 327.727417 129.718948
v 210.199982 327.588501 131.909836
v 214.698914 325.384094 132.968185
v 218.947906 325.574219 133.153702
v 223.196899 324.239563 133.339188
v 228.295685 323.764648 132.065659
v 233.394470 321.964050 130.792130
v 238.493225 321.246826 129.518631
v 243.592010 320.749329 128.245102
v 248.690796 320.376770 126.971573
v 253.689606 320.436493 125.969864
v 255.113068 320.540466 126.719681
v 254.966644 320.741333 127.719437
v 253.689606 320.831085 128.469254
v 248.440857 320.953491 130.033340
v 243.192108 321.899170 131.597427
v 239.359680 321.974731 133.386703
v 235.527283 323.085205 135.176010
v 231.694855 324.260315 136.965286
v 227.400970 326.997192 138.215622
v 223.107056 327.796021 139.465988
v 218.813171 328.358582 140.716354
v -72.732330 312.890747 -143.466095
v -73.732086 312.890747 -143.438751
v -75.481674 312.910217 -147.715088
v -75.481674 312.910217 -153.713654
v -74.481903 312.862305 -156.213058
v -71.982513 312.862305 -158.712463
v -70.980789 312.811157 -161.711746
v -67.483582 312.811157 -164.711029
v -67.548019 312.811157 -168.960022
v -67.612457 312.811157 -173.209015
v -68.981277 312.826874 -176.708191
v -68.010803 312.722717 -182.706757
v -68.481400 312.722717 -184.206390
v -66.607819 312.722717 -190.166901
v -64.734238 312.583923 -196.127396
v -62.234833 312.583923 -197.953125
v -57.735916 312.690491 -195.127625
v -55.312668 312.690491 -194.703903
v -52.775192 312.690491 -192.643845
v -50.237701 312.749634 -190.583801
v -44.614059 312.802307 -188.644806
v -38.990402 312.802307 -186.705811
v -35.762650 312.875549 -181.707001
v -33.491714 312.875549 -180.207352
v -30.992310 312.851685 -175.708420
v -28.178528 312.851685 -173.458954
v -25.364746 312.921143 -171.209488
v -24.495819 312.921143 -169.209961
v -25.743561 312.892517 -166.460617
v -27.743088 312.868591 -164.960968
v -32.242020 312.868591 -164.960968
v -36.740936 312.836243 -164.960968
v -40.490036 312.836243 -163.712250
v -44.239151 312.869324 -162.463531
v -47.738312 312.842102 -162.897995
v -51.237473 312.842102 -163.332458
v -56.736160 312.842102 -162.461578
v -59.860413 312.851807 -161.086899
v -62.984665 312.851807 -159.712219
v -65.359085 312.851807 -157.074188
v -67.733521 312.851807 -154.436127
v -68.733292 312.890747 -148.908142
v -70.607834 312.890747 -146.312088
v -72.482391 312.890747 -143.716034
v -128.219055 336.271973 231.442825
v -133.467804 336.413025 231.488693
v -138.716553 336.182190 231.534592
v -141.215942 336.093384 230.445023
v -145.464935 336.093384 230.694962
v -149.713913 336.045227 230.944901
v -155.050537 335.920349 229.695175
v -158.551636 335.903564 227.695663
v -160.020050 335.903564 226.196030
v -160.461334 335.833130 223.196732
v -162.189453 335.833130 220.197433
v -165.324432 335.766296 218.697800
v -168.459442 335.695068 217.198166
v -169.709137 335.695068 215.253311
v -172.958359 335.625244 212.688492
v -176.207581 335.533997 210.123672
v -176.455566 335.533997 208.200302
v -175.081879 335.591919 202.797287
v -173.708176 335.566956 197.394272
v -169.049133 335.566956 194.703506
v -166.709839 335.653748 191.225815
v -163.710571 335.758545 188.476486
v -160.711273 335.758545 185.727127
v -157.212128 335.788757 185.955582
v -153.712952 335.799622 187.455246
v -149.339981 335.792694 190.329544
v -144.967010 335.804993 193.203873
v -142.715591 335.814117 197.894150
v -140.061920 335.845764 201.297653
v -137.408264 335.979370 204.701126
v -137.716782 335.979370 206.679184
v -139.466370 335.881226 209.200058
v -140.837128 335.967072 215.198624
v -139.776840 335.967072 218.559158
v -138.716553 336.065063 221.919693
v -135.217377 336.065063 223.946548
v -129.718689 336.216827 225.448166
v -126.469482 336.358459 229.695175
v -127.797287 336.271973 231.194839
v -182.706024 320.130554 23.084152
v -186.205185 320.181641 20.994797
v -187.954773 319.979492 18.745346
v -188.452698 319.979492 16.245926
v -188.452698 319.979492 12.746780
v -188.452698 319.791992 9.247604
v -186.982346 319.601074 7.747971
v -186.513702 319.601074 3.748917
v -186.045074 319.558655 -0.250137
v -185.152710 319.657227 -3.249420
v -184.260345 319.226868 -6.248718
v -182.706024 319.226868 -7.726883
v -181.130219 319.038269 -11.247528
v -177.957153 319.038269 -12.247284
v -176.457520 319.038269 -14.246811
v -174.458008 318.741638 -19.745499
v -171.263458 318.392944 -23.244675
v -169.205353 318.392944 -27.077087
v -167.147247 318.092529 -30.909515
v -165.089142 318.092529 -34.741943
v -160.961227 317.731750 -36.741470
v -158.836731 317.731750 -39.865723
v -156.712250 317.410645 -42.989975
v -153.712952 317.410645 -44.618500
v -151.713440 317.078125 -47.488907
v -147.714386 317.078125 -48.988556
v -144.215240 316.521606 -47.988785
v -142.465652 317.003693 -44.739563
v -143.875458 317.003693 -43.239914
v -144.465179 317.355591 -38.241104
v -146.905991 317.440491 -35.241821
v -147.464447 317.702209 -30.243011
v -150.588715 317.797119 -28.868332
v -153.712952 317.797119 -27.493668
v -157.500137 318.105896 -23.619583
v -161.287323 318.422119 -19.745499
v -161.960983 318.590698 -15.246567
v -163.710571 318.773193 -13.496994
v -164.962219 318.773193 -10.247757
v -168.209488 319.122009 -6.824753
v -168.959320 319.122009 -2.249664
v -170.460907 319.287720 0.749619
v -172.708405 319.527283 3.498978
v -175.207825 319.527283 4.627609
v -175.653015 319.527283 8.247849
v -177.957153 319.940735 11.247116
v -179.207840 319.838074 15.995987
v -180.458511 320.129517 20.744858
v -182.327209 320.130554 22.744400
v 38.241119 313.972778 -25.994019
v 34.993866 314.023682 -26.743835
v 32.363617 314.112488 -28.743362
v 33.427826 313.902344 -33.242294
v 34.492035 313.837158 -37.741226
v 36.241608 313.839966 -41.490341
v 38.990936 313.635834 -43.284836
v 41.740295 313.467224 -45.079330
v 46.239227 313.467224 -45.489380
v 47.988800 313.467224 -44.739563
v 47.988800 313.608215 -39.240875
v 44.989502 313.769531 -35.241821
v 43.987793 313.769531 -30.243011
v 43.239929 314.031372 -28.995255
v 38.549652 313.972778 -26.243958

f 974 1213 1214
f 1212 1225 1226
f 1224 1222 1223
f 1215 974 1214
f 974 972 973
f 968 966 967
f 966 964 965
f 947 945 946
f 944 942 943
f 942 940 941
f 940 938 939
f 936 934 935
f 933 931 932
f 924 922 923
f 922 920 921
f 920 918 919
f 918 916 917
f 910 908 909
f 907 905 906
f 903 901 902
f 901 899 900
f 899 897 898
f 897 895 896
f 895 893 894
f 893 891 892
f 887 885 886
f 884 882 883
f 882 880 881
f 877 1199 876
f 1199 1197 1198
f 1197 1195 1196
f 1194 1192 1193
f 1192 1190 1191
f 1187 1185 1186
f 1184 1182 1183
f 1182 1180 1181
f 1180 1178 1179
f 1178 1176 1177
f 1175 1173 1174
f 1170 1168 1169
f 1168 603 604
f 602 600 601
f 600 598 599
f 598 596 597
f 595 593 594
f 591 589 590
f 588 586 587
f 586 584 585
f 583 581 582
f 578 576 577
f 575 573 574
f 572 570 571
f 570 568 569
f 568 566 567
f 566 564 565
f 564 562 563
f 562 560 561
f 556 554 555
f 544 542 543
f 541 539 540
f 539 537 538
f 537 535 536
f 535 533 534
f 532 530 531
f 529 527 528
f 527 525 526
f 524 522 523
f 521 519 520
f 517 515 516
f 515 513 514
f 512 510 511
f 509 507 508
f 507 505 506
f 505 503 504
f 502 500 501
f 499 497 498
f 497 495 496
f 495 493 494
f 491 489 490
f 482 480 481
f 480 478 479
f 478 476 477
f 475 473 474
f 469 467 468
f 467 465 466
f 463 461 462
f 458 456 457
f 456 1082 1083
f 1121 1119 1120
f 1119 1117 1118
f 1117 1115 1116
f 1112 1110 1111
f 1105 1103 1104
f 1103 1101 1102
f 1100 1098 1099
f 1097 1095 1096
f 1092 1090 1091
f 1090 1088 1089
f 1088 1086 1087
f 1086 1084 1085
f 1084 456 1083
f 454 452 453
f 452 450 451
f 449 447 448
f 446 444 445
f 443 441 442
f 438 436 437
f 434 432 433
f 431 429 430
f 428 426 427
f 426 424 425
f 422 420 421
f 420 418 419
f 415 413 414
f 413 411 412
f 404 402 403
f 401 399 400
f 365 363 364
f 363 361 362
f 359 357 358
f 356 354 355
f 353 351 352
f 350 348 349
f 347 345 346
f 343 341 342
f 341 339 340
f 338 336 337
f 334 332 333
f 329 327 328
f 327 325 326
f 324 322 323
f 319 317 318
f 315 313 314
f 313 311 312
f 309 307 308
f 306 304 305
f 302 300 301
f 298 296 297
f 295 293 294
f 292 290 291
f 290 288 289
f 288 286 287
f 285 283 284
f 283 281 282
f 279 277 278
f 277 275 276
f 274 272 273
f 269 267 268
f 263 261 262
f 259 257 258
f 257 255 256
f 254 252 253
f 252 250 251
f 246 244 245
f 243 241 242
f 241 239 240
f 239 237 238
f 233 231 232
f 229 227 228
f 227 225 226
f 222 220 221
f 216 214 215
f 214 212 213
f 211 209 210
f 207 205 206
f 205 203 204
f 202 200 201
f 200 198 199
f 195 193 194
f 193 191 192
f 188 186 187
f 180 178 179
f 178 176 177
f 176 174 175
f 174 172 173
f 171 169 170
f 168 166 167
f 166 164 165
f 163 161 162
f 161 159 160
f 158 156 157
f 156 154 155
f 153 151 152
f 151 149 150
f 148 146 147
f 145 143 144
f 143 141 142
f 139 137 138
f 134 132 133
f 130 128 129
f 128 126 127
f 126 124 125
f 123 121 122
f 121 119 120
f 118 116 117
f 114 112 113
f 112 110 111
f 109 107 108
f 107 105 106
f 104 102 103
f 101 99 100
f 96 94 95
f 92 90 91
f 89 87 88
f 87 85 86
f 85 83 84
f 82 80 81
f 77 75 76
f 74 72 73
f 71 69 70
f 68 66 67
f 66 64 65
f 64 62 63
f 61 59 60
f 59 57 58
f 56 54 55
f 54 52 53
f 51 49 50
f 49 47 48
f 46 44 45
f 41 39 40
f 38 36 37
f 35 33 34
f 33 31 32
f 30 28 29
f 28 26 27
f 25 23 24
f 20 18 19
f 18 16 17
f 12 10 11
f 5 3 4
f 2 767 1
f 755 753 754
f 750 748 749
f 743 741 742
f 733 731 732
f 726 724 725
f 721 719 720
f 719 717 718
f 714 712 713
f 712 710 711
f 707 705 706
f 702 700 701
f 691 689 690
f 682 680 681
f 655 653 654
f 652 650 651
f 647 645 646
f 645 1139 1140
f 1138 1136 1137
f 1135 1133 1134
f 1128 1126 1127
f 1160 1158 1159
f 1157 1155 1156
f 1152 1150 1151
f 1144 1142 1143
f 1141 645 1140
f 645 643 644
f 642 640 641
f 630 628 629
f 628 626 627
f 625 623 624
f 621 619 620
f 617 615 616
f 614 612 613
f 612 771 772
f 783 781 782
f 776 774 775
f 774 772 773
f 772 611 612
f 611 609 610
f 608 606 607
f 605 1168 604
f 1209 1207 1208
f 1207 1205 1206
f 1203 1201 1202
f 1201 1199 1200
f 1199 875 876
f 868 866 867
f 866 864 865
f 863 861 862
f 861 859 860
f 858 856 857
f 855 853 854
f 818 816 817
f 815 813 814
f 812 810 811
f 808 806 807
f 805 803 804
f 803 801 802
f 801 799 800
f 798 796 797
f 796 794 795
f 794 792 793
f 785 1078 1079
f 1076 1074 1075
f 1074 1072 1073
f 1067 1065 1066
f 1065 1063 1064
f 1063 1061 1062
f 1061 1059 1060
f 1059 1057 1058
f 1057 1055 1056
f 1055 1053 1054
f 1044 1042 1043
f 1041 1039 1040
f 1037 1035 1036
f 1031 1029 1030
f 1028 1026 1027
f 1026 1024 1025
f 1024 1022 1023
f 1020 1018 1019
f 1018 1016 1017
f 1016 1014 1015
f 1014 1012 1013
f 1012 1010 1011
f 1010 1008 1009
f 1007 1005 1006
f 1004 1002 1003
f 1000 998 999
f 985 983 984
f 982 980 981
f 979 977 978
f 977 975 976
f 975 1213 974
f 1216 974 1215
f 974 971 972
f 968 964 966
f 947 944 945
f 944 940 942
f 937 934 936
f 933 930 931
f 924 920 922
f 907 904 905
f 904 901 903
f 901 897 899
f 897 893 895
f 893 890 891
f 887 884 885
f 878 1199 877
f 1199 1195 1197
f 1185 1182 1184
f 1182 1178 1180
f 1178 1175 1176
f 1171 1168 1170
f 1168 602 603
f 596 593 595
f 592 589 591
f 586 583 584
f 583 580 581
f 579 576 578
f 575 572 573
f 572 568 570
f 568 564 566
f 564 560 562
f 557 554 556
f 545 542 544
f 542 539 541
f 537 533 535
f 530 527 529
f 525 522 524
f 522 519 521
f 517 513 515
f 513 510 512
f 509 505 507
f 502 499 500
f 499 495 497
f 495 492 493
f 492 489 491
f 483 480 482
f 480 476 478
f 475 472 473
f 470 467 469
f 464 461 463
f 458 1082 456
f 1121 1117 1119
f 1117 1114 1115
f 1113 1110 1112
f 1106 1103 1105
f 1101 1098 1100
f 1090 1086 1088
f 1086 456 1084
f 455 452 454
f 452 449 450
f 447 444 446
f 444 441 443
f 439 436 438
f 435 432 434
f 431 428 429
f 428 424 426
f 423 420 422
f 416 413 415
f 413 410 411
f 404 401 402
f 401 398 399
f 366 363 365
f 363 360 361
f 359 356 357
f 354 351 353
f 350 347 348
f 347 344 345
f 344 341 343
f 338 335 336
f 327 324 325
f 320 317 319
f 316 313 315
f 313 310 311
f 307 304 306
f 303 300 302
f 299 296 298
f 296 293 295
f 292 288 290
f 285 281 283
f 280 277 279
f 274 271 272
f 270 267 269
f 264 261 263
f 260 257 259
f 257 254 255
f 254 250 252
f 246 243 244
f 243 239 241
f 239 236 237
f 234 231 233
f 230 227 229
f 227 224 225
f 222 219 220
f 217 214 216
f 212 209 211
f 205 202 203
f 202 198 200
f 195 191 193
f 180 176 178
f 176 172 174
f 171 168 169
f 166 163 164
f 163 159 161
f 158 154 156
f 154 151 153
f 148 145 146
f 145 141 143
f 140 137 139
f 134 131 132
f 131 128 130
f 128 124 126
f 123 119 121
f 119 116 118
f 115 112 114
f 109 105 107
f 105 102 104
f 102 99 101
f 96 93 94
f 92 89 90
f 87 83 85
f 82 79 80
f 77 74 75
f 71 68 69
f 66 62 64
f 61 57 59
f 56 52 54
f 51 47 49
f 46 43 44
f 41 38 39
f 35 31 33
f 30 26 28
f 25 22 23
f 20 16 18
f 13 10 12
f 5 2 3
f 2 766 767
f 756 753 755
f 744 741 743
f 734 731 733
f 726 723 724
f 722 719 721
f 719 716 717
f 714 710 712
f 708 705 707
f 702 699 700
f 692 689 691
f 683 680 682
f 656 653 655
f 652 649 650
f 647 1139 645
f 1139 1136 1138
f 1136 1133 1135
f 1129 1126 1128
f 1160 1157 1158
f 1157 1154 1155
f 1153 1150 1152
f 1145 1142 1144
f 1142 645 1141
f 645 642 643
f 631 628 630
f 628 625 626
f 625 622 623
f 621 618 619
f 617 614 615
f 614 771 612
f 783 780 781
f 776 772 774
f 772 609 611
f 608 605 606
f 605 1167 1168
f 1210 1207 1209
f 1207 1204 1205
f 1203 1199 1201
f 1199 874 875
f 868 864 866
f 864 861 863
f 861 858 859
f 858 855 856
f 855 852 853
f 819 816 818
f 816 813 815
f 809 806 808
f 806 803 805
f 803 799 801
f 799 796 798
f 796 792 794
f 785 1077 1078
f 1076 1072 1074
f 1065 1061 1063
f 1061 1057 1059
f 1057 1053 1055
f 1045 1042 1044
f 1042 1039 1041
f 1038 1035 1037
f 1032 1029 1031
f 1028 1024 1026
f 1024 1021 1022
f 1021 1018 1020
f 1018 1014 1016
f 1014 1010 1012
f 1010 1007 1008
f 1007 1004 1005
f 1004 1001 1002
f 1001 998 1000
f 985 982 983
f 982 979 980
f 979 975 977
f 975 1212 1213
f 1217 974 1216
f 974 970 971
f 968 963 964
f 948 944 947
f 944 938 940
f 938 934 937
f 933 929 930
f 925 920 924
f 907 901 904
f 901 893 897
f 893 889 890
f 888 884 887
f 879 1199 878
f 1199 1194 1195
f 1182 1175 1178
f 1171 602 1168
f 596 592 593
f 592 588 589
f 588 583 586
f 583 579 580
f 579 575 576
f 575 568 572
f 568 560 564
f 558 554 557
f 542 537 539
f 537 532 533
f 532 527 530
f 525 519 522
f 517 510 513
f 509 503 505
f 502 495 499
f 483 476 480
f 470 465 467
f 464 460 461
f 459 1082 458
f 1122 1117 1121
f 1117 1113 1114
f 1113 1109 1110
f 1106 1101 1103
f 1101 1097 1098
f 1092 1086 1090
f 1086 455 456
f 455 449 452
f 447 441 444
f 440 436 439
f 435 431 432
f 431 424 428
f 423 418 420
f 416 410 413
f 405 401 404
f 401 397 398
f 367 363 366
f 363 359 360
f 359 354 356
f 354 350 351
f 350 344 347
f 344 339 341
f 329 324 327
f 320 316 317
f 316 310 313
f 307 303 304
f 303 299 300
f 299 293 296
f 292 286 288
f 286 281 285
f 274 270 271
f 270 266 267
f 264 260 261
f 260 254 257
f 254 249 250
f 246 239 243
f 239 235 236
f 235 231 234
f 230 224 227
f 223 219 222
f 217 212 214
f 205 198 202
f 196 191 195
f 180 172 176
f 172 168 171
f 168 163 166
f 163 158 159
f 158 151 154
f 148 141 145
f 135 131 134
f 131 124 128
f 124 119 123
f 115 110 112
f 109 102 105
f 102 98 99
f 97 93 96
f 92 87 89
f 87 82 83
f 82 78 79
f 77 72 74
f 71 66 68
f 66 61 62
f 61 56 57
f 56 51 52
f 51 46 47
f 46 42 43
f 41 36 38
f 35 30 31
f 30 25 26
f 25 21 22
f 21 16 20
f 14 10 13
f 5 766 2
f 757 753 756
f 745 741 744
f 735 731 734
f 722 716 719
f 714 709 710
f 708 704 705
f 702 698 699
f 693 689 692
f 684 680 683
f 657 653 656
f 652 648 649
f 648 1139 647
f 1136 1132 1133
f 1160 1154 1157
f 1146 1142 1145
f 1142 642 645
f 632 628 631
f 628 622 625
f 621 617 618
f 617 771 614
f 784 780 783
f 776 609 772
f 608 1167 605
f 1210 1204 1207
f 1204 1199 1203
f 1199 873 874
f 869 864 868
f 864 858 861
f 858 852 855
f 819 813 816
f 809 803 806
f 803 796 799
f 785 1076 1077
f 1076 1071 1072
f 1067 1061 1065
f 1061 1053 1057
f 1045 1039 1042
f 1033 1029 1032
f 1029 1024 1028
f 1024 1018 1021
f 1018 1010 1014
f 1010 1004 1007
f 1004 998 1001
f 985 979 982
f 979 1212 975
f 1218 974 1217
f 974 969 970
f 969 963 968
f 948 938 944
f 926 920 925
f 907 893 901
f 893 888 889
f 888 882 884
f 880 1199 879
f 1172 602 1171
f 583 575 579
f 575 560 568
f 559 554 558
f 545 537 542
f 537 527 532
f 525 518 519
f 517 509 510
f 509 502 503
f 502 492 495
f 484 476 483
f 471 465 470
f 464 459 460
f 459 1081 1082
f 1123 1117 1122
f 1092 455 1086
f 455 447 449
f 447 440 441
f 440 435 436
f 435 424 431
f 405 397 401
f 368 363 367
f 363 354 359
f 354 344 350
f 329 322 324
f 321 316 320
f 316 309 310
f 307 299 303
f 299 292 293
f 286 280 281
f 275 270 274
f 264 254 260
f 246 235 239
f 235 230 231
f 230 223 224
f 223 218 219
f 218 212 217
f 205 197 198
f 197 191 196
f 180 168 172
f 168 158 163
f 149 141 148
f 135 124 131
f 124 116 119
f 115 109 110
f 109 98 102
f 97 92 93
f 82 77 78
f 77 71 72
f 61 51 56
f 46 41 42
f 41 35 36
f 25 16 21
f 15 10 14
f 5 765 766
f 758 753 757
f 746 741 745
f 736 731 735
f 723 716 722
f 703 698 702
f 694 689 693
f 684 679 680
f 658 653 657
f 652 1139 648
f 1139 1132 1136
f 1161 1154 1160
f 1142 640 642
f 632 622 628
f 621 771 617
f 777 609 776
f 609 1167 608
f 1210 1199 1204
f 1199 872 873
f 870 864 869
f 864 852 858
f 819 812 813
f 809 796 803
f 1067 1053 1061
f 1045 1038 1039
f 1034 1029 1033
f 1029 1018 1024
f 1018 1004 1010
f 1004 997 998
f 986 979 985
f 1219 974 1218
f 969 962 963
f 949 938 948
f 926 918 920
f 907 888 893
f 888 880 882
f 880 1194 1199
f 1173 602 1172
f 583 560 575
f 560 554 559
f 545 527 537
f 525 517 518
f 509 492 502
f 471 464 465
f 464 1081 459
f 1123 1113 1117
f 1093 455 1092
f 447 435 440
f 435 423 424
f 406 397 405
f 369 363 368
f 363 344 354
f 329 321 322
f 321 309 316
f 309 299 307
f 299 286 292
f 286 277 280
f 265 254 264
f 246 230 235
f 230 218 223
f 218 209 212
f 205 191 197
f 180 158 168
f 151 141 149
f 135 116 124
f 115 98 109
f 97 87 92
f 82 71 77
f 46 35 41
f 30 16 25
f 16 10 15
f 6 765 5
f 759 753 758
f 746 740 741
f 737 731 736
f 726 716 723
f 703 697 698
f 695 689 694
f 685 679 684
f 659 653 658
f 653 1139 652
f 1139 1131 1132
f 1161 1153 1154
f 1146 640 1142
f 633 622 632
f 622 771 621
f 778 609 777
f 609 1166 1167
f 1210 872 1199
f 870 852 864
f 819 810 812
f 810 796 809
f 1068 1053 1067
f 1045 1035 1038
f 1034 1018 1029
f 1018 997 1004
f 986 1212 979
f 1219 969 974
f 969 961 962
f 950 938 949
f 926 916 918
f 908 888 907
f 888 1194 880
f 1175 602 1173
f 588 560 583
f 560 553 554
f 546 527 545
f 517 492 509
f 472 464 471
f 464 1080 1081
f 1080 1113 1123
f 1094 455 1093
f 455 435 447
f 435 418 423
f 407 397 406
f 370 363 369
f 363 339 344
f 329 309 321
f 309 286 299
f 286 275 277
f 265 249 254
f 246 218 230
f 218 208 209
f 207 191 205
f 180 151 158
f 151 140 141
f 136 116 135
f 116 98 115
f 98 87 97
f 87 71 82
f 51 35 46
f 35 16 30
f 16 9 10
f 6 764 765
f 760 753 759
f 746 739 740
f 738 731 737
f 726 715 716
f 703 696 697
f 696 689 695
f 685 678 679
f 660 653 659
f 653 1131 1139
f 1146 639 640
f 634 622 633
f 622 770 771
f 779 609 778
f 609 1165 1166
f 1211 872 1210
f 871 852 870
f 819 796 810
f 1068 1052 1053
f 1045 1034 1035
f 1034 997 1018
f 987 1212 986
f 1220 969 1219
f 969 960 961
f 950 934 938
f 910 888 908
f 888 1192 1194
f 1182 602 1175
f 592 560 588
f 560 552 553
f 547 527 546
f 525 492 517
f 472 1080 464
f 1080 1109 1113
f 1094 435 455
f 407 396 397
f 371 363 370
f 363 338 339
f 330 309 329
f 309 275 286
f 265 248 249
f 247 218 246
f 207 190 191
f 181 151 180
f 151 137 140
f 136 98 116
f 98 71 87
f 61 35 51
f 6 763 764
f 761 753 760
f 746 738 739
f 738 730 731
f 726 714 715
f 704 696 703
f 696 688 689
f 685 677 678
f 661 653 660
f 653 1130 1131
f 1146 638 639
f 635 622 634
f 622 769 770
f 779 1165 609
f 1163 872 1211
f 872 852 871
f 820 796 819
f 1068 1051 1052
f 1045 997 1034
f 988 1212 987
f 1220 960 969
f 951 934 950
f 911 888 910
f 888 1190 1192
f 1185 602 1182
f 596 560 592
f 560 551 552
f 548 527 547
f 525 489 492
f 475 1080 472
f 1095 435 1094
f 372 363 371
f 363 335 338
f 330 275 309
f 247 208 218
f 207 189 190
f 182 151 181
f 151 136 137
f 136 71 98
f 66 35 61
f 6 762 763
f 762 753 761
f 747 738 746
f 738 729 730
f 726 709 714
f 704 688 696
f 685 676 677
f 662 653 661
f 653 1129 1130
f 1146 637 638
f 635 769 622
f 780 1165 779
f 1163 852 872
f 821 796 820
f 1068 1050 1051
f 1046 997 1045
f 989 1212 988
f 1221 960 1220
f 952 934 951
f 912 888 911
f 888 1189 1190
f 1187 602 1185
f 598 560 596
f 549 527 548
f 525 488 489
f 475 1109 1080
f 1095 418 435
f 373 363 372
f 363 334 335
f 331 275 330
f 247 207 208
f 182 136 151
f 136 66 71
f 7 762 6
f 762 752 753
f 747 729 738
f 727 709 726
f 708 688 704
f 685 675 676
f 663 653 662
f 653 1126 1129
f 1146 636 637
f 636 769 635
f 784 1165 780
f 1163 851 852
f 821 792 796
f 1068 1049 1050
f 1047 997 1046
f 990 1212 989
f 1221 959 960
f 953 934 952
f 888 1188 1189
f 1187 600 602
f 600 560 598
f 549 525 527
f 525 487 488
f 476 1109 475
f 1097 418 1095
f 374 363 373
f 363 332 334
f 332 275 331
f 247 189 207
f 182 66 136
f 7 752 762
f 747 728 729
f 728 709 727
f 708 687 688
f 685 674 675
f 664 653 663
f 653 1125 1126
f 1146 769 636
f 784 1164 1165
f 1163 850 851
f 822 792 821
f 1048 997 1047
f 991 1212 990
f 1221 958 959
f 954 934 953
f 1188 600 1187
f 600 551 560
f 550 525 549
f 476 1108 1109
f 1097 417 418
f 375 363 374
f 332 270 275
f 183 66 182
f 7 751 752
f 747 709 728
f 708 686 687
f 685 673 674
f 665 653 664
f 653 1124 1125
f 1147 769 1146
f 784 1163 1164
f 1163 849 850
f 823 792 822
f 1049 997 1048
f 992 1212 991
f 1221 957 958
f 954 933 934
f 1188 551 600
f 551 525 550
f 1101 417 1097
f 376 363 375
f 332 266 270
f 183 35 66
f 8 751 7
f 685 672 673
f 666 653 665
f 1148 769 1147
f 784 849 1163
f 823 791 792
f 1068 997 1049
f 993 1212 992
f 1221 956 957
f 954 929 933
f 1188 525 551
f 1101 416 417
f 377 363 376
f 184 35 183
f 9 751 8
f 685 671 672
f 667 653 666
f 1149 769 1148
f 768 849 784
f 823 790 791
f 1068 996 997
f 993 1225 1212
f 1221 955 956
f 1188 487 525
f 1101 410 416
f 378 363 377
f 185 35 184
f 9 750 751
f 686 671 685
f 668 653 667
f 1150 769 1149
f 768 848 849
f 823 789 790
f 1068 995 996
f 993 1224 1225
f 1221 954 955
f 1188 486 487
f 1106 410 1101
f 379 363 378
f 186 35 185
f 9 748 750
f 686 670 671
f 669 653 668
f 1153 769 1150
f 768 847 848
f 823 788 789
f 1068 994 995
f 993 1222 1224
f 1221 929 954
f 1188 485 486
f 1107 410 1106
f 380 363 379
f 188 35 186
f 9 747 748
f 686 669 670
f 669 1124 653
f 1153 768 769
f 768 846 847
f 823 787 788
f 1068 993 994
f 888 485 1188
f 1107 409 410
f 381 363 380
f 189 35 188
f 9 709 747
f 686 1124 669
f 1153 846 768
f 1069 993 1068
f 888 484 485
f 1107 408 409
f 382 363 381
f 247 35 189
f 708 1124 686
f 1161 846 1153
f 1069 1222 993
f 888 476 484
f 1107 407 408
f 383 363 382
f 709 1124 708
f 1161 845 846
f 1069 1221 1222
f 912 476 888
f 1107 396 407
f 384 363 383
f 9 1124 709
f 1161 844 845
f 913 476 912
f 385 363 384
f 9 1162 1124
f 1161 843 844
f 913 1108 476
f 386 363 385
f 9 1161 1162
f 1161 842 843
f 914 1108 913
f 387 363 386
f 1161 841 842
f 915 1108 914
f 388 363 387
f 1161 840 841
f 916 1108 915
f 389 363 388
f 1161 839 840
f 916 1107 1108
f 390 363 389
f 1161 838 839
f 926 1107 916
f 391 363 390
f 1161 837 838
f 926 396 1107
f 392 363 391
f 1161 836 837
f 927 396 926
f 393 363 392
f 1161 835 836
f 928 396 927
f 394 363 393
f 1161 834 835
f 928 395 396
f 395 363 394
f 1161 833 834
f 929 395 928
f 395 332 363
f 1161 832 833
f 1221 395 929
f 395 266 332
f 1161 831 832
f 395 265 266
f 9 831 1161
f 1221 265 395
f 16 831 9
f 1221 248 265
f 16 830 831
f 1221 247 248
f 16 829 830
f 1069 247 1221
f 16 828 829
f 1069 35 247
f 16 827 828
f 1069 16 35
f 16 826 827
f 1070 16 1069
f 16 825 826
f 1071 16 1070
f 16 824 825
f 1076 16 1071
f 16 823 824
f 785 16 1076
f 16 787 823
f 786 16 785
f 16 786 787
